G04 #@! TF.FileFunction,Copper,L2,Bot,Signal*
%FSLAX46Y46*%
G04 Gerber Fmt 4.6, Leading zero omitted, Abs format (unit mm)*
G04 Created by KiCad (PCBNEW 4.0.1-3.201512221401+6198~38~ubuntu15.10.1-stable) date Thu 31 Mar 2016 03:59:57 PM EEST*
%MOMM*%
G01*
G04 APERTURE LIST*
%ADD10C,0.100000*%
%ADD11R,1.750000X1.750000*%
%ADD12C,1.800000*%
%ADD13R,1.016000X1.016000*%
%ADD14R,0.500000X0.550000*%
%ADD15R,0.550000X0.500000*%
%ADD16R,1.400000X1.000000*%
%ADD17R,1.168400X1.600200*%
%ADD18C,2.500000*%
%ADD19C,2.000000*%
%ADD20R,1.778000X1.778000*%
%ADD21C,1.778000*%
%ADD22C,1.000000*%
%ADD23C,0.500000*%
%ADD24C,0.254000*%
%ADD25C,0.508000*%
%ADD26C,1.016000*%
%ADD27C,1.524000*%
%ADD28C,1.270000*%
%ADD29C,0.203200*%
G04 APERTURE END LIST*
D10*
D11*
X149225000Y-74676000D03*
D12*
X151765000Y-74676000D03*
X149225000Y-77216000D03*
X151765000Y-77216000D03*
X149225000Y-79756000D03*
X151765000Y-79756000D03*
X149225000Y-82296000D03*
X151765000Y-82296000D03*
X149225000Y-84836000D03*
X151765000Y-84836000D03*
X151765000Y-87376000D03*
X149225000Y-87376000D03*
X151765000Y-89916000D03*
X149225000Y-89916000D03*
X151765000Y-92456000D03*
X149225000Y-92456000D03*
X151765000Y-94996000D03*
X149225000Y-94996000D03*
X151765000Y-97536000D03*
X149225000Y-97536000D03*
X151765000Y-105156000D03*
X149225000Y-105156000D03*
X151765000Y-115316000D03*
X149225000Y-112776000D03*
X151765000Y-112776000D03*
X149225000Y-115316000D03*
X149225000Y-110236000D03*
X151765000Y-107696000D03*
X151765000Y-110236000D03*
X149225000Y-107696000D03*
X151765000Y-100076000D03*
X151765000Y-102616000D03*
X149225000Y-102616000D03*
X149225000Y-100076000D03*
D13*
X136906000Y-74803000D03*
X138684000Y-74803000D03*
D14*
X136017000Y-71374000D03*
X135001000Y-71374000D03*
D15*
X140208000Y-72009000D03*
X140208000Y-73025000D03*
D14*
X140589000Y-74930000D03*
X141605000Y-74930000D03*
X143256000Y-74930000D03*
X144272000Y-74930000D03*
D16*
X141648000Y-73467000D03*
X141648000Y-71567000D03*
X143848000Y-72517000D03*
D17*
X134239000Y-113030000D03*
X134239000Y-113030000D03*
X132715000Y-113030000D03*
X134239000Y-115570000D03*
X134239000Y-115570000D03*
X132715000Y-115570000D03*
X134239000Y-118110000D03*
X134239000Y-118110000D03*
X132715000Y-118110000D03*
X134239000Y-110490000D03*
X134239000Y-110490000D03*
X132715000Y-110490000D03*
D18*
X136500000Y-117000000D03*
X136500000Y-110000000D03*
X143500000Y-110000000D03*
D19*
X140000000Y-113500000D03*
D18*
X143500000Y-117000000D03*
D20*
X149225000Y-117856000D03*
D21*
X151765000Y-117856000D03*
D22*
X128270000Y-71755000D03*
X151765000Y-71755000D03*
X128270000Y-118110000D03*
D11*
X130810000Y-74676000D03*
D12*
X128270000Y-74676000D03*
X130810000Y-77216000D03*
X128270000Y-77216000D03*
X130810000Y-79756000D03*
X128270000Y-79756000D03*
X130810000Y-82296000D03*
X128270000Y-82296000D03*
X130810000Y-84836000D03*
X128270000Y-84836000D03*
X128270000Y-87376000D03*
X130810000Y-87376000D03*
X128270000Y-89916000D03*
X130810000Y-89916000D03*
X128270000Y-92456000D03*
X130810000Y-92456000D03*
X128270000Y-94996000D03*
X130810000Y-94996000D03*
X128270000Y-97536000D03*
X130810000Y-97536000D03*
X128270000Y-105156000D03*
X130810000Y-105156000D03*
X128270000Y-115316000D03*
X130810000Y-112776000D03*
X128270000Y-112776000D03*
X130810000Y-115316000D03*
X130810000Y-110236000D03*
X128270000Y-107696000D03*
X128270000Y-110236000D03*
X130810000Y-107696000D03*
X128270000Y-100076000D03*
X128270000Y-102616000D03*
X130810000Y-102616000D03*
X130810000Y-100076000D03*
D16*
X136692640Y-72514460D03*
X138902440Y-73469500D03*
X138902440Y-71567040D03*
D13*
X132588000Y-71501000D03*
X132588000Y-73279000D03*
D23*
X133604000Y-93146237D03*
X142240000Y-93146237D03*
X142554864Y-89165767D03*
X133605891Y-90620043D03*
X142113000Y-90631190D03*
X133604000Y-91821000D03*
X142113000Y-91821000D03*
X136017000Y-84328000D03*
X135254000Y-84327000D03*
X134620000Y-84328000D03*
X143764000Y-85344000D03*
X144272000Y-84836000D03*
X144780000Y-85344000D03*
X145288000Y-84836000D03*
X137672001Y-97785999D03*
X133477000Y-98806000D03*
X133477000Y-98171000D03*
X133477000Y-97536000D03*
X133477000Y-96774000D03*
X138684000Y-95457190D03*
X137922000Y-96774000D03*
X146939000Y-89154000D03*
X146177000Y-89154000D03*
X142875000Y-97282000D03*
X146050000Y-96774000D03*
X142875000Y-96774000D03*
X143383000Y-96774000D03*
X147447000Y-99949000D03*
X144018000Y-103759000D03*
X144653000Y-103759000D03*
X143383000Y-103966190D03*
X142875000Y-103966190D03*
X142875000Y-103124000D03*
X143383000Y-103124000D03*
X143891000Y-105537000D03*
X143383000Y-105537000D03*
X142875000Y-105537000D03*
X144145000Y-106045000D03*
X143256000Y-106045000D03*
X136114201Y-105537000D03*
X137160000Y-105537000D03*
X136652000Y-105537000D03*
X136779000Y-106045000D03*
X135890000Y-106045000D03*
D22*
X154130926Y-116840000D03*
X154130926Y-114300000D03*
X154130926Y-111760000D03*
X154130926Y-109220000D03*
X154130926Y-106680000D03*
X154130926Y-104140000D03*
X154130926Y-101600000D03*
X154130926Y-99060000D03*
X154130926Y-96520000D03*
X154130926Y-93980000D03*
X154130926Y-91440000D03*
X154130926Y-88900000D03*
X154130926Y-86360000D03*
X154130926Y-83820000D03*
X154130926Y-81280000D03*
X154130926Y-78740000D03*
X154130926Y-76200000D03*
X154108848Y-72784277D03*
X154130926Y-70815954D03*
X154130926Y-74663083D03*
D23*
X154051000Y-119126000D03*
X130045460Y-119382540D03*
X131445000Y-119382540D03*
X132715000Y-119382540D03*
X133985000Y-119382540D03*
X135255000Y-119382540D03*
X136525000Y-119382540D03*
X137795000Y-119382540D03*
X139065000Y-119382540D03*
X140335000Y-119382540D03*
X141605000Y-119382540D03*
X142875000Y-119382540D03*
X144145000Y-119382540D03*
X145415000Y-119382540D03*
X146685000Y-119382540D03*
X147955000Y-119382540D03*
X149225000Y-119382540D03*
X150495000Y-119382540D03*
X152958094Y-119382540D03*
X151765000Y-119382540D03*
D22*
X126111000Y-117348000D03*
X126111000Y-119126000D03*
X126111000Y-77216000D03*
X126111000Y-72771000D03*
X126111000Y-74759254D03*
X126111000Y-70866000D03*
D23*
X150796398Y-73406000D03*
X149994999Y-71755000D03*
X149994999Y-72604601D03*
X130040001Y-72907761D03*
X130040001Y-71755000D03*
X131073288Y-70611630D03*
X132080000Y-70609839D03*
X130112700Y-70609839D03*
X133350000Y-70609839D03*
X134620000Y-70609839D03*
X135890000Y-70609839D03*
X137160000Y-70609839D03*
X138430000Y-70609839D03*
X139700000Y-70609839D03*
X140970000Y-70609799D03*
X142713801Y-70609839D03*
X144272000Y-70609839D03*
X146050000Y-70609839D03*
X147320000Y-70609839D03*
X148590000Y-70609839D03*
X147574000Y-73660000D03*
X147066000Y-73660000D03*
X146558000Y-73660000D03*
X147574000Y-73152000D03*
X147066000Y-73152000D03*
X149965978Y-70609839D03*
X136655658Y-74039089D03*
X137160000Y-74041000D03*
X137668000Y-74295000D03*
X137668000Y-74803000D03*
X133858000Y-71374000D03*
X133858000Y-72009000D03*
D22*
X126111000Y-115316000D03*
X126111000Y-79756000D03*
X126111000Y-82296000D03*
X126111000Y-84836000D03*
X126111000Y-87376000D03*
X126111000Y-89916000D03*
X126111000Y-92456000D03*
X126111000Y-94996000D03*
X126111000Y-97536000D03*
X126111000Y-100076000D03*
X126111000Y-102616000D03*
X126111000Y-105156000D03*
X126111000Y-107696000D03*
X126111000Y-110236000D03*
X126111000Y-112776000D03*
D23*
X148082000Y-99314000D03*
X152781000Y-106426000D03*
X153135372Y-101388105D03*
X153162000Y-81026000D03*
X153162000Y-78486000D03*
X141838035Y-89905996D03*
X141427190Y-92591427D03*
X139319000Y-94280820D03*
X137160000Y-96012000D03*
X152400000Y-83566000D03*
X147955000Y-80772000D03*
X138124750Y-82824857D03*
X139846838Y-74935783D03*
X140993441Y-82972860D03*
X141732000Y-98933000D03*
X138557000Y-98933000D03*
X134239000Y-109093000D03*
X144653000Y-104521000D03*
X139319000Y-103251000D03*
X137718339Y-85676611D03*
X135947335Y-85676611D03*
X136608699Y-87249000D03*
X137718321Y-87249000D03*
X138124750Y-83528070D03*
X142367000Y-83528070D03*
X138557000Y-81661000D03*
X140970000Y-81661000D03*
X140573566Y-80371966D03*
X138909305Y-80378343D03*
D24*
X142240000Y-93146237D02*
X142240000Y-93218000D01*
X138125190Y-93294190D02*
X137980152Y-93149152D01*
X142240000Y-93218000D02*
X142163810Y-93294190D01*
X142163810Y-93294190D02*
X138125190Y-93294190D01*
X137980152Y-93149152D02*
X133606915Y-93149152D01*
X133606915Y-93149152D02*
X133604000Y-93146237D01*
X133604000Y-93146237D02*
X133604000Y-93091000D01*
D25*
X146177000Y-89154000D02*
X142566631Y-89154000D01*
X142566631Y-89154000D02*
X142554864Y-89165767D01*
D24*
X133617038Y-90631190D02*
X133605891Y-90620043D01*
X142113000Y-90631190D02*
X133617038Y-90631190D01*
D25*
X140462000Y-91821000D02*
X133604000Y-91821000D01*
X142113000Y-91821000D02*
X140462000Y-91821000D01*
X143256000Y-106045000D02*
X142902447Y-106045000D01*
X142902447Y-106045000D02*
X136779000Y-106045000D01*
X144272000Y-84836000D02*
X145288000Y-84836000D01*
X137160000Y-84328000D02*
X137668000Y-84836000D01*
X137668000Y-84836000D02*
X144272000Y-84836000D01*
X136017000Y-84328000D02*
X137160000Y-84328000D01*
D26*
X128270000Y-82296000D02*
X126111000Y-82296000D01*
D25*
X144272000Y-72524093D02*
X144272000Y-73152000D01*
X144272000Y-73152000D02*
X144272000Y-74930000D01*
X147066000Y-73152000D02*
X144272000Y-73152000D01*
X143848000Y-72517000D02*
X144267555Y-72517000D01*
X144267555Y-72517000D02*
X144267555Y-71886445D01*
X144267555Y-71886445D02*
X144272000Y-71882000D01*
X144272000Y-71882000D02*
X144272000Y-70609839D01*
X143848000Y-72517000D02*
X144272000Y-72093000D01*
X144272000Y-72093000D02*
X144272000Y-71882000D01*
X137922000Y-96774000D02*
X133477000Y-96774000D01*
X132080000Y-70609839D02*
X132588000Y-70609839D01*
X132588000Y-70609839D02*
X133350000Y-70609839D01*
X132588000Y-71501000D02*
X132588000Y-70609839D01*
X142875000Y-96774000D02*
X137922000Y-96774000D01*
D26*
X154130926Y-116840000D02*
X154130926Y-114300000D01*
X154130926Y-117769578D02*
X154130926Y-116840000D01*
X154130926Y-114300000D02*
X154130926Y-111760000D01*
X154130926Y-111760000D02*
X154130926Y-109220000D01*
X154130926Y-109220000D02*
X154130926Y-106680000D01*
X154130926Y-106680000D02*
X154130926Y-104140000D01*
X154130926Y-104140000D02*
X154130926Y-101600000D01*
X154130926Y-101600000D02*
X154130926Y-99060000D01*
X154130926Y-99060000D02*
X154130926Y-96520000D01*
X154130926Y-96520000D02*
X154130926Y-93980000D01*
X154130926Y-93980000D02*
X154130926Y-91440000D01*
X154130926Y-91440000D02*
X154130926Y-88900000D01*
X154130926Y-88900000D02*
X154130926Y-86360000D01*
X154130926Y-86360000D02*
X154130926Y-83820000D01*
X154130926Y-83820000D02*
X154130926Y-81280000D01*
X154130926Y-81280000D02*
X154130926Y-78740000D01*
X154130926Y-78740000D02*
X154130926Y-76200000D01*
X154130926Y-76200000D02*
X154130926Y-75370189D01*
X154051000Y-117856000D02*
X154125126Y-117930126D01*
X154125126Y-117930126D02*
X154125126Y-119051874D01*
X154125126Y-119051874D02*
X154051000Y-119126000D01*
X154051000Y-117856000D02*
X154051000Y-117849504D01*
X154051000Y-117849504D02*
X154130926Y-117769578D01*
X154130926Y-75370189D02*
X154130926Y-74663083D01*
X154130926Y-72806355D02*
X154108848Y-72784277D01*
X154130926Y-70815954D02*
X154130926Y-72762199D01*
X154130926Y-74663083D02*
X154130926Y-72806355D01*
X154130926Y-72762199D02*
X154108848Y-72784277D01*
X154130926Y-70815954D02*
X154130923Y-70815951D01*
X154118009Y-74676000D02*
X154130926Y-74663083D01*
X151765000Y-74676000D02*
X154118009Y-74676000D01*
D25*
X131445000Y-119382540D02*
X132715000Y-119382540D01*
X130045460Y-119382540D02*
X131445000Y-119382540D01*
X132715000Y-119382540D02*
X133985000Y-119382540D01*
X133985000Y-119382540D02*
X135255000Y-119382540D01*
X135255000Y-119382540D02*
X136525000Y-119382540D01*
X137795000Y-119382540D02*
X139065000Y-119382540D01*
X136525000Y-119382540D02*
X137795000Y-119382540D01*
X139065000Y-119382540D02*
X140335000Y-119382540D01*
X140335000Y-119382540D02*
X141605000Y-119382540D01*
X141605000Y-119382540D02*
X142875000Y-119382540D01*
X142875000Y-119382540D02*
X143510000Y-119382540D01*
X144145000Y-119382540D02*
X145415000Y-119382540D01*
X143510000Y-119382540D02*
X144145000Y-119382540D01*
X145415000Y-119382540D02*
X146685000Y-119382540D01*
X146685000Y-119382540D02*
X147955000Y-119382540D01*
X147955000Y-119382540D02*
X149225000Y-119382540D01*
X149225000Y-119382540D02*
X150495000Y-119382540D01*
X150495000Y-119382540D02*
X151765000Y-119382540D01*
X154051000Y-119126000D02*
X153794460Y-119382540D01*
X153794460Y-119382540D02*
X152958094Y-119382540D01*
X151765000Y-119382540D02*
X152958094Y-119382540D01*
X151765000Y-119382540D02*
X151765000Y-117856000D01*
D26*
X154051000Y-117856000D02*
X151765000Y-117856000D01*
D25*
X143500000Y-117000000D02*
X143498781Y-117000000D01*
X143498781Y-117000000D02*
X143510000Y-117011219D01*
X143510000Y-117011219D02*
X143510000Y-119382540D01*
X136500000Y-119357540D02*
X136525000Y-119382540D01*
X136500000Y-117000000D02*
X136500000Y-119357540D01*
D26*
X126111000Y-117348000D02*
X126111000Y-119126000D01*
X126111000Y-116806980D02*
X126111000Y-117348000D01*
X126111000Y-115316000D02*
X126111000Y-116806980D01*
X126111000Y-77216000D02*
X126111000Y-79756000D01*
X126111000Y-74759254D02*
X126111000Y-77216000D01*
X126111000Y-72771000D02*
X126111000Y-70866000D01*
X126111000Y-74759254D02*
X126111000Y-72771000D01*
X128270000Y-74676000D02*
X126194254Y-74676000D01*
X126194254Y-74676000D02*
X126111000Y-74759254D01*
D25*
X150796398Y-73406000D02*
X151770986Y-74380588D01*
X149994999Y-72604601D02*
X150796398Y-73406000D01*
X149994999Y-71755000D02*
X149994999Y-72604601D01*
X149994999Y-70638860D02*
X149994999Y-71755000D01*
X130040001Y-71755000D02*
X130040001Y-70682538D01*
X130040001Y-72907761D02*
X130040001Y-71755000D01*
X130112700Y-70609839D02*
X131071497Y-70609839D01*
X131071497Y-70609839D02*
X131073288Y-70611630D01*
X131075079Y-70609839D02*
X131073288Y-70611630D01*
X132080000Y-70609839D02*
X131075079Y-70609839D01*
X133350000Y-70609839D02*
X134620000Y-70609839D01*
X134620000Y-70609839D02*
X135890000Y-70609839D01*
X135890000Y-70609839D02*
X137160000Y-70609839D01*
X137160000Y-70609839D02*
X138430000Y-70609839D01*
X138430000Y-70609839D02*
X139700000Y-70609839D01*
X139700000Y-70609839D02*
X140582199Y-70609839D01*
X140970000Y-70609799D02*
X142713761Y-70609799D01*
X140582239Y-70609799D02*
X140970000Y-70609799D01*
X146050000Y-70609839D02*
X147320000Y-70609839D01*
X144272000Y-70609839D02*
X146050000Y-70609839D01*
X147320000Y-70609839D02*
X148590000Y-70609839D01*
X148590000Y-70609839D02*
X149965978Y-70609839D01*
X142713801Y-70609839D02*
X144272000Y-70609839D01*
X143848000Y-72517000D02*
X143850195Y-72514805D01*
X143850195Y-72514805D02*
X144262712Y-72514805D01*
X144262712Y-72514805D02*
X144272000Y-72524093D01*
X129032000Y-73914000D02*
X129033762Y-73914000D01*
X129033762Y-73914000D02*
X130040001Y-72907761D01*
X142713761Y-70609799D02*
X142713801Y-70609839D01*
X151770986Y-74670014D02*
X151765000Y-74676000D01*
X130040001Y-70682538D02*
X130112700Y-70609839D01*
X140582199Y-70609839D02*
X140582239Y-70609799D01*
X149965978Y-70609839D02*
X149994999Y-70638860D01*
X151770986Y-74380588D02*
X151770986Y-74670014D01*
X137668000Y-75057000D02*
X137160000Y-75057000D01*
X137160000Y-75057000D02*
X136906000Y-74803000D01*
X137668000Y-74803000D02*
X137668000Y-75057000D01*
X137160000Y-74041000D02*
X137414000Y-74041000D01*
X137414000Y-74041000D02*
X137668000Y-74295000D01*
X137160000Y-74041000D02*
X136657569Y-74041000D01*
X136657569Y-74041000D02*
X136655658Y-74039089D01*
X136652000Y-74549000D02*
X136652000Y-74042747D01*
X136652000Y-74042747D02*
X136655658Y-74039089D01*
X136906000Y-74803000D02*
X136652000Y-74549000D01*
X137160000Y-74549000D02*
X137160000Y-74041000D01*
X136906000Y-74803000D02*
X137160000Y-74549000D01*
X137668000Y-74295000D02*
X137668000Y-74803000D01*
X137414000Y-74295000D02*
X137668000Y-74295000D01*
X136906000Y-74803000D02*
X137414000Y-74295000D01*
X136906000Y-74803000D02*
X137668000Y-74803000D01*
D26*
X126111000Y-112776000D02*
X126111000Y-115316000D01*
X126111000Y-110236000D02*
X126111000Y-112776000D01*
X126111000Y-107696000D02*
X126111000Y-110236000D01*
X126111000Y-105156000D02*
X126111000Y-107696000D01*
X126111000Y-102616000D02*
X126111000Y-105156000D01*
X126111000Y-100076000D02*
X126111000Y-102616000D01*
X126111000Y-97536000D02*
X126111000Y-100076000D01*
X126111000Y-94996000D02*
X126111000Y-97536000D01*
X126111000Y-92456000D02*
X126111000Y-94996000D01*
X126111000Y-89916000D02*
X126111000Y-92456000D01*
X126111000Y-87376000D02*
X126111000Y-89916000D01*
X126111000Y-84836000D02*
X126111000Y-87376000D01*
X126111000Y-82296000D02*
X126111000Y-84836000D01*
X126111000Y-79756000D02*
X126111000Y-82296000D01*
X129032000Y-73914000D02*
X128270000Y-74676000D01*
X128270000Y-75946000D02*
X128270000Y-77216000D01*
X128270000Y-74676000D02*
X128270000Y-75946000D01*
X143500000Y-110000000D02*
X136500000Y-110000000D01*
D25*
X151765000Y-74295000D02*
X151765000Y-74676000D01*
D26*
X136906000Y-74803000D02*
X135001000Y-74803000D01*
X151765000Y-74676000D02*
X151765000Y-75946000D01*
X151765000Y-75946000D02*
X151765000Y-77216000D01*
D25*
X153135372Y-106071628D02*
X152781000Y-106426000D01*
X153135372Y-103875193D02*
X153135372Y-106071628D01*
D26*
X133477000Y-73914000D02*
X133477000Y-75565000D01*
X133477000Y-73025000D02*
X133477000Y-73914000D01*
X133477000Y-73914000D02*
X133477000Y-73787000D01*
X133477000Y-73787000D02*
X134239000Y-73025000D01*
D27*
X134188201Y-76276201D02*
X133477000Y-75565000D01*
X133477000Y-75565000D02*
X132588000Y-74676000D01*
D28*
X132588000Y-73279000D02*
X132588000Y-74676000D01*
D27*
X149225000Y-74676000D02*
X148971000Y-74930000D01*
X148971000Y-74930000D02*
X146668470Y-74930000D01*
X146668470Y-74930000D02*
X145322269Y-76276201D01*
X145322269Y-76276201D02*
X134188201Y-76276201D01*
X132588000Y-74676000D02*
X130810000Y-74676000D01*
D26*
X130810000Y-74676000D02*
X131064000Y-74676000D01*
X131064000Y-74676000D02*
X132715000Y-73025000D01*
X132715000Y-73025000D02*
X133477000Y-73025000D01*
X132588000Y-73279000D02*
X133223000Y-73279000D01*
X133223000Y-73279000D02*
X133477000Y-73025000D01*
D25*
X153135372Y-101388105D02*
X153135372Y-103875193D01*
X153162000Y-101361477D02*
X153135372Y-101388105D01*
X153162000Y-78486000D02*
X153162000Y-101361477D01*
D26*
X135001000Y-73025000D02*
X134584438Y-73025000D01*
X134239000Y-73025000D02*
X134264578Y-73025000D01*
X134264578Y-73025000D02*
X134686487Y-72603091D01*
X134686487Y-72603091D02*
X135020206Y-72603091D01*
X135001000Y-73025000D02*
X136182100Y-73025000D01*
X136182100Y-73025000D02*
X136692640Y-72514460D01*
D25*
X135001000Y-71374000D02*
X135001000Y-72583885D01*
X135001000Y-72583885D02*
X135020206Y-72603091D01*
D26*
X136692640Y-72514460D02*
X135108837Y-72514460D01*
X135108837Y-72514460D02*
X135020206Y-72603091D01*
X135020206Y-72603091D02*
X135020206Y-73005794D01*
X135020206Y-73005794D02*
X135001000Y-73025000D01*
X134239000Y-73025000D02*
X133477000Y-73025000D01*
X135001000Y-73025000D02*
X134239000Y-73025000D01*
X133477000Y-73025000D02*
X133314438Y-73025000D01*
D27*
X132467947Y-77216000D02*
X132082792Y-77216000D01*
X133255359Y-78003411D02*
X132467947Y-77216000D01*
X146122919Y-78003411D02*
X133255359Y-78003411D01*
X149225000Y-77216000D02*
X146910330Y-77216000D01*
X146910330Y-77216000D02*
X146122919Y-78003411D01*
X132082792Y-77216000D02*
X130810000Y-77216000D01*
D29*
X132334000Y-79756000D02*
X133186447Y-79756000D01*
X146569257Y-79494390D02*
X146830867Y-79756000D01*
X133186447Y-79756000D02*
X133448057Y-79494390D01*
X146830867Y-79756000D02*
X147828000Y-79756000D01*
X133448057Y-79494390D02*
X146569257Y-79494390D01*
X147623808Y-79745585D02*
X147623808Y-79756000D01*
D24*
X147828000Y-79756000D02*
X147623808Y-79756000D01*
D26*
X149225000Y-79756000D02*
X147828000Y-79756000D01*
X130810000Y-79756000D02*
X132334000Y-79756000D01*
D29*
X147802055Y-82270055D02*
X132359945Y-82270055D01*
X147828000Y-82296000D02*
X147802055Y-82270055D01*
X132359945Y-82270055D02*
X132334000Y-82296000D01*
D26*
X149225000Y-82296000D02*
X147828000Y-82296000D01*
X130810000Y-82296000D02*
X132334000Y-82296000D01*
X132334000Y-82296000D02*
X132080000Y-82296000D01*
D29*
X132334000Y-84836000D02*
X132365148Y-84836000D01*
X132365148Y-84836000D02*
X133816937Y-86287789D01*
X133816937Y-86287789D02*
X138297540Y-86287790D01*
X138297540Y-86287790D02*
X138725340Y-86715590D01*
X138725340Y-86715590D02*
X145948410Y-86715590D01*
X145948410Y-86715590D02*
X147828000Y-84836000D01*
D26*
X149225000Y-84836000D02*
X147828000Y-84836000D01*
X130810000Y-84836000D02*
X132334000Y-84836000D01*
D29*
X150495000Y-84201000D02*
X150429801Y-84266199D01*
X150429801Y-84266199D02*
X150429801Y-84257695D01*
X150429801Y-84257695D02*
X149803305Y-83631199D01*
X143237995Y-84082890D02*
X137777889Y-84082890D01*
X137777889Y-84082890D02*
X136937778Y-83242779D01*
X149803305Y-83631199D02*
X143689686Y-83631199D01*
X143689686Y-83631199D02*
X143237995Y-84082890D01*
X136937778Y-83242779D02*
X132911221Y-83242779D01*
X132911221Y-83242779D02*
X132588000Y-83566000D01*
X132588000Y-83566000D02*
X129540000Y-83566000D01*
D25*
X151765000Y-84836000D02*
X151130000Y-84836000D01*
X151130000Y-84836000D02*
X150495000Y-84201000D01*
D26*
X128270000Y-84836000D02*
X129540000Y-83566000D01*
D29*
X129540000Y-86106000D02*
X132772095Y-86106000D01*
X146304000Y-87122000D02*
X147320000Y-86106000D01*
X132772095Y-86106000D02*
X133360294Y-86694199D01*
X147320000Y-86106000D02*
X150368000Y-86106000D01*
X133360294Y-86694199D02*
X138129199Y-86694199D01*
X138129199Y-86694199D02*
X138557000Y-87122000D01*
X138557000Y-87122000D02*
X146304000Y-87122000D01*
D24*
X150622000Y-86360000D02*
X150368000Y-86106000D01*
D25*
X151765000Y-87376000D02*
X151638000Y-87376000D01*
D26*
X151638000Y-87376000D02*
X150622000Y-86360000D01*
X128270000Y-87376000D02*
X129540000Y-86106000D01*
D29*
X132881118Y-87923118D02*
X147280882Y-87923118D01*
X147280882Y-87923118D02*
X147828000Y-87376000D01*
X132334000Y-87376000D02*
X132881118Y-87923118D01*
D26*
X149225000Y-87376000D02*
X147828000Y-87376000D01*
X130810000Y-87376000D02*
X132334000Y-87376000D01*
D29*
X134108007Y-107157363D02*
X146258048Y-107157363D01*
X132680371Y-108585000D02*
X134108007Y-107157363D01*
X148066685Y-108966000D02*
X150495000Y-108966000D01*
X131826000Y-108585000D02*
X132680371Y-108585000D01*
X131445000Y-108966000D02*
X131826000Y-108585000D01*
X129540000Y-108966000D02*
X131445000Y-108966000D01*
X146258048Y-107157363D02*
X148066685Y-108966000D01*
D26*
X128270000Y-110236000D02*
X129540000Y-108966000D01*
X150495000Y-108966000D02*
X151765000Y-110236000D01*
D29*
X148082000Y-108966000D02*
X148082000Y-108966000D01*
X142191588Y-89905996D02*
X141838035Y-89905996D01*
X147817996Y-89905996D02*
X142191588Y-89905996D01*
X147828000Y-89916000D02*
X147817996Y-89905996D01*
X141484482Y-89905996D02*
X141838035Y-89905996D01*
X132344004Y-89905996D02*
X141484482Y-89905996D01*
X132334000Y-89916000D02*
X132344004Y-89905996D01*
D26*
X130810000Y-89916000D02*
X132334000Y-89916000D01*
X147828000Y-89916000D02*
X149225000Y-89916000D01*
D29*
X146050000Y-103886000D02*
X148556980Y-106426000D01*
X129540000Y-106426000D02*
X131953000Y-106426000D01*
X131953000Y-106426000D02*
X135909643Y-102469357D01*
X135909643Y-102469357D02*
X144633357Y-102469357D01*
X144633357Y-102469357D02*
X146050000Y-103886000D01*
X148556980Y-106426000D02*
X150495000Y-106426000D01*
D26*
X128270000Y-107696000D02*
X129540000Y-106426000D01*
X150495000Y-106426000D02*
X151765000Y-107696000D01*
D29*
X141780743Y-92591427D02*
X141427190Y-92591427D01*
X147692573Y-92591427D02*
X141780743Y-92591427D01*
X147828000Y-92456000D02*
X147692573Y-92591427D01*
X132469427Y-92591427D02*
X141073637Y-92591427D01*
X132334000Y-92456000D02*
X132469427Y-92591427D01*
X141073637Y-92591427D02*
X141427190Y-92591427D01*
D26*
X130810000Y-92456000D02*
X132334000Y-92456000D01*
X147828000Y-92456000D02*
X149225000Y-92456000D01*
D29*
X145610580Y-101600000D02*
X147896580Y-103886000D01*
X134647940Y-101600000D02*
X145610580Y-101600000D01*
X132361940Y-103886000D02*
X134647940Y-101600000D01*
X129540000Y-103886000D02*
X132361940Y-103886000D01*
X147896580Y-103886000D02*
X150495000Y-103886000D01*
D26*
X128270000Y-105156000D02*
X129540000Y-103886000D01*
X150495000Y-103886000D02*
X151765000Y-105156000D01*
D29*
X139672553Y-94280820D02*
X139319000Y-94280820D01*
X138965447Y-94280820D02*
X139319000Y-94280820D01*
X133049180Y-94280820D02*
X138965447Y-94280820D01*
X147828000Y-94996000D02*
X147112820Y-94280820D01*
X147112820Y-94280820D02*
X139672553Y-94280820D01*
X132334000Y-94996000D02*
X133049180Y-94280820D01*
D26*
X130810000Y-94996000D02*
X132334000Y-94996000D01*
X147828000Y-94996000D02*
X149225000Y-94996000D01*
D29*
X146089314Y-100584000D02*
X146851314Y-101346000D01*
X150495000Y-101346000D02*
X150622000Y-101473000D01*
X129540000Y-101346000D02*
X132822315Y-101346000D01*
X132822315Y-101346000D02*
X133584315Y-100584000D01*
X133584315Y-100584000D02*
X146089314Y-100584000D01*
X146851314Y-101346000D02*
X150495000Y-101346000D01*
D26*
X128270000Y-102616000D02*
X129540000Y-101346000D01*
X150622000Y-101473000D02*
X151765000Y-102616000D01*
D29*
X133350000Y-96012000D02*
X137160000Y-96012000D01*
X137160000Y-96012000D02*
X146304000Y-96012000D01*
X146304000Y-96012000D02*
X147828000Y-97536000D01*
X131826000Y-97536000D02*
X133350000Y-96012000D01*
D26*
X130810000Y-97536000D02*
X131826000Y-97536000D01*
X147828000Y-97536000D02*
X149225000Y-97536000D01*
D29*
X129540000Y-93726000D02*
X150368000Y-93726000D01*
X150368000Y-93726000D02*
X150622000Y-93980000D01*
D26*
X128270000Y-94996000D02*
X129540000Y-93726000D01*
X150622000Y-93980000D02*
X151638000Y-94996000D01*
X151765000Y-94996000D02*
X151638000Y-94996000D01*
D29*
X134919054Y-102062946D02*
X145369946Y-102062946D01*
X145369946Y-102062946D02*
X148463000Y-105156000D01*
X131826000Y-105156000D02*
X134919054Y-102062946D01*
D26*
X130810000Y-105156000D02*
X131826000Y-105156000D01*
X148463000Y-105156000D02*
X149225000Y-105156000D01*
D25*
X128920875Y-115966875D02*
X131056380Y-118102380D01*
X131056380Y-118102380D02*
X131086860Y-118102380D01*
X131086860Y-118102380D02*
X131094480Y-118110000D01*
X131094480Y-118110000D02*
X131305935Y-118110000D01*
D26*
X132207000Y-118110000D02*
X131305935Y-118110000D01*
X128270000Y-115316000D02*
X128920875Y-115966875D01*
X130810000Y-112776000D02*
X131064000Y-113030000D01*
X131064000Y-113030000D02*
X132715000Y-113030000D01*
D29*
X131826000Y-111379000D02*
X131699000Y-111506000D01*
D26*
X128270000Y-112776000D02*
X129540000Y-111506000D01*
D25*
X131826000Y-111379000D02*
X132715000Y-110490000D01*
D29*
X131699000Y-111506000D02*
X129540000Y-111506000D01*
D26*
X130810000Y-115316000D02*
X131064000Y-115570000D01*
X131064000Y-115570000D02*
X132715000Y-115570000D01*
D29*
X145739972Y-107563774D02*
X145872198Y-107696000D01*
X130810000Y-110236000D02*
X131953000Y-109093000D01*
X134276347Y-107563774D02*
X145739972Y-107563774D01*
X131953000Y-109093000D02*
X132747121Y-109093000D01*
X132747121Y-109093000D02*
X134276347Y-107563774D01*
X148336000Y-110159802D02*
X145872200Y-107696000D01*
X148336000Y-110236000D02*
X148336000Y-110159802D01*
X131572000Y-109474000D02*
X131572000Y-109474000D01*
D26*
X148336000Y-110236000D02*
X149225000Y-110236000D01*
D25*
X130810000Y-110236000D02*
X131445000Y-109601000D01*
D29*
X132334000Y-107696000D02*
X132337272Y-107696000D01*
X133285363Y-106747909D02*
X146423344Y-106747909D01*
X132337272Y-107696000D02*
X133285363Y-106747909D01*
X147371435Y-107696000D02*
X148082000Y-107696000D01*
X146423344Y-106747909D02*
X147371435Y-107696000D01*
D26*
X130810000Y-107696000D02*
X132334000Y-107696000D01*
X148082000Y-107696000D02*
X149225000Y-107696000D01*
D29*
X148285202Y-98374202D02*
X148717000Y-98806000D01*
X147370798Y-98374202D02*
X148285202Y-98374202D01*
X150495000Y-98806000D02*
X148717000Y-98806000D01*
X150622000Y-98933000D02*
X150495000Y-98806000D01*
D26*
X150622000Y-98933000D02*
X151765000Y-100076000D01*
D29*
X147370800Y-98374200D02*
X147363180Y-98374200D01*
X133306820Y-99568000D02*
X146169380Y-99568000D01*
X146169380Y-99568000D02*
X147363180Y-98374200D01*
X132544820Y-98806000D02*
X129540000Y-98806000D01*
X132544820Y-98806000D02*
X133306820Y-99568000D01*
D26*
X128270000Y-100076000D02*
X129540000Y-98806000D01*
D29*
X129540000Y-96266000D02*
X132280659Y-96266000D01*
X146037936Y-94864556D02*
X147439380Y-96266000D01*
X132280659Y-96266000D02*
X133682103Y-94864556D01*
X133682103Y-94864556D02*
X146037936Y-94864556D01*
X147439380Y-96266000D02*
X150368000Y-96266000D01*
X150368000Y-96266000D02*
X150622000Y-96520000D01*
D26*
X128270000Y-97536000D02*
X129540000Y-96266000D01*
X150622000Y-96520000D02*
X151638000Y-97536000D01*
X151765000Y-97536000D02*
X151638000Y-97536000D01*
D29*
X147546564Y-102616000D02*
X147828000Y-102616000D01*
X133858000Y-101092000D02*
X146022564Y-101092000D01*
X132334000Y-102616000D02*
X133858000Y-101092000D01*
X146022564Y-101092000D02*
X147546564Y-102616000D01*
D26*
X130810000Y-102616000D02*
X132334000Y-102616000D01*
X147828000Y-102616000D02*
X149225000Y-102616000D01*
D29*
X147891500Y-100520500D02*
X146749508Y-100520500D01*
X146749508Y-100520500D02*
X146305008Y-100076000D01*
X146305008Y-100076000D02*
X132334000Y-100076000D01*
D24*
X147955000Y-100584000D02*
X147891500Y-100520500D01*
D26*
X132334000Y-100076000D02*
X130810000Y-100076000D01*
D25*
X149225000Y-100076000D02*
X148717000Y-100584000D01*
X148717000Y-100584000D02*
X147955000Y-100584000D01*
X147955000Y-100584000D02*
X147828000Y-100584000D01*
D29*
X132831230Y-79087980D02*
X146547048Y-79087980D01*
X146547048Y-79087980D02*
X147083829Y-78551199D01*
X147083829Y-78551199D02*
X150560199Y-78551199D01*
X132229250Y-78486000D02*
X132831230Y-79087980D01*
X129540000Y-78486000D02*
X132229250Y-78486000D01*
X150560199Y-78551199D02*
X150950159Y-78941159D01*
X150950159Y-78941159D02*
X151036020Y-79027020D01*
D26*
X128778000Y-79248000D02*
X129540000Y-78486000D01*
X151765000Y-79756000D02*
X151036020Y-79027020D01*
X128270000Y-79756000D02*
X128778000Y-79248000D01*
D29*
X150622000Y-88900000D02*
X150302801Y-88580801D01*
X150302801Y-88580801D02*
X148650771Y-88580801D01*
X148650771Y-88580801D02*
X148648733Y-88582839D01*
X129605199Y-88580801D02*
X129540000Y-88646000D01*
X131388305Y-88580801D02*
X129605199Y-88580801D01*
X131639578Y-88329528D02*
X131388305Y-88580801D01*
X148395422Y-88329528D02*
X131639578Y-88329528D01*
X148648733Y-88582839D02*
X148395422Y-88329528D01*
D26*
X128270000Y-89916000D02*
X129540000Y-88646000D01*
X150622000Y-88900000D02*
X151638000Y-89916000D01*
X151765000Y-89916000D02*
X151638000Y-89916000D01*
D29*
X129568579Y-91214579D02*
X150396579Y-91214579D01*
X150396579Y-91214579D02*
X150622000Y-91440000D01*
X129540000Y-91186000D02*
X129568579Y-91214579D01*
D26*
X128270000Y-92456000D02*
X129540000Y-91186000D01*
X150622000Y-91440000D02*
X151638000Y-92456000D01*
X151765000Y-92456000D02*
X151638000Y-92456000D01*
D25*
X136017000Y-71374000D02*
X138707161Y-71374000D01*
X138707161Y-71374000D02*
X138793416Y-71460255D01*
X138793416Y-71460255D02*
X138795655Y-71460255D01*
X138795655Y-71460255D02*
X138902440Y-71567040D01*
X140208000Y-72009000D02*
X139344400Y-72009000D01*
X139344400Y-72009000D02*
X138902440Y-71567040D01*
X141648000Y-71567000D02*
X141206000Y-72009000D01*
X141206000Y-72009000D02*
X140208000Y-72009000D01*
D24*
X151214302Y-83566000D02*
X152400000Y-83566000D01*
X150495000Y-82804000D02*
X150495000Y-82846698D01*
X150495000Y-82846698D02*
X151214302Y-83566000D01*
X150495000Y-81915000D02*
X150495000Y-82804000D01*
X150495000Y-81534000D02*
X150495000Y-81915000D01*
X149987000Y-81026000D02*
X150495000Y-81534000D01*
X149225000Y-81026000D02*
X149987000Y-81026000D01*
X148209000Y-81026000D02*
X149225000Y-81026000D01*
X147955000Y-80772000D02*
X148209000Y-81026000D01*
D29*
X147955000Y-80772000D02*
X147960229Y-80772000D01*
X138272753Y-82972860D02*
X138124750Y-82824857D01*
X140993441Y-82972860D02*
X138272753Y-82972860D01*
D25*
X138684000Y-74803000D02*
X138806415Y-74925415D01*
X138806415Y-74925415D02*
X139836470Y-74925415D01*
X139836470Y-74925415D02*
X139846838Y-74935783D01*
D29*
X141732000Y-98933000D02*
X141378447Y-98933000D01*
X141378447Y-98933000D02*
X138557000Y-98933000D01*
D25*
X138684000Y-74803000D02*
X138684000Y-73687940D01*
X138684000Y-73687940D02*
X138902440Y-73469500D01*
X140589000Y-74930000D02*
X138811000Y-74930000D01*
X138811000Y-74930000D02*
X138684000Y-74803000D01*
X140208000Y-73025000D02*
X139346940Y-73025000D01*
X139346940Y-73025000D02*
X138902440Y-73469500D01*
D26*
X134239000Y-109093000D02*
X134239000Y-110490000D01*
X134239000Y-113030000D02*
X134239000Y-110490000D01*
X134239000Y-115570000D02*
X134239000Y-113030000D01*
X134239000Y-118110000D02*
X134239000Y-115570000D01*
D29*
X139319000Y-103251000D02*
X140589000Y-104521000D01*
X140589000Y-104521000D02*
X144653000Y-104521000D01*
D25*
X141648000Y-73467000D02*
X141648000Y-74887000D01*
X141648000Y-74887000D02*
X141605000Y-74930000D01*
X143256000Y-74930000D02*
X141605000Y-74930000D01*
D29*
X135947335Y-85676611D02*
X137718339Y-85676611D01*
X137718321Y-87249000D02*
X136608699Y-87249000D01*
X142367000Y-83528070D02*
X142013447Y-83528070D01*
X142013447Y-83528070D02*
X138124750Y-83528070D01*
X140970000Y-81661000D02*
X138557000Y-81661000D01*
X138909305Y-80378343D02*
X140567189Y-80378343D01*
X140567189Y-80378343D02*
X140573566Y-80371966D01*
G36*
X126899465Y-70837507D02*
X126652681Y-71431828D01*
X126652119Y-72075349D01*
X126897866Y-72670100D01*
X127352507Y-73125535D01*
X127735825Y-73284703D01*
X127660662Y-73430266D01*
X128270000Y-74039604D01*
X128879338Y-73430266D01*
X128804101Y-73284560D01*
X129185100Y-73127134D01*
X129640535Y-72672493D01*
X129887319Y-72078172D01*
X129887881Y-71434651D01*
X129642134Y-70839900D01*
X129285457Y-70482600D01*
X131728295Y-70482600D01*
X131563206Y-70647689D01*
X131470400Y-70871743D01*
X131470400Y-71094600D01*
X131622800Y-71247000D01*
X132334000Y-71247000D01*
X132334000Y-70993000D01*
X132842000Y-70993000D01*
X132842000Y-71247000D01*
X133553200Y-71247000D01*
X133705600Y-71094600D01*
X133705600Y-70871743D01*
X133612794Y-70647689D01*
X133447705Y-70482600D01*
X150749992Y-70482600D01*
X150394465Y-70837507D01*
X150147681Y-71431828D01*
X150147119Y-72075349D01*
X150392866Y-72670100D01*
X150847507Y-73125535D01*
X151230825Y-73284703D01*
X151155662Y-73430266D01*
X151765000Y-74039604D01*
X152374338Y-73430266D01*
X152299101Y-73284560D01*
X152680100Y-73127134D01*
X153135535Y-72672493D01*
X153382319Y-72078172D01*
X153382881Y-71434651D01*
X153137134Y-70839900D01*
X152780457Y-70482600D01*
X154517400Y-70482600D01*
X154517400Y-119517400D01*
X129099750Y-119517400D01*
X129185100Y-119482134D01*
X129640535Y-119027493D01*
X129887319Y-118433172D01*
X129887875Y-117795979D01*
X130502037Y-118410141D01*
X130508073Y-118440485D01*
X130695278Y-118720657D01*
X130975450Y-118907862D01*
X131305935Y-118973600D01*
X131780183Y-118973600D01*
X131793030Y-119041877D01*
X131870910Y-119162907D01*
X131989742Y-119244101D01*
X132130800Y-119272666D01*
X133299200Y-119272666D01*
X133430977Y-119247870D01*
X133476441Y-119218615D01*
X133513742Y-119244101D01*
X133654800Y-119272666D01*
X134823200Y-119272666D01*
X134954977Y-119247870D01*
X135076007Y-119169990D01*
X135157201Y-119051158D01*
X135185766Y-118910100D01*
X135185766Y-118364344D01*
X135537883Y-118716461D01*
X135703346Y-118550998D01*
X135862081Y-118785496D01*
X136593919Y-118893704D01*
X137137919Y-118785496D01*
X137296655Y-118550997D01*
X142703345Y-118550997D01*
X142862081Y-118785496D01*
X143593919Y-118893704D01*
X144137919Y-118785496D01*
X144296655Y-118550997D01*
X143500000Y-117754342D01*
X142703345Y-118550997D01*
X137296655Y-118550997D01*
X136500000Y-117754342D01*
X136485858Y-117768484D01*
X135731516Y-117014142D01*
X135745658Y-117000000D01*
X137254342Y-117000000D01*
X138050997Y-117796655D01*
X138285496Y-117637919D01*
X138365930Y-117093919D01*
X141606296Y-117093919D01*
X141714504Y-117637919D01*
X141949003Y-117796655D01*
X142745658Y-117000000D01*
X144254342Y-117000000D01*
X145050997Y-117796655D01*
X145285496Y-117637919D01*
X145384696Y-116967000D01*
X147973434Y-116967000D01*
X147973434Y-118745000D01*
X147998230Y-118876777D01*
X148076110Y-118997807D01*
X148194942Y-119079001D01*
X148336000Y-119107566D01*
X150114000Y-119107566D01*
X150203139Y-119090793D01*
X151158825Y-119090793D01*
X151265339Y-119299952D01*
X151855950Y-119381250D01*
X152264661Y-119299952D01*
X152371175Y-119090793D01*
X151765000Y-118484618D01*
X151158825Y-119090793D01*
X150203139Y-119090793D01*
X150245777Y-119082770D01*
X150366807Y-119004890D01*
X150448001Y-118886058D01*
X150476566Y-118745000D01*
X150476566Y-118434858D01*
X150530207Y-118462175D01*
X151136382Y-117856000D01*
X152393618Y-117856000D01*
X152999793Y-118462175D01*
X153208952Y-118355661D01*
X153290250Y-117765050D01*
X153208952Y-117356339D01*
X152999793Y-117249825D01*
X152393618Y-117856000D01*
X151136382Y-117856000D01*
X150530207Y-117249825D01*
X150476566Y-117277142D01*
X150476566Y-116967000D01*
X150451770Y-116835223D01*
X150373890Y-116714193D01*
X150255058Y-116632999D01*
X150114000Y-116604434D01*
X148336000Y-116604434D01*
X148204223Y-116629230D01*
X148083193Y-116707110D01*
X148001999Y-116825942D01*
X147973434Y-116967000D01*
X145384696Y-116967000D01*
X145393704Y-116906081D01*
X145285496Y-116362081D01*
X145050997Y-116203345D01*
X144254342Y-117000000D01*
X142745658Y-117000000D01*
X141949003Y-116203345D01*
X141714504Y-116362081D01*
X141606296Y-117093919D01*
X138365930Y-117093919D01*
X138393704Y-116906081D01*
X138285496Y-116362081D01*
X138050997Y-116203345D01*
X137254342Y-117000000D01*
X135745658Y-117000000D01*
X135731516Y-116985858D01*
X136485858Y-116231516D01*
X136500000Y-116245658D01*
X137296655Y-115449003D01*
X142703345Y-115449003D01*
X143500000Y-116245658D01*
X144180999Y-115564659D01*
X147969182Y-115564659D01*
X148159933Y-116026311D01*
X148512831Y-116379825D01*
X148974150Y-116571382D01*
X149473659Y-116571818D01*
X149935311Y-116381067D01*
X150288825Y-116028169D01*
X150480382Y-115566850D01*
X150480383Y-115564659D01*
X150509182Y-115564659D01*
X150699933Y-116026311D01*
X151052831Y-116379825D01*
X151241791Y-116458288D01*
X151158825Y-116621207D01*
X151765000Y-117227382D01*
X152371175Y-116621207D01*
X152288246Y-116458361D01*
X152475311Y-116381067D01*
X152828825Y-116028169D01*
X153020382Y-115566850D01*
X153020818Y-115067341D01*
X152830067Y-114605689D01*
X152477169Y-114252175D01*
X152015850Y-114060618D01*
X151516341Y-114060182D01*
X151054689Y-114250933D01*
X150701175Y-114603831D01*
X150509618Y-115065150D01*
X150509182Y-115564659D01*
X150480383Y-115564659D01*
X150480818Y-115067341D01*
X150290067Y-114605689D01*
X149937169Y-114252175D01*
X149475850Y-114060618D01*
X148976341Y-114060182D01*
X148514689Y-114250933D01*
X148161175Y-114603831D01*
X147969618Y-115065150D01*
X147969182Y-115564659D01*
X144180999Y-115564659D01*
X144296655Y-115449003D01*
X144137919Y-115214504D01*
X143406081Y-115106296D01*
X142862081Y-115214504D01*
X142703345Y-115449003D01*
X137296655Y-115449003D01*
X137137919Y-115214504D01*
X136406081Y-115106296D01*
X135862081Y-115214504D01*
X135703346Y-115449002D01*
X135537883Y-115283539D01*
X135185766Y-115635656D01*
X135185766Y-114769900D01*
X135160970Y-114638123D01*
X135102600Y-114547413D01*
X135102600Y-114051070D01*
X135157201Y-113971158D01*
X135185766Y-113830100D01*
X135185766Y-113768463D01*
X138644165Y-113768463D01*
X138850108Y-114266883D01*
X139231112Y-114648552D01*
X139729171Y-114855364D01*
X140268463Y-114855835D01*
X140766883Y-114649892D01*
X141148552Y-114268888D01*
X141355364Y-113770829D01*
X141355835Y-113231537D01*
X141270355Y-113024659D01*
X147969182Y-113024659D01*
X148159933Y-113486311D01*
X148512831Y-113839825D01*
X148974150Y-114031382D01*
X149473659Y-114031818D01*
X149935311Y-113841067D01*
X150288825Y-113488169D01*
X150480382Y-113026850D01*
X150480383Y-113024659D01*
X150509182Y-113024659D01*
X150699933Y-113486311D01*
X151052831Y-113839825D01*
X151514150Y-114031382D01*
X152013659Y-114031818D01*
X152475311Y-113841067D01*
X152828825Y-113488169D01*
X153020382Y-113026850D01*
X153020818Y-112527341D01*
X152830067Y-112065689D01*
X152477169Y-111712175D01*
X152015850Y-111520618D01*
X151516341Y-111520182D01*
X151054689Y-111710933D01*
X150701175Y-112063831D01*
X150509618Y-112525150D01*
X150509182Y-113024659D01*
X150480383Y-113024659D01*
X150480818Y-112527341D01*
X150290067Y-112065689D01*
X149937169Y-111712175D01*
X149475850Y-111520618D01*
X148976341Y-111520182D01*
X148514689Y-111710933D01*
X148161175Y-112063831D01*
X147969618Y-112525150D01*
X147969182Y-113024659D01*
X141270355Y-113024659D01*
X141149892Y-112733117D01*
X140768888Y-112351448D01*
X140270829Y-112144636D01*
X139731537Y-112144165D01*
X139233117Y-112350108D01*
X138851448Y-112731112D01*
X138644636Y-113229171D01*
X138644165Y-113768463D01*
X135185766Y-113768463D01*
X135185766Y-112229900D01*
X135160970Y-112098123D01*
X135102600Y-112007413D01*
X135102600Y-111511070D01*
X135157201Y-111431158D01*
X135173263Y-111351841D01*
X135537883Y-111716461D01*
X135703346Y-111550998D01*
X135862081Y-111785496D01*
X136593919Y-111893704D01*
X137137919Y-111785496D01*
X137296655Y-111550997D01*
X142703345Y-111550997D01*
X142862081Y-111785496D01*
X143593919Y-111893704D01*
X144137919Y-111785496D01*
X144296655Y-111550997D01*
X143500000Y-110754342D01*
X142703345Y-111550997D01*
X137296655Y-111550997D01*
X136500000Y-110754342D01*
X136485858Y-110768484D01*
X135731516Y-110014142D01*
X135745658Y-110000000D01*
X137254342Y-110000000D01*
X138050997Y-110796655D01*
X138285496Y-110637919D01*
X138365930Y-110093919D01*
X141606296Y-110093919D01*
X141714504Y-110637919D01*
X141949003Y-110796655D01*
X142745658Y-110000000D01*
X144254342Y-110000000D01*
X145050997Y-110796655D01*
X145285496Y-110637919D01*
X145393704Y-109906081D01*
X145285496Y-109362081D01*
X145050997Y-109203345D01*
X144254342Y-110000000D01*
X142745658Y-110000000D01*
X141949003Y-109203345D01*
X141714504Y-109362081D01*
X141606296Y-110093919D01*
X138365930Y-110093919D01*
X138393704Y-109906081D01*
X138285496Y-109362081D01*
X138050997Y-109203345D01*
X137254342Y-110000000D01*
X135745658Y-110000000D01*
X135102600Y-109356942D01*
X135102600Y-109093000D01*
X135036862Y-108762515D01*
X134849657Y-108482343D01*
X134799761Y-108449003D01*
X135703345Y-108449003D01*
X136500000Y-109245658D01*
X137296655Y-108449003D01*
X142703345Y-108449003D01*
X143500000Y-109245658D01*
X144296655Y-108449003D01*
X144137919Y-108214504D01*
X143406081Y-108106296D01*
X142862081Y-108214504D01*
X142703345Y-108449003D01*
X137296655Y-108449003D01*
X137137919Y-108214504D01*
X136406081Y-108106296D01*
X135862081Y-108214504D01*
X135703345Y-108449003D01*
X134799761Y-108449003D01*
X134569485Y-108295138D01*
X134254263Y-108232436D01*
X134465725Y-108020974D01*
X145550596Y-108020974D01*
X147521049Y-109991428D01*
X147472400Y-110236000D01*
X147538138Y-110566485D01*
X147725343Y-110846657D01*
X148005515Y-111033862D01*
X148307245Y-111093880D01*
X148512831Y-111299825D01*
X148974150Y-111491382D01*
X149473659Y-111491818D01*
X149935311Y-111301067D01*
X150288825Y-110948169D01*
X150480382Y-110486850D01*
X150480656Y-110172970D01*
X150509429Y-110201743D01*
X150509182Y-110484659D01*
X150699933Y-110946311D01*
X151052831Y-111299825D01*
X151514150Y-111491382D01*
X152013659Y-111491818D01*
X152475311Y-111301067D01*
X152828825Y-110948169D01*
X153020382Y-110486850D01*
X153020818Y-109987341D01*
X152830067Y-109525689D01*
X152477169Y-109172175D01*
X152015850Y-108980618D01*
X151730684Y-108980369D01*
X151701860Y-108951546D01*
X152013659Y-108951818D01*
X152475311Y-108761067D01*
X152828825Y-108408169D01*
X153020382Y-107946850D01*
X153020818Y-107447341D01*
X152849061Y-107031659D01*
X152900933Y-107031704D01*
X152994084Y-106993215D01*
X153014284Y-106989197D01*
X153031259Y-106977855D01*
X153123596Y-106939702D01*
X153194930Y-106868492D01*
X153212052Y-106857052D01*
X153566425Y-106502680D01*
X153697797Y-106306067D01*
X153698569Y-106304912D01*
X153744972Y-106071628D01*
X153744972Y-101495345D01*
X153771600Y-101361477D01*
X153771600Y-78486000D01*
X153767617Y-78465976D01*
X153767704Y-78366067D01*
X153729215Y-78272916D01*
X153725197Y-78252716D01*
X153713855Y-78235741D01*
X153675702Y-78143404D01*
X153604492Y-78072070D01*
X153593052Y-78054948D01*
X153576080Y-78043608D01*
X153505493Y-77972897D01*
X153412408Y-77934245D01*
X153395284Y-77922803D01*
X153375261Y-77918820D01*
X153282990Y-77880506D01*
X153183763Y-77880419D01*
X153088517Y-77785173D01*
X153220315Y-77717118D01*
X153301305Y-77122048D01*
X153220315Y-76714882D01*
X153010734Y-76606662D01*
X152401396Y-77216000D01*
X152474511Y-77289115D01*
X151838115Y-77925511D01*
X151765000Y-77852396D01*
X151691885Y-77925511D01*
X151055489Y-77289115D01*
X151128604Y-77216000D01*
X150519266Y-76606662D01*
X150364754Y-76686446D01*
X150290067Y-76505689D01*
X149937169Y-76152175D01*
X149475850Y-75960618D01*
X149401642Y-75960553D01*
X149459739Y-75921734D01*
X151155662Y-75921734D01*
X151168192Y-75946000D01*
X151155662Y-75970266D01*
X151207478Y-76022082D01*
X151263882Y-76131315D01*
X151325034Y-76139638D01*
X151765000Y-76579604D01*
X152200171Y-76144433D01*
X152266118Y-76131315D01*
X152322522Y-76022082D01*
X152374338Y-75970266D01*
X152361808Y-75946000D01*
X152374338Y-75921734D01*
X152322522Y-75869918D01*
X152266118Y-75760685D01*
X152204966Y-75752362D01*
X151765000Y-75312396D01*
X151329829Y-75747567D01*
X151263882Y-75760685D01*
X151207478Y-75869918D01*
X151155662Y-75921734D01*
X149459739Y-75921734D01*
X149471964Y-75913566D01*
X150100000Y-75913566D01*
X150231777Y-75888770D01*
X150352807Y-75810890D01*
X150434001Y-75692058D01*
X150462566Y-75551000D01*
X150462566Y-75256060D01*
X150519266Y-75285338D01*
X151128604Y-74676000D01*
X152401396Y-74676000D01*
X153010734Y-75285338D01*
X153220315Y-75177118D01*
X153301305Y-74582048D01*
X153220315Y-74174882D01*
X153010734Y-74066662D01*
X152401396Y-74676000D01*
X151128604Y-74676000D01*
X150519266Y-74066662D01*
X150462566Y-74095940D01*
X150462566Y-73801000D01*
X150437770Y-73669223D01*
X150359890Y-73548193D01*
X150241058Y-73466999D01*
X150100000Y-73438434D01*
X148350000Y-73438434D01*
X148218223Y-73463230D01*
X148097193Y-73541110D01*
X148015999Y-73659942D01*
X147987434Y-73801000D01*
X147987434Y-73812400D01*
X146668475Y-73812400D01*
X146668470Y-73812399D01*
X146240783Y-73897472D01*
X145878207Y-74139737D01*
X145878205Y-74139740D01*
X145131600Y-74886344D01*
X145131600Y-74396598D01*
X145074793Y-74396598D01*
X145038794Y-74309689D01*
X144867311Y-74138206D01*
X144643257Y-74045400D01*
X144549400Y-74045400D01*
X144397000Y-74197800D01*
X144397000Y-74792500D01*
X144522000Y-74792500D01*
X144522000Y-75067500D01*
X144397000Y-75067500D01*
X144397000Y-75158601D01*
X144147000Y-75158601D01*
X144147000Y-75067500D01*
X144022000Y-75067500D01*
X144022000Y-74792500D01*
X144147000Y-74792500D01*
X144147000Y-74197800D01*
X143994600Y-74045400D01*
X143900743Y-74045400D01*
X143676689Y-74138206D01*
X143519689Y-74295206D01*
X143506000Y-74292434D01*
X143006000Y-74292434D01*
X142874223Y-74317230D01*
X142869297Y-74320400D01*
X142396712Y-74320400D01*
X142479777Y-74304770D01*
X142600807Y-74226890D01*
X142682001Y-74108058D01*
X142710566Y-73967000D01*
X142710566Y-73441671D01*
X142802689Y-73533794D01*
X143026743Y-73626600D01*
X143345600Y-73626600D01*
X143498000Y-73474200D01*
X143498000Y-72767000D01*
X144198000Y-72767000D01*
X144198000Y-73474200D01*
X144350400Y-73626600D01*
X144669257Y-73626600D01*
X144893311Y-73533794D01*
X145064794Y-73362311D01*
X145157600Y-73138257D01*
X145157600Y-72919400D01*
X145005200Y-72767000D01*
X144198000Y-72767000D01*
X143498000Y-72767000D01*
X142690800Y-72767000D01*
X142661028Y-72796772D01*
X142607890Y-72714193D01*
X142489058Y-72632999D01*
X142348000Y-72604434D01*
X141277217Y-72604434D01*
X141439284Y-72572197D01*
X141637052Y-72440052D01*
X141647538Y-72429566D01*
X142348000Y-72429566D01*
X142479777Y-72404770D01*
X142600807Y-72326890D01*
X142661647Y-72237847D01*
X142690800Y-72267000D01*
X143498000Y-72267000D01*
X143498000Y-71559800D01*
X144198000Y-71559800D01*
X144198000Y-72267000D01*
X145005200Y-72267000D01*
X145157600Y-72114600D01*
X145157600Y-71895743D01*
X145064794Y-71671689D01*
X144893311Y-71500206D01*
X144669257Y-71407400D01*
X144350400Y-71407400D01*
X144198000Y-71559800D01*
X143498000Y-71559800D01*
X143345600Y-71407400D01*
X143026743Y-71407400D01*
X142802689Y-71500206D01*
X142710566Y-71592329D01*
X142710566Y-71067000D01*
X142685770Y-70935223D01*
X142607890Y-70814193D01*
X142489058Y-70732999D01*
X142348000Y-70704434D01*
X140948000Y-70704434D01*
X140816223Y-70729230D01*
X140695193Y-70807110D01*
X140613999Y-70925942D01*
X140585434Y-71067000D01*
X140585434Y-71399400D01*
X140497647Y-71399400D01*
X140483000Y-71396434D01*
X139965006Y-71396434D01*
X139965006Y-71067040D01*
X139940210Y-70935263D01*
X139862330Y-70814233D01*
X139743498Y-70733039D01*
X139602440Y-70704474D01*
X138202440Y-70704474D01*
X138070663Y-70729270D01*
X138016069Y-70764400D01*
X136405100Y-70764400D01*
X136267000Y-70736434D01*
X135767000Y-70736434D01*
X135635223Y-70761230D01*
X135514193Y-70839110D01*
X135509842Y-70845477D01*
X135392058Y-70764999D01*
X135251000Y-70736434D01*
X134751000Y-70736434D01*
X134619223Y-70761230D01*
X134498193Y-70839110D01*
X134416999Y-70957942D01*
X134388434Y-71099000D01*
X134388434Y-71649000D01*
X134391400Y-71664763D01*
X134391400Y-71798188D01*
X134356001Y-71805229D01*
X134075829Y-71992434D01*
X133906863Y-72161400D01*
X133692700Y-72161400D01*
X133705600Y-72130257D01*
X133705600Y-71907400D01*
X133553200Y-71755000D01*
X132842000Y-71755000D01*
X132842000Y-72009000D01*
X132334000Y-72009000D01*
X132334000Y-71755000D01*
X131622800Y-71755000D01*
X131470400Y-71907400D01*
X131470400Y-72130257D01*
X131563206Y-72354311D01*
X131734689Y-72525794D01*
X131798968Y-72552419D01*
X131745999Y-72629942D01*
X131717434Y-72771000D01*
X131717434Y-72801251D01*
X131080252Y-73438434D01*
X129935000Y-73438434D01*
X129803223Y-73463230D01*
X129682193Y-73541110D01*
X129600999Y-73659942D01*
X129572434Y-73801000D01*
X129572434Y-74095940D01*
X129515734Y-74066662D01*
X128906396Y-74676000D01*
X129515734Y-75285338D01*
X129572434Y-75256060D01*
X129572434Y-75551000D01*
X129597230Y-75682777D01*
X129675110Y-75803807D01*
X129793942Y-75885001D01*
X129935000Y-75913566D01*
X131685000Y-75913566D01*
X131816777Y-75888770D01*
X131937807Y-75810890D01*
X131949621Y-75793600D01*
X132125074Y-75793600D01*
X132429875Y-76098400D01*
X131392665Y-76098400D01*
X131060850Y-75960618D01*
X130561341Y-75960182D01*
X130099689Y-76150933D01*
X129746175Y-76503831D01*
X129670329Y-76686489D01*
X129515734Y-76606662D01*
X128906396Y-77216000D01*
X128979511Y-77289115D01*
X128343115Y-77925511D01*
X128270000Y-77852396D01*
X127660662Y-78461734D01*
X127740446Y-78616246D01*
X127559689Y-78690933D01*
X127206175Y-79043831D01*
X127014618Y-79505150D01*
X127014182Y-80004659D01*
X127204933Y-80466311D01*
X127557831Y-80819825D01*
X127740489Y-80895671D01*
X127660662Y-81050266D01*
X128270000Y-81659604D01*
X128879338Y-81050266D01*
X128799554Y-80895754D01*
X128980311Y-80821067D01*
X129333825Y-80468169D01*
X129525382Y-80006850D01*
X129525631Y-79721683D01*
X129554454Y-79692860D01*
X129554182Y-80004659D01*
X129744933Y-80466311D01*
X130097831Y-80819825D01*
X130559150Y-81011382D01*
X131058659Y-81011818D01*
X131520311Y-80821067D01*
X131722130Y-80619600D01*
X132334000Y-80619600D01*
X132664485Y-80553862D01*
X132944657Y-80366657D01*
X133047194Y-80213200D01*
X133186447Y-80213200D01*
X133361410Y-80178398D01*
X133509736Y-80079289D01*
X133637435Y-79951590D01*
X138479608Y-79951590D01*
X138396202Y-80034850D01*
X138303811Y-80257353D01*
X138303601Y-80498276D01*
X138395603Y-80720939D01*
X138565812Y-80891446D01*
X138788315Y-80983837D01*
X139029238Y-80984047D01*
X139251901Y-80892045D01*
X139308502Y-80835543D01*
X140180634Y-80835543D01*
X140230073Y-80885069D01*
X140452576Y-80977460D01*
X140693499Y-80977670D01*
X140916162Y-80885668D01*
X141086669Y-80715459D01*
X141179060Y-80492956D01*
X141179270Y-80252033D01*
X141087268Y-80029370D01*
X141009624Y-79951590D01*
X146379878Y-79951590D01*
X146507577Y-80079289D01*
X146637792Y-80166296D01*
X146655904Y-80178398D01*
X146830867Y-80213200D01*
X147114806Y-80213200D01*
X147217343Y-80366657D01*
X147413230Y-80497545D01*
X147349506Y-80651010D01*
X147349296Y-80891933D01*
X147441298Y-81114596D01*
X147611507Y-81285103D01*
X147834010Y-81377494D01*
X147883145Y-81377537D01*
X147965255Y-81432400D01*
X147828000Y-81432400D01*
X147497515Y-81498138D01*
X147217343Y-81685343D01*
X147132142Y-81812855D01*
X141562678Y-81812855D01*
X141575494Y-81781990D01*
X141575704Y-81541067D01*
X141483702Y-81318404D01*
X141313493Y-81147897D01*
X141090990Y-81055506D01*
X140850067Y-81055296D01*
X140627404Y-81147298D01*
X140570803Y-81203800D01*
X138956298Y-81203800D01*
X138900493Y-81147897D01*
X138677990Y-81055506D01*
X138437067Y-81055296D01*
X138214404Y-81147298D01*
X138043897Y-81317507D01*
X137951506Y-81540010D01*
X137951296Y-81780933D01*
X137964486Y-81812855D01*
X133029858Y-81812855D01*
X132944657Y-81685343D01*
X132664485Y-81498138D01*
X132334000Y-81432400D01*
X131722045Y-81432400D01*
X131522169Y-81232175D01*
X131060850Y-81040618D01*
X130561341Y-81040182D01*
X130099689Y-81230933D01*
X129746175Y-81583831D01*
X129670329Y-81766489D01*
X129515734Y-81686662D01*
X128906396Y-82296000D01*
X128979511Y-82369115D01*
X128343115Y-83005511D01*
X128270000Y-82932396D01*
X127660662Y-83541734D01*
X127740446Y-83696246D01*
X127559689Y-83770933D01*
X127206175Y-84123831D01*
X127014618Y-84585150D01*
X127014182Y-85084659D01*
X127204933Y-85546311D01*
X127557831Y-85899825D01*
X128019150Y-86091382D01*
X128333029Y-86091656D01*
X128304257Y-86120429D01*
X128021341Y-86120182D01*
X127559689Y-86310933D01*
X127206175Y-86663831D01*
X127014618Y-87125150D01*
X127014182Y-87624659D01*
X127204933Y-88086311D01*
X127557831Y-88439825D01*
X128019150Y-88631382D01*
X128333029Y-88631656D01*
X128304257Y-88660429D01*
X128021341Y-88660182D01*
X127559689Y-88850933D01*
X127206175Y-89203831D01*
X127014618Y-89665150D01*
X127014182Y-90164659D01*
X127204933Y-90626311D01*
X127557831Y-90979825D01*
X128019150Y-91171382D01*
X128333029Y-91171656D01*
X128304257Y-91200429D01*
X128021341Y-91200182D01*
X127559689Y-91390933D01*
X127206175Y-91743831D01*
X127014618Y-92205150D01*
X127014182Y-92704659D01*
X127204933Y-93166311D01*
X127557831Y-93519825D01*
X128019150Y-93711382D01*
X128333029Y-93711656D01*
X128304257Y-93740429D01*
X128021341Y-93740182D01*
X127559689Y-93930933D01*
X127206175Y-94283831D01*
X127014618Y-94745150D01*
X127014182Y-95244659D01*
X127204933Y-95706311D01*
X127557831Y-96059825D01*
X128019150Y-96251382D01*
X128333029Y-96251656D01*
X128304257Y-96280429D01*
X128021341Y-96280182D01*
X127559689Y-96470933D01*
X127206175Y-96823831D01*
X127014618Y-97285150D01*
X127014182Y-97784659D01*
X127204933Y-98246311D01*
X127557831Y-98599825D01*
X128019150Y-98791382D01*
X128333029Y-98791656D01*
X128304257Y-98820429D01*
X128021341Y-98820182D01*
X127559689Y-99010933D01*
X127206175Y-99363831D01*
X127014618Y-99825150D01*
X127014182Y-100324659D01*
X127204933Y-100786311D01*
X127557831Y-101139825D01*
X128019150Y-101331382D01*
X128333029Y-101331656D01*
X128304257Y-101360429D01*
X128021341Y-101360182D01*
X127559689Y-101550933D01*
X127206175Y-101903831D01*
X127014618Y-102365150D01*
X127014182Y-102864659D01*
X127204933Y-103326311D01*
X127557831Y-103679825D01*
X128019150Y-103871382D01*
X128333029Y-103871656D01*
X128304257Y-103900429D01*
X128021341Y-103900182D01*
X127559689Y-104090933D01*
X127206175Y-104443831D01*
X127014618Y-104905150D01*
X127014182Y-105404659D01*
X127204933Y-105866311D01*
X127557831Y-106219825D01*
X128019150Y-106411382D01*
X128333029Y-106411656D01*
X128304257Y-106440429D01*
X128021341Y-106440182D01*
X127559689Y-106630933D01*
X127206175Y-106983831D01*
X127014618Y-107445150D01*
X127014182Y-107944659D01*
X127204933Y-108406311D01*
X127557831Y-108759825D01*
X128019150Y-108951382D01*
X128333029Y-108951656D01*
X128304257Y-108980429D01*
X128021341Y-108980182D01*
X127559689Y-109170933D01*
X127206175Y-109523831D01*
X127014618Y-109985150D01*
X127014182Y-110484659D01*
X127204933Y-110946311D01*
X127557831Y-111299825D01*
X128019150Y-111491382D01*
X128333029Y-111491656D01*
X128304257Y-111520429D01*
X128021341Y-111520182D01*
X127559689Y-111710933D01*
X127206175Y-112063831D01*
X127014618Y-112525150D01*
X127014182Y-113024659D01*
X127204933Y-113486311D01*
X127557831Y-113839825D01*
X128019150Y-114031382D01*
X128518659Y-114031818D01*
X128980311Y-113841067D01*
X129333825Y-113488169D01*
X129525382Y-113026850D01*
X129525631Y-112741684D01*
X129554454Y-112712860D01*
X129554182Y-113024659D01*
X129744933Y-113486311D01*
X130097831Y-113839825D01*
X130559150Y-114031382D01*
X131058659Y-114031818D01*
X131393172Y-113893600D01*
X131780183Y-113893600D01*
X131793030Y-113961877D01*
X131870910Y-114082907D01*
X131978400Y-114156351D01*
X131978400Y-114445400D01*
X131877993Y-114510010D01*
X131837994Y-114568551D01*
X131522169Y-114252175D01*
X131060850Y-114060618D01*
X130561341Y-114060182D01*
X130099689Y-114250933D01*
X129746175Y-114603831D01*
X129554618Y-115065150D01*
X129554334Y-115390343D01*
X129531532Y-115356217D01*
X129525571Y-115350256D01*
X129525818Y-115067341D01*
X129335067Y-114605689D01*
X128982169Y-114252175D01*
X128520850Y-114060618D01*
X128021341Y-114060182D01*
X127559689Y-114250933D01*
X127206175Y-114603831D01*
X127014618Y-115065150D01*
X127014182Y-115564659D01*
X127204933Y-116026311D01*
X127557831Y-116379825D01*
X127888808Y-116517259D01*
X127354900Y-116737866D01*
X126899465Y-117192507D01*
X126652681Y-117786828D01*
X126652119Y-118430349D01*
X126897866Y-119025100D01*
X127352507Y-119480535D01*
X127441288Y-119517400D01*
X125482600Y-119517400D01*
X125482600Y-82389952D01*
X126733695Y-82389952D01*
X126814685Y-82797118D01*
X127024266Y-82905338D01*
X127633604Y-82296000D01*
X127024266Y-81686662D01*
X126814685Y-81794882D01*
X126733695Y-82389952D01*
X125482600Y-82389952D01*
X125482600Y-77309952D01*
X126733695Y-77309952D01*
X126814685Y-77717118D01*
X127024266Y-77825338D01*
X127633604Y-77216000D01*
X127024266Y-76606662D01*
X126814685Y-76714882D01*
X126733695Y-77309952D01*
X125482600Y-77309952D01*
X125482600Y-75921734D01*
X127660662Y-75921734D01*
X127673192Y-75946000D01*
X127660662Y-75970266D01*
X127712478Y-76022082D01*
X127768882Y-76131315D01*
X127830034Y-76139638D01*
X128270000Y-76579604D01*
X128705171Y-76144433D01*
X128771118Y-76131315D01*
X128827522Y-76022082D01*
X128879338Y-75970266D01*
X128866808Y-75946000D01*
X128879338Y-75921734D01*
X128827522Y-75869918D01*
X128771118Y-75760685D01*
X128709966Y-75752362D01*
X128270000Y-75312396D01*
X127834829Y-75747567D01*
X127768882Y-75760685D01*
X127712478Y-75869918D01*
X127660662Y-75921734D01*
X125482600Y-75921734D01*
X125482600Y-74769952D01*
X126733695Y-74769952D01*
X126814685Y-75177118D01*
X127024266Y-75285338D01*
X127633604Y-74676000D01*
X127024266Y-74066662D01*
X126814685Y-74174882D01*
X126733695Y-74769952D01*
X125482600Y-74769952D01*
X125482600Y-70482600D01*
X127254992Y-70482600D01*
X126899465Y-70837507D01*
X126899465Y-70837507D01*
G37*
X126899465Y-70837507D02*
X126652681Y-71431828D01*
X126652119Y-72075349D01*
X126897866Y-72670100D01*
X127352507Y-73125535D01*
X127735825Y-73284703D01*
X127660662Y-73430266D01*
X128270000Y-74039604D01*
X128879338Y-73430266D01*
X128804101Y-73284560D01*
X129185100Y-73127134D01*
X129640535Y-72672493D01*
X129887319Y-72078172D01*
X129887881Y-71434651D01*
X129642134Y-70839900D01*
X129285457Y-70482600D01*
X131728295Y-70482600D01*
X131563206Y-70647689D01*
X131470400Y-70871743D01*
X131470400Y-71094600D01*
X131622800Y-71247000D01*
X132334000Y-71247000D01*
X132334000Y-70993000D01*
X132842000Y-70993000D01*
X132842000Y-71247000D01*
X133553200Y-71247000D01*
X133705600Y-71094600D01*
X133705600Y-70871743D01*
X133612794Y-70647689D01*
X133447705Y-70482600D01*
X150749992Y-70482600D01*
X150394465Y-70837507D01*
X150147681Y-71431828D01*
X150147119Y-72075349D01*
X150392866Y-72670100D01*
X150847507Y-73125535D01*
X151230825Y-73284703D01*
X151155662Y-73430266D01*
X151765000Y-74039604D01*
X152374338Y-73430266D01*
X152299101Y-73284560D01*
X152680100Y-73127134D01*
X153135535Y-72672493D01*
X153382319Y-72078172D01*
X153382881Y-71434651D01*
X153137134Y-70839900D01*
X152780457Y-70482600D01*
X154517400Y-70482600D01*
X154517400Y-119517400D01*
X129099750Y-119517400D01*
X129185100Y-119482134D01*
X129640535Y-119027493D01*
X129887319Y-118433172D01*
X129887875Y-117795979D01*
X130502037Y-118410141D01*
X130508073Y-118440485D01*
X130695278Y-118720657D01*
X130975450Y-118907862D01*
X131305935Y-118973600D01*
X131780183Y-118973600D01*
X131793030Y-119041877D01*
X131870910Y-119162907D01*
X131989742Y-119244101D01*
X132130800Y-119272666D01*
X133299200Y-119272666D01*
X133430977Y-119247870D01*
X133476441Y-119218615D01*
X133513742Y-119244101D01*
X133654800Y-119272666D01*
X134823200Y-119272666D01*
X134954977Y-119247870D01*
X135076007Y-119169990D01*
X135157201Y-119051158D01*
X135185766Y-118910100D01*
X135185766Y-118364344D01*
X135537883Y-118716461D01*
X135703346Y-118550998D01*
X135862081Y-118785496D01*
X136593919Y-118893704D01*
X137137919Y-118785496D01*
X137296655Y-118550997D01*
X142703345Y-118550997D01*
X142862081Y-118785496D01*
X143593919Y-118893704D01*
X144137919Y-118785496D01*
X144296655Y-118550997D01*
X143500000Y-117754342D01*
X142703345Y-118550997D01*
X137296655Y-118550997D01*
X136500000Y-117754342D01*
X136485858Y-117768484D01*
X135731516Y-117014142D01*
X135745658Y-117000000D01*
X137254342Y-117000000D01*
X138050997Y-117796655D01*
X138285496Y-117637919D01*
X138365930Y-117093919D01*
X141606296Y-117093919D01*
X141714504Y-117637919D01*
X141949003Y-117796655D01*
X142745658Y-117000000D01*
X144254342Y-117000000D01*
X145050997Y-117796655D01*
X145285496Y-117637919D01*
X145384696Y-116967000D01*
X147973434Y-116967000D01*
X147973434Y-118745000D01*
X147998230Y-118876777D01*
X148076110Y-118997807D01*
X148194942Y-119079001D01*
X148336000Y-119107566D01*
X150114000Y-119107566D01*
X150203139Y-119090793D01*
X151158825Y-119090793D01*
X151265339Y-119299952D01*
X151855950Y-119381250D01*
X152264661Y-119299952D01*
X152371175Y-119090793D01*
X151765000Y-118484618D01*
X151158825Y-119090793D01*
X150203139Y-119090793D01*
X150245777Y-119082770D01*
X150366807Y-119004890D01*
X150448001Y-118886058D01*
X150476566Y-118745000D01*
X150476566Y-118434858D01*
X150530207Y-118462175D01*
X151136382Y-117856000D01*
X152393618Y-117856000D01*
X152999793Y-118462175D01*
X153208952Y-118355661D01*
X153290250Y-117765050D01*
X153208952Y-117356339D01*
X152999793Y-117249825D01*
X152393618Y-117856000D01*
X151136382Y-117856000D01*
X150530207Y-117249825D01*
X150476566Y-117277142D01*
X150476566Y-116967000D01*
X150451770Y-116835223D01*
X150373890Y-116714193D01*
X150255058Y-116632999D01*
X150114000Y-116604434D01*
X148336000Y-116604434D01*
X148204223Y-116629230D01*
X148083193Y-116707110D01*
X148001999Y-116825942D01*
X147973434Y-116967000D01*
X145384696Y-116967000D01*
X145393704Y-116906081D01*
X145285496Y-116362081D01*
X145050997Y-116203345D01*
X144254342Y-117000000D01*
X142745658Y-117000000D01*
X141949003Y-116203345D01*
X141714504Y-116362081D01*
X141606296Y-117093919D01*
X138365930Y-117093919D01*
X138393704Y-116906081D01*
X138285496Y-116362081D01*
X138050997Y-116203345D01*
X137254342Y-117000000D01*
X135745658Y-117000000D01*
X135731516Y-116985858D01*
X136485858Y-116231516D01*
X136500000Y-116245658D01*
X137296655Y-115449003D01*
X142703345Y-115449003D01*
X143500000Y-116245658D01*
X144180999Y-115564659D01*
X147969182Y-115564659D01*
X148159933Y-116026311D01*
X148512831Y-116379825D01*
X148974150Y-116571382D01*
X149473659Y-116571818D01*
X149935311Y-116381067D01*
X150288825Y-116028169D01*
X150480382Y-115566850D01*
X150480383Y-115564659D01*
X150509182Y-115564659D01*
X150699933Y-116026311D01*
X151052831Y-116379825D01*
X151241791Y-116458288D01*
X151158825Y-116621207D01*
X151765000Y-117227382D01*
X152371175Y-116621207D01*
X152288246Y-116458361D01*
X152475311Y-116381067D01*
X152828825Y-116028169D01*
X153020382Y-115566850D01*
X153020818Y-115067341D01*
X152830067Y-114605689D01*
X152477169Y-114252175D01*
X152015850Y-114060618D01*
X151516341Y-114060182D01*
X151054689Y-114250933D01*
X150701175Y-114603831D01*
X150509618Y-115065150D01*
X150509182Y-115564659D01*
X150480383Y-115564659D01*
X150480818Y-115067341D01*
X150290067Y-114605689D01*
X149937169Y-114252175D01*
X149475850Y-114060618D01*
X148976341Y-114060182D01*
X148514689Y-114250933D01*
X148161175Y-114603831D01*
X147969618Y-115065150D01*
X147969182Y-115564659D01*
X144180999Y-115564659D01*
X144296655Y-115449003D01*
X144137919Y-115214504D01*
X143406081Y-115106296D01*
X142862081Y-115214504D01*
X142703345Y-115449003D01*
X137296655Y-115449003D01*
X137137919Y-115214504D01*
X136406081Y-115106296D01*
X135862081Y-115214504D01*
X135703346Y-115449002D01*
X135537883Y-115283539D01*
X135185766Y-115635656D01*
X135185766Y-114769900D01*
X135160970Y-114638123D01*
X135102600Y-114547413D01*
X135102600Y-114051070D01*
X135157201Y-113971158D01*
X135185766Y-113830100D01*
X135185766Y-113768463D01*
X138644165Y-113768463D01*
X138850108Y-114266883D01*
X139231112Y-114648552D01*
X139729171Y-114855364D01*
X140268463Y-114855835D01*
X140766883Y-114649892D01*
X141148552Y-114268888D01*
X141355364Y-113770829D01*
X141355835Y-113231537D01*
X141270355Y-113024659D01*
X147969182Y-113024659D01*
X148159933Y-113486311D01*
X148512831Y-113839825D01*
X148974150Y-114031382D01*
X149473659Y-114031818D01*
X149935311Y-113841067D01*
X150288825Y-113488169D01*
X150480382Y-113026850D01*
X150480383Y-113024659D01*
X150509182Y-113024659D01*
X150699933Y-113486311D01*
X151052831Y-113839825D01*
X151514150Y-114031382D01*
X152013659Y-114031818D01*
X152475311Y-113841067D01*
X152828825Y-113488169D01*
X153020382Y-113026850D01*
X153020818Y-112527341D01*
X152830067Y-112065689D01*
X152477169Y-111712175D01*
X152015850Y-111520618D01*
X151516341Y-111520182D01*
X151054689Y-111710933D01*
X150701175Y-112063831D01*
X150509618Y-112525150D01*
X150509182Y-113024659D01*
X150480383Y-113024659D01*
X150480818Y-112527341D01*
X150290067Y-112065689D01*
X149937169Y-111712175D01*
X149475850Y-111520618D01*
X148976341Y-111520182D01*
X148514689Y-111710933D01*
X148161175Y-112063831D01*
X147969618Y-112525150D01*
X147969182Y-113024659D01*
X141270355Y-113024659D01*
X141149892Y-112733117D01*
X140768888Y-112351448D01*
X140270829Y-112144636D01*
X139731537Y-112144165D01*
X139233117Y-112350108D01*
X138851448Y-112731112D01*
X138644636Y-113229171D01*
X138644165Y-113768463D01*
X135185766Y-113768463D01*
X135185766Y-112229900D01*
X135160970Y-112098123D01*
X135102600Y-112007413D01*
X135102600Y-111511070D01*
X135157201Y-111431158D01*
X135173263Y-111351841D01*
X135537883Y-111716461D01*
X135703346Y-111550998D01*
X135862081Y-111785496D01*
X136593919Y-111893704D01*
X137137919Y-111785496D01*
X137296655Y-111550997D01*
X142703345Y-111550997D01*
X142862081Y-111785496D01*
X143593919Y-111893704D01*
X144137919Y-111785496D01*
X144296655Y-111550997D01*
X143500000Y-110754342D01*
X142703345Y-111550997D01*
X137296655Y-111550997D01*
X136500000Y-110754342D01*
X136485858Y-110768484D01*
X135731516Y-110014142D01*
X135745658Y-110000000D01*
X137254342Y-110000000D01*
X138050997Y-110796655D01*
X138285496Y-110637919D01*
X138365930Y-110093919D01*
X141606296Y-110093919D01*
X141714504Y-110637919D01*
X141949003Y-110796655D01*
X142745658Y-110000000D01*
X144254342Y-110000000D01*
X145050997Y-110796655D01*
X145285496Y-110637919D01*
X145393704Y-109906081D01*
X145285496Y-109362081D01*
X145050997Y-109203345D01*
X144254342Y-110000000D01*
X142745658Y-110000000D01*
X141949003Y-109203345D01*
X141714504Y-109362081D01*
X141606296Y-110093919D01*
X138365930Y-110093919D01*
X138393704Y-109906081D01*
X138285496Y-109362081D01*
X138050997Y-109203345D01*
X137254342Y-110000000D01*
X135745658Y-110000000D01*
X135102600Y-109356942D01*
X135102600Y-109093000D01*
X135036862Y-108762515D01*
X134849657Y-108482343D01*
X134799761Y-108449003D01*
X135703345Y-108449003D01*
X136500000Y-109245658D01*
X137296655Y-108449003D01*
X142703345Y-108449003D01*
X143500000Y-109245658D01*
X144296655Y-108449003D01*
X144137919Y-108214504D01*
X143406081Y-108106296D01*
X142862081Y-108214504D01*
X142703345Y-108449003D01*
X137296655Y-108449003D01*
X137137919Y-108214504D01*
X136406081Y-108106296D01*
X135862081Y-108214504D01*
X135703345Y-108449003D01*
X134799761Y-108449003D01*
X134569485Y-108295138D01*
X134254263Y-108232436D01*
X134465725Y-108020974D01*
X145550596Y-108020974D01*
X147521049Y-109991428D01*
X147472400Y-110236000D01*
X147538138Y-110566485D01*
X147725343Y-110846657D01*
X148005515Y-111033862D01*
X148307245Y-111093880D01*
X148512831Y-111299825D01*
X148974150Y-111491382D01*
X149473659Y-111491818D01*
X149935311Y-111301067D01*
X150288825Y-110948169D01*
X150480382Y-110486850D01*
X150480656Y-110172970D01*
X150509429Y-110201743D01*
X150509182Y-110484659D01*
X150699933Y-110946311D01*
X151052831Y-111299825D01*
X151514150Y-111491382D01*
X152013659Y-111491818D01*
X152475311Y-111301067D01*
X152828825Y-110948169D01*
X153020382Y-110486850D01*
X153020818Y-109987341D01*
X152830067Y-109525689D01*
X152477169Y-109172175D01*
X152015850Y-108980618D01*
X151730684Y-108980369D01*
X151701860Y-108951546D01*
X152013659Y-108951818D01*
X152475311Y-108761067D01*
X152828825Y-108408169D01*
X153020382Y-107946850D01*
X153020818Y-107447341D01*
X152849061Y-107031659D01*
X152900933Y-107031704D01*
X152994084Y-106993215D01*
X153014284Y-106989197D01*
X153031259Y-106977855D01*
X153123596Y-106939702D01*
X153194930Y-106868492D01*
X153212052Y-106857052D01*
X153566425Y-106502680D01*
X153697797Y-106306067D01*
X153698569Y-106304912D01*
X153744972Y-106071628D01*
X153744972Y-101495345D01*
X153771600Y-101361477D01*
X153771600Y-78486000D01*
X153767617Y-78465976D01*
X153767704Y-78366067D01*
X153729215Y-78272916D01*
X153725197Y-78252716D01*
X153713855Y-78235741D01*
X153675702Y-78143404D01*
X153604492Y-78072070D01*
X153593052Y-78054948D01*
X153576080Y-78043608D01*
X153505493Y-77972897D01*
X153412408Y-77934245D01*
X153395284Y-77922803D01*
X153375261Y-77918820D01*
X153282990Y-77880506D01*
X153183763Y-77880419D01*
X153088517Y-77785173D01*
X153220315Y-77717118D01*
X153301305Y-77122048D01*
X153220315Y-76714882D01*
X153010734Y-76606662D01*
X152401396Y-77216000D01*
X152474511Y-77289115D01*
X151838115Y-77925511D01*
X151765000Y-77852396D01*
X151691885Y-77925511D01*
X151055489Y-77289115D01*
X151128604Y-77216000D01*
X150519266Y-76606662D01*
X150364754Y-76686446D01*
X150290067Y-76505689D01*
X149937169Y-76152175D01*
X149475850Y-75960618D01*
X149401642Y-75960553D01*
X149459739Y-75921734D01*
X151155662Y-75921734D01*
X151168192Y-75946000D01*
X151155662Y-75970266D01*
X151207478Y-76022082D01*
X151263882Y-76131315D01*
X151325034Y-76139638D01*
X151765000Y-76579604D01*
X152200171Y-76144433D01*
X152266118Y-76131315D01*
X152322522Y-76022082D01*
X152374338Y-75970266D01*
X152361808Y-75946000D01*
X152374338Y-75921734D01*
X152322522Y-75869918D01*
X152266118Y-75760685D01*
X152204966Y-75752362D01*
X151765000Y-75312396D01*
X151329829Y-75747567D01*
X151263882Y-75760685D01*
X151207478Y-75869918D01*
X151155662Y-75921734D01*
X149459739Y-75921734D01*
X149471964Y-75913566D01*
X150100000Y-75913566D01*
X150231777Y-75888770D01*
X150352807Y-75810890D01*
X150434001Y-75692058D01*
X150462566Y-75551000D01*
X150462566Y-75256060D01*
X150519266Y-75285338D01*
X151128604Y-74676000D01*
X152401396Y-74676000D01*
X153010734Y-75285338D01*
X153220315Y-75177118D01*
X153301305Y-74582048D01*
X153220315Y-74174882D01*
X153010734Y-74066662D01*
X152401396Y-74676000D01*
X151128604Y-74676000D01*
X150519266Y-74066662D01*
X150462566Y-74095940D01*
X150462566Y-73801000D01*
X150437770Y-73669223D01*
X150359890Y-73548193D01*
X150241058Y-73466999D01*
X150100000Y-73438434D01*
X148350000Y-73438434D01*
X148218223Y-73463230D01*
X148097193Y-73541110D01*
X148015999Y-73659942D01*
X147987434Y-73801000D01*
X147987434Y-73812400D01*
X146668475Y-73812400D01*
X146668470Y-73812399D01*
X146240783Y-73897472D01*
X145878207Y-74139737D01*
X145878205Y-74139740D01*
X145131600Y-74886344D01*
X145131600Y-74396598D01*
X145074793Y-74396598D01*
X145038794Y-74309689D01*
X144867311Y-74138206D01*
X144643257Y-74045400D01*
X144549400Y-74045400D01*
X144397000Y-74197800D01*
X144397000Y-74792500D01*
X144522000Y-74792500D01*
X144522000Y-75067500D01*
X144397000Y-75067500D01*
X144397000Y-75158601D01*
X144147000Y-75158601D01*
X144147000Y-75067500D01*
X144022000Y-75067500D01*
X144022000Y-74792500D01*
X144147000Y-74792500D01*
X144147000Y-74197800D01*
X143994600Y-74045400D01*
X143900743Y-74045400D01*
X143676689Y-74138206D01*
X143519689Y-74295206D01*
X143506000Y-74292434D01*
X143006000Y-74292434D01*
X142874223Y-74317230D01*
X142869297Y-74320400D01*
X142396712Y-74320400D01*
X142479777Y-74304770D01*
X142600807Y-74226890D01*
X142682001Y-74108058D01*
X142710566Y-73967000D01*
X142710566Y-73441671D01*
X142802689Y-73533794D01*
X143026743Y-73626600D01*
X143345600Y-73626600D01*
X143498000Y-73474200D01*
X143498000Y-72767000D01*
X144198000Y-72767000D01*
X144198000Y-73474200D01*
X144350400Y-73626600D01*
X144669257Y-73626600D01*
X144893311Y-73533794D01*
X145064794Y-73362311D01*
X145157600Y-73138257D01*
X145157600Y-72919400D01*
X145005200Y-72767000D01*
X144198000Y-72767000D01*
X143498000Y-72767000D01*
X142690800Y-72767000D01*
X142661028Y-72796772D01*
X142607890Y-72714193D01*
X142489058Y-72632999D01*
X142348000Y-72604434D01*
X141277217Y-72604434D01*
X141439284Y-72572197D01*
X141637052Y-72440052D01*
X141647538Y-72429566D01*
X142348000Y-72429566D01*
X142479777Y-72404770D01*
X142600807Y-72326890D01*
X142661647Y-72237847D01*
X142690800Y-72267000D01*
X143498000Y-72267000D01*
X143498000Y-71559800D01*
X144198000Y-71559800D01*
X144198000Y-72267000D01*
X145005200Y-72267000D01*
X145157600Y-72114600D01*
X145157600Y-71895743D01*
X145064794Y-71671689D01*
X144893311Y-71500206D01*
X144669257Y-71407400D01*
X144350400Y-71407400D01*
X144198000Y-71559800D01*
X143498000Y-71559800D01*
X143345600Y-71407400D01*
X143026743Y-71407400D01*
X142802689Y-71500206D01*
X142710566Y-71592329D01*
X142710566Y-71067000D01*
X142685770Y-70935223D01*
X142607890Y-70814193D01*
X142489058Y-70732999D01*
X142348000Y-70704434D01*
X140948000Y-70704434D01*
X140816223Y-70729230D01*
X140695193Y-70807110D01*
X140613999Y-70925942D01*
X140585434Y-71067000D01*
X140585434Y-71399400D01*
X140497647Y-71399400D01*
X140483000Y-71396434D01*
X139965006Y-71396434D01*
X139965006Y-71067040D01*
X139940210Y-70935263D01*
X139862330Y-70814233D01*
X139743498Y-70733039D01*
X139602440Y-70704474D01*
X138202440Y-70704474D01*
X138070663Y-70729270D01*
X138016069Y-70764400D01*
X136405100Y-70764400D01*
X136267000Y-70736434D01*
X135767000Y-70736434D01*
X135635223Y-70761230D01*
X135514193Y-70839110D01*
X135509842Y-70845477D01*
X135392058Y-70764999D01*
X135251000Y-70736434D01*
X134751000Y-70736434D01*
X134619223Y-70761230D01*
X134498193Y-70839110D01*
X134416999Y-70957942D01*
X134388434Y-71099000D01*
X134388434Y-71649000D01*
X134391400Y-71664763D01*
X134391400Y-71798188D01*
X134356001Y-71805229D01*
X134075829Y-71992434D01*
X133906863Y-72161400D01*
X133692700Y-72161400D01*
X133705600Y-72130257D01*
X133705600Y-71907400D01*
X133553200Y-71755000D01*
X132842000Y-71755000D01*
X132842000Y-72009000D01*
X132334000Y-72009000D01*
X132334000Y-71755000D01*
X131622800Y-71755000D01*
X131470400Y-71907400D01*
X131470400Y-72130257D01*
X131563206Y-72354311D01*
X131734689Y-72525794D01*
X131798968Y-72552419D01*
X131745999Y-72629942D01*
X131717434Y-72771000D01*
X131717434Y-72801251D01*
X131080252Y-73438434D01*
X129935000Y-73438434D01*
X129803223Y-73463230D01*
X129682193Y-73541110D01*
X129600999Y-73659942D01*
X129572434Y-73801000D01*
X129572434Y-74095940D01*
X129515734Y-74066662D01*
X128906396Y-74676000D01*
X129515734Y-75285338D01*
X129572434Y-75256060D01*
X129572434Y-75551000D01*
X129597230Y-75682777D01*
X129675110Y-75803807D01*
X129793942Y-75885001D01*
X129935000Y-75913566D01*
X131685000Y-75913566D01*
X131816777Y-75888770D01*
X131937807Y-75810890D01*
X131949621Y-75793600D01*
X132125074Y-75793600D01*
X132429875Y-76098400D01*
X131392665Y-76098400D01*
X131060850Y-75960618D01*
X130561341Y-75960182D01*
X130099689Y-76150933D01*
X129746175Y-76503831D01*
X129670329Y-76686489D01*
X129515734Y-76606662D01*
X128906396Y-77216000D01*
X128979511Y-77289115D01*
X128343115Y-77925511D01*
X128270000Y-77852396D01*
X127660662Y-78461734D01*
X127740446Y-78616246D01*
X127559689Y-78690933D01*
X127206175Y-79043831D01*
X127014618Y-79505150D01*
X127014182Y-80004659D01*
X127204933Y-80466311D01*
X127557831Y-80819825D01*
X127740489Y-80895671D01*
X127660662Y-81050266D01*
X128270000Y-81659604D01*
X128879338Y-81050266D01*
X128799554Y-80895754D01*
X128980311Y-80821067D01*
X129333825Y-80468169D01*
X129525382Y-80006850D01*
X129525631Y-79721683D01*
X129554454Y-79692860D01*
X129554182Y-80004659D01*
X129744933Y-80466311D01*
X130097831Y-80819825D01*
X130559150Y-81011382D01*
X131058659Y-81011818D01*
X131520311Y-80821067D01*
X131722130Y-80619600D01*
X132334000Y-80619600D01*
X132664485Y-80553862D01*
X132944657Y-80366657D01*
X133047194Y-80213200D01*
X133186447Y-80213200D01*
X133361410Y-80178398D01*
X133509736Y-80079289D01*
X133637435Y-79951590D01*
X138479608Y-79951590D01*
X138396202Y-80034850D01*
X138303811Y-80257353D01*
X138303601Y-80498276D01*
X138395603Y-80720939D01*
X138565812Y-80891446D01*
X138788315Y-80983837D01*
X139029238Y-80984047D01*
X139251901Y-80892045D01*
X139308502Y-80835543D01*
X140180634Y-80835543D01*
X140230073Y-80885069D01*
X140452576Y-80977460D01*
X140693499Y-80977670D01*
X140916162Y-80885668D01*
X141086669Y-80715459D01*
X141179060Y-80492956D01*
X141179270Y-80252033D01*
X141087268Y-80029370D01*
X141009624Y-79951590D01*
X146379878Y-79951590D01*
X146507577Y-80079289D01*
X146637792Y-80166296D01*
X146655904Y-80178398D01*
X146830867Y-80213200D01*
X147114806Y-80213200D01*
X147217343Y-80366657D01*
X147413230Y-80497545D01*
X147349506Y-80651010D01*
X147349296Y-80891933D01*
X147441298Y-81114596D01*
X147611507Y-81285103D01*
X147834010Y-81377494D01*
X147883145Y-81377537D01*
X147965255Y-81432400D01*
X147828000Y-81432400D01*
X147497515Y-81498138D01*
X147217343Y-81685343D01*
X147132142Y-81812855D01*
X141562678Y-81812855D01*
X141575494Y-81781990D01*
X141575704Y-81541067D01*
X141483702Y-81318404D01*
X141313493Y-81147897D01*
X141090990Y-81055506D01*
X140850067Y-81055296D01*
X140627404Y-81147298D01*
X140570803Y-81203800D01*
X138956298Y-81203800D01*
X138900493Y-81147897D01*
X138677990Y-81055506D01*
X138437067Y-81055296D01*
X138214404Y-81147298D01*
X138043897Y-81317507D01*
X137951506Y-81540010D01*
X137951296Y-81780933D01*
X137964486Y-81812855D01*
X133029858Y-81812855D01*
X132944657Y-81685343D01*
X132664485Y-81498138D01*
X132334000Y-81432400D01*
X131722045Y-81432400D01*
X131522169Y-81232175D01*
X131060850Y-81040618D01*
X130561341Y-81040182D01*
X130099689Y-81230933D01*
X129746175Y-81583831D01*
X129670329Y-81766489D01*
X129515734Y-81686662D01*
X128906396Y-82296000D01*
X128979511Y-82369115D01*
X128343115Y-83005511D01*
X128270000Y-82932396D01*
X127660662Y-83541734D01*
X127740446Y-83696246D01*
X127559689Y-83770933D01*
X127206175Y-84123831D01*
X127014618Y-84585150D01*
X127014182Y-85084659D01*
X127204933Y-85546311D01*
X127557831Y-85899825D01*
X128019150Y-86091382D01*
X128333029Y-86091656D01*
X128304257Y-86120429D01*
X128021341Y-86120182D01*
X127559689Y-86310933D01*
X127206175Y-86663831D01*
X127014618Y-87125150D01*
X127014182Y-87624659D01*
X127204933Y-88086311D01*
X127557831Y-88439825D01*
X128019150Y-88631382D01*
X128333029Y-88631656D01*
X128304257Y-88660429D01*
X128021341Y-88660182D01*
X127559689Y-88850933D01*
X127206175Y-89203831D01*
X127014618Y-89665150D01*
X127014182Y-90164659D01*
X127204933Y-90626311D01*
X127557831Y-90979825D01*
X128019150Y-91171382D01*
X128333029Y-91171656D01*
X128304257Y-91200429D01*
X128021341Y-91200182D01*
X127559689Y-91390933D01*
X127206175Y-91743831D01*
X127014618Y-92205150D01*
X127014182Y-92704659D01*
X127204933Y-93166311D01*
X127557831Y-93519825D01*
X128019150Y-93711382D01*
X128333029Y-93711656D01*
X128304257Y-93740429D01*
X128021341Y-93740182D01*
X127559689Y-93930933D01*
X127206175Y-94283831D01*
X127014618Y-94745150D01*
X127014182Y-95244659D01*
X127204933Y-95706311D01*
X127557831Y-96059825D01*
X128019150Y-96251382D01*
X128333029Y-96251656D01*
X128304257Y-96280429D01*
X128021341Y-96280182D01*
X127559689Y-96470933D01*
X127206175Y-96823831D01*
X127014618Y-97285150D01*
X127014182Y-97784659D01*
X127204933Y-98246311D01*
X127557831Y-98599825D01*
X128019150Y-98791382D01*
X128333029Y-98791656D01*
X128304257Y-98820429D01*
X128021341Y-98820182D01*
X127559689Y-99010933D01*
X127206175Y-99363831D01*
X127014618Y-99825150D01*
X127014182Y-100324659D01*
X127204933Y-100786311D01*
X127557831Y-101139825D01*
X128019150Y-101331382D01*
X128333029Y-101331656D01*
X128304257Y-101360429D01*
X128021341Y-101360182D01*
X127559689Y-101550933D01*
X127206175Y-101903831D01*
X127014618Y-102365150D01*
X127014182Y-102864659D01*
X127204933Y-103326311D01*
X127557831Y-103679825D01*
X128019150Y-103871382D01*
X128333029Y-103871656D01*
X128304257Y-103900429D01*
X128021341Y-103900182D01*
X127559689Y-104090933D01*
X127206175Y-104443831D01*
X127014618Y-104905150D01*
X127014182Y-105404659D01*
X127204933Y-105866311D01*
X127557831Y-106219825D01*
X128019150Y-106411382D01*
X128333029Y-106411656D01*
X128304257Y-106440429D01*
X128021341Y-106440182D01*
X127559689Y-106630933D01*
X127206175Y-106983831D01*
X127014618Y-107445150D01*
X127014182Y-107944659D01*
X127204933Y-108406311D01*
X127557831Y-108759825D01*
X128019150Y-108951382D01*
X128333029Y-108951656D01*
X128304257Y-108980429D01*
X128021341Y-108980182D01*
X127559689Y-109170933D01*
X127206175Y-109523831D01*
X127014618Y-109985150D01*
X127014182Y-110484659D01*
X127204933Y-110946311D01*
X127557831Y-111299825D01*
X128019150Y-111491382D01*
X128333029Y-111491656D01*
X128304257Y-111520429D01*
X128021341Y-111520182D01*
X127559689Y-111710933D01*
X127206175Y-112063831D01*
X127014618Y-112525150D01*
X127014182Y-113024659D01*
X127204933Y-113486311D01*
X127557831Y-113839825D01*
X128019150Y-114031382D01*
X128518659Y-114031818D01*
X128980311Y-113841067D01*
X129333825Y-113488169D01*
X129525382Y-113026850D01*
X129525631Y-112741684D01*
X129554454Y-112712860D01*
X129554182Y-113024659D01*
X129744933Y-113486311D01*
X130097831Y-113839825D01*
X130559150Y-114031382D01*
X131058659Y-114031818D01*
X131393172Y-113893600D01*
X131780183Y-113893600D01*
X131793030Y-113961877D01*
X131870910Y-114082907D01*
X131978400Y-114156351D01*
X131978400Y-114445400D01*
X131877993Y-114510010D01*
X131837994Y-114568551D01*
X131522169Y-114252175D01*
X131060850Y-114060618D01*
X130561341Y-114060182D01*
X130099689Y-114250933D01*
X129746175Y-114603831D01*
X129554618Y-115065150D01*
X129554334Y-115390343D01*
X129531532Y-115356217D01*
X129525571Y-115350256D01*
X129525818Y-115067341D01*
X129335067Y-114605689D01*
X128982169Y-114252175D01*
X128520850Y-114060618D01*
X128021341Y-114060182D01*
X127559689Y-114250933D01*
X127206175Y-114603831D01*
X127014618Y-115065150D01*
X127014182Y-115564659D01*
X127204933Y-116026311D01*
X127557831Y-116379825D01*
X127888808Y-116517259D01*
X127354900Y-116737866D01*
X126899465Y-117192507D01*
X126652681Y-117786828D01*
X126652119Y-118430349D01*
X126897866Y-119025100D01*
X127352507Y-119480535D01*
X127441288Y-119517400D01*
X125482600Y-119517400D01*
X125482600Y-82389952D01*
X126733695Y-82389952D01*
X126814685Y-82797118D01*
X127024266Y-82905338D01*
X127633604Y-82296000D01*
X127024266Y-81686662D01*
X126814685Y-81794882D01*
X126733695Y-82389952D01*
X125482600Y-82389952D01*
X125482600Y-77309952D01*
X126733695Y-77309952D01*
X126814685Y-77717118D01*
X127024266Y-77825338D01*
X127633604Y-77216000D01*
X127024266Y-76606662D01*
X126814685Y-76714882D01*
X126733695Y-77309952D01*
X125482600Y-77309952D01*
X125482600Y-75921734D01*
X127660662Y-75921734D01*
X127673192Y-75946000D01*
X127660662Y-75970266D01*
X127712478Y-76022082D01*
X127768882Y-76131315D01*
X127830034Y-76139638D01*
X128270000Y-76579604D01*
X128705171Y-76144433D01*
X128771118Y-76131315D01*
X128827522Y-76022082D01*
X128879338Y-75970266D01*
X128866808Y-75946000D01*
X128879338Y-75921734D01*
X128827522Y-75869918D01*
X128771118Y-75760685D01*
X128709966Y-75752362D01*
X128270000Y-75312396D01*
X127834829Y-75747567D01*
X127768882Y-75760685D01*
X127712478Y-75869918D01*
X127660662Y-75921734D01*
X125482600Y-75921734D01*
X125482600Y-74769952D01*
X126733695Y-74769952D01*
X126814685Y-75177118D01*
X127024266Y-75285338D01*
X127633604Y-74676000D01*
X127024266Y-74066662D01*
X126814685Y-74174882D01*
X126733695Y-74769952D01*
X125482600Y-74769952D01*
X125482600Y-70482600D01*
X127254992Y-70482600D01*
X126899465Y-70837507D01*
G36*
X138713506Y-103130010D02*
X138713296Y-103370933D01*
X138805298Y-103593596D01*
X138975507Y-103764103D01*
X139198010Y-103856494D01*
X139277986Y-103856564D01*
X140265711Y-104844289D01*
X140414037Y-104943398D01*
X140589000Y-104978200D01*
X144253702Y-104978200D01*
X144309507Y-105034103D01*
X144532010Y-105126494D01*
X144772933Y-105126704D01*
X144995596Y-105034702D01*
X145166103Y-104864493D01*
X145258494Y-104641990D01*
X145258704Y-104401067D01*
X145166702Y-104178404D01*
X144996493Y-104007897D01*
X144773990Y-103915506D01*
X144533067Y-103915296D01*
X144310404Y-104007298D01*
X144253803Y-104063800D01*
X140778378Y-104063800D01*
X139924635Y-103210057D01*
X139924704Y-103131067D01*
X139840203Y-102926557D01*
X144443979Y-102926557D01*
X145725666Y-104208244D01*
X148231583Y-106747167D01*
X148232844Y-106748022D01*
X148233691Y-106749289D01*
X148306645Y-106798035D01*
X148330857Y-106814444D01*
X148312870Y-106832400D01*
X148082000Y-106832400D01*
X147751515Y-106898138D01*
X147471343Y-107085343D01*
X147445713Y-107123700D01*
X146746633Y-106424620D01*
X146598307Y-106325511D01*
X146423344Y-106290709D01*
X133285363Y-106290709D01*
X133110400Y-106325511D01*
X132962074Y-106424620D01*
X132517745Y-106868949D01*
X132334000Y-106832400D01*
X132151906Y-106832400D01*
X132276289Y-106749289D01*
X136099021Y-102926557D01*
X138797987Y-102926557D01*
X138713506Y-103130010D01*
X138713506Y-103130010D01*
G37*
X138713506Y-103130010D02*
X138713296Y-103370933D01*
X138805298Y-103593596D01*
X138975507Y-103764103D01*
X139198010Y-103856494D01*
X139277986Y-103856564D01*
X140265711Y-104844289D01*
X140414037Y-104943398D01*
X140589000Y-104978200D01*
X144253702Y-104978200D01*
X144309507Y-105034103D01*
X144532010Y-105126494D01*
X144772933Y-105126704D01*
X144995596Y-105034702D01*
X145166103Y-104864493D01*
X145258494Y-104641990D01*
X145258704Y-104401067D01*
X145166702Y-104178404D01*
X144996493Y-104007897D01*
X144773990Y-103915506D01*
X144533067Y-103915296D01*
X144310404Y-104007298D01*
X144253803Y-104063800D01*
X140778378Y-104063800D01*
X139924635Y-103210057D01*
X139924704Y-103131067D01*
X139840203Y-102926557D01*
X144443979Y-102926557D01*
X145725666Y-104208244D01*
X148231583Y-106747167D01*
X148232844Y-106748022D01*
X148233691Y-106749289D01*
X148306645Y-106798035D01*
X148330857Y-106814444D01*
X148312870Y-106832400D01*
X148082000Y-106832400D01*
X147751515Y-106898138D01*
X147471343Y-107085343D01*
X147445713Y-107123700D01*
X146746633Y-106424620D01*
X146598307Y-106325511D01*
X146423344Y-106290709D01*
X133285363Y-106290709D01*
X133110400Y-106325511D01*
X132962074Y-106424620D01*
X132517745Y-106868949D01*
X132334000Y-106832400D01*
X132151906Y-106832400D01*
X132276289Y-106749289D01*
X136099021Y-102926557D01*
X138797987Y-102926557D01*
X138713506Y-103130010D01*
G36*
X148393711Y-99129290D02*
X148395157Y-99130256D01*
X148161175Y-99363831D01*
X147969618Y-99825150D01*
X147969488Y-99974400D01*
X147828000Y-99974400D01*
X147594716Y-100020803D01*
X147531115Y-100063300D01*
X146938886Y-100063300D01*
X146629772Y-99754186D01*
X147552556Y-98831402D01*
X148095824Y-98831402D01*
X148393711Y-99129290D01*
X148393711Y-99129290D01*
G37*
X148393711Y-99129290D02*
X148395157Y-99130256D01*
X148161175Y-99363831D01*
X147969618Y-99825150D01*
X147969488Y-99974400D01*
X147828000Y-99974400D01*
X147594716Y-100020803D01*
X147531115Y-100063300D01*
X146938886Y-100063300D01*
X146629772Y-99754186D01*
X147552556Y-98831402D01*
X148095824Y-98831402D01*
X148393711Y-99129290D01*
G36*
X136816507Y-96525103D02*
X137039010Y-96617494D01*
X137279933Y-96617704D01*
X137502596Y-96525702D01*
X137559197Y-96469200D01*
X146114622Y-96469200D01*
X147000406Y-97354985D01*
X146964400Y-97536000D01*
X147030138Y-97866485D01*
X147118342Y-97998491D01*
X147039891Y-98050911D01*
X145980002Y-99110800D01*
X142313905Y-99110800D01*
X142337494Y-99053990D01*
X142337704Y-98813067D01*
X142245702Y-98590404D01*
X142075493Y-98419897D01*
X141852990Y-98327506D01*
X141612067Y-98327296D01*
X141389404Y-98419298D01*
X141332803Y-98475800D01*
X138956298Y-98475800D01*
X138900493Y-98419897D01*
X138677990Y-98327506D01*
X138437067Y-98327296D01*
X138214404Y-98419298D01*
X138043897Y-98589507D01*
X137951506Y-98812010D01*
X137951296Y-99052933D01*
X137975206Y-99110800D01*
X133496198Y-99110800D01*
X132868109Y-98482711D01*
X132719783Y-98383602D01*
X132544820Y-98348800D01*
X132081387Y-98348800D01*
X132156485Y-98333862D01*
X132436657Y-98146657D01*
X132623862Y-97866485D01*
X132689600Y-97536000D01*
X132653594Y-97354985D01*
X133539379Y-96469200D01*
X136760702Y-96469200D01*
X136816507Y-96525103D01*
X136816507Y-96525103D01*
G37*
X136816507Y-96525103D02*
X137039010Y-96617494D01*
X137279933Y-96617704D01*
X137502596Y-96525702D01*
X137559197Y-96469200D01*
X146114622Y-96469200D01*
X147000406Y-97354985D01*
X146964400Y-97536000D01*
X147030138Y-97866485D01*
X147118342Y-97998491D01*
X147039891Y-98050911D01*
X145980002Y-99110800D01*
X142313905Y-99110800D01*
X142337494Y-99053990D01*
X142337704Y-98813067D01*
X142245702Y-98590404D01*
X142075493Y-98419897D01*
X141852990Y-98327506D01*
X141612067Y-98327296D01*
X141389404Y-98419298D01*
X141332803Y-98475800D01*
X138956298Y-98475800D01*
X138900493Y-98419897D01*
X138677990Y-98327506D01*
X138437067Y-98327296D01*
X138214404Y-98419298D01*
X138043897Y-98589507D01*
X137951506Y-98812010D01*
X137951296Y-99052933D01*
X137975206Y-99110800D01*
X133496198Y-99110800D01*
X132868109Y-98482711D01*
X132719783Y-98383602D01*
X132544820Y-98348800D01*
X132081387Y-98348800D01*
X132156485Y-98333862D01*
X132436657Y-98146657D01*
X132623862Y-97866485D01*
X132689600Y-97536000D01*
X132653594Y-97354985D01*
X133539379Y-96469200D01*
X136760702Y-96469200D01*
X136816507Y-96525103D01*
G36*
X146081602Y-95554800D02*
X137559298Y-95554800D01*
X137503493Y-95498897D01*
X137280990Y-95406506D01*
X137040067Y-95406296D01*
X136817404Y-95498298D01*
X136760803Y-95554800D01*
X133638437Y-95554800D01*
X133871481Y-95321756D01*
X145848558Y-95321756D01*
X146081602Y-95554800D01*
X146081602Y-95554800D01*
G37*
X146081602Y-95554800D02*
X137559298Y-95554800D01*
X137503493Y-95498897D01*
X137280990Y-95406506D01*
X137040067Y-95406296D01*
X136817404Y-95498298D01*
X136760803Y-95554800D01*
X133638437Y-95554800D01*
X133871481Y-95321756D01*
X145848558Y-95321756D01*
X146081602Y-95554800D01*
G36*
X141083697Y-93104530D02*
X141306200Y-93196921D01*
X141547123Y-93197131D01*
X141769786Y-93105129D01*
X141826387Y-93048627D01*
X147205296Y-93048627D01*
X147217343Y-93066657D01*
X147497515Y-93253862D01*
X147572613Y-93268800D01*
X132589387Y-93268800D01*
X132664485Y-93253862D01*
X132944657Y-93066657D01*
X132956704Y-93048627D01*
X141027892Y-93048627D01*
X141083697Y-93104530D01*
X141083697Y-93104530D01*
G37*
X141083697Y-93104530D02*
X141306200Y-93196921D01*
X141547123Y-93197131D01*
X141769786Y-93105129D01*
X141826387Y-93048627D01*
X147205296Y-93048627D01*
X147217343Y-93066657D01*
X147497515Y-93253862D01*
X147572613Y-93268800D01*
X132589387Y-93268800D01*
X132664485Y-93253862D01*
X132944657Y-93066657D01*
X132956704Y-93048627D01*
X141027892Y-93048627D01*
X141083697Y-93104530D01*
G36*
X147217343Y-91845343D02*
X147030138Y-92125515D01*
X147028405Y-92134227D01*
X141826488Y-92134227D01*
X141770683Y-92078324D01*
X141548180Y-91985933D01*
X141307257Y-91985723D01*
X141084594Y-92077725D01*
X141027993Y-92134227D01*
X133133595Y-92134227D01*
X133131862Y-92125515D01*
X132944657Y-91845343D01*
X132684900Y-91671779D01*
X147477100Y-91671779D01*
X147217343Y-91845343D01*
X147217343Y-91845343D01*
G37*
X147217343Y-91845343D02*
X147030138Y-92125515D01*
X147028405Y-92134227D01*
X141826488Y-92134227D01*
X141770683Y-92078324D01*
X141548180Y-91985933D01*
X141307257Y-91985723D01*
X141084594Y-92077725D01*
X141027993Y-92134227D01*
X133133595Y-92134227D01*
X133131862Y-92125515D01*
X132944657Y-91845343D01*
X132684900Y-91671779D01*
X147477100Y-91671779D01*
X147217343Y-91845343D01*
G36*
X141494542Y-90419099D02*
X141717045Y-90511490D01*
X141957968Y-90511700D01*
X142180631Y-90419698D01*
X142237232Y-90363196D01*
X147108122Y-90363196D01*
X147217343Y-90526657D01*
X147497515Y-90713862D01*
X147716288Y-90757379D01*
X132445712Y-90757379D01*
X132664485Y-90713862D01*
X132944657Y-90526657D01*
X133053878Y-90363196D01*
X141438737Y-90363196D01*
X141494542Y-90419099D01*
X141494542Y-90419099D01*
G37*
X141494542Y-90419099D02*
X141717045Y-90511490D01*
X141957968Y-90511700D01*
X142180631Y-90419698D01*
X142237232Y-90363196D01*
X147108122Y-90363196D01*
X147217343Y-90526657D01*
X147497515Y-90713862D01*
X147716288Y-90757379D01*
X132445712Y-90757379D01*
X132664485Y-90713862D01*
X132944657Y-90526657D01*
X133053878Y-90363196D01*
X141438737Y-90363196D01*
X141494542Y-90419099D01*
G36*
X148325444Y-88906128D02*
X148405687Y-88959745D01*
X148312870Y-89052400D01*
X147828000Y-89052400D01*
X147497515Y-89118138D01*
X147217343Y-89305343D01*
X147121491Y-89448796D01*
X142237333Y-89448796D01*
X142181528Y-89392893D01*
X141959025Y-89300502D01*
X141718102Y-89300292D01*
X141495439Y-89392294D01*
X141438838Y-89448796D01*
X133040509Y-89448796D01*
X132944657Y-89305343D01*
X132664485Y-89118138D01*
X132334000Y-89052400D01*
X131722045Y-89052400D01*
X131629051Y-88959244D01*
X131711594Y-88904090D01*
X131828956Y-88786728D01*
X148206044Y-88786728D01*
X148325444Y-88906128D01*
X148325444Y-88906128D01*
G37*
X148325444Y-88906128D02*
X148405687Y-88959745D01*
X148312870Y-89052400D01*
X147828000Y-89052400D01*
X147497515Y-89118138D01*
X147217343Y-89305343D01*
X147121491Y-89448796D01*
X142237333Y-89448796D01*
X142181528Y-89392893D01*
X141959025Y-89300502D01*
X141718102Y-89300292D01*
X141495439Y-89392294D01*
X141438838Y-89448796D01*
X133040509Y-89448796D01*
X132944657Y-89305343D01*
X132664485Y-89118138D01*
X132334000Y-89052400D01*
X131722045Y-89052400D01*
X131629051Y-88959244D01*
X131711594Y-88904090D01*
X131828956Y-88786728D01*
X148206044Y-88786728D01*
X148325444Y-88906128D01*
G36*
X137454600Y-84406179D02*
X137602926Y-84505288D01*
X137777889Y-84540090D01*
X143237995Y-84540090D01*
X143412958Y-84505288D01*
X143561284Y-84406179D01*
X143879065Y-84088399D01*
X147422294Y-84088399D01*
X147217343Y-84225343D01*
X147030138Y-84505515D01*
X146964400Y-84836000D01*
X147000406Y-85017016D01*
X145759032Y-86258390D01*
X138914719Y-86258390D01*
X138620829Y-85964501D01*
X138472503Y-85865392D01*
X138309174Y-85832904D01*
X138323833Y-85797601D01*
X138324043Y-85556678D01*
X138232041Y-85334015D01*
X138061832Y-85163508D01*
X137839329Y-85071117D01*
X137598406Y-85070907D01*
X137375743Y-85162909D01*
X137319142Y-85219411D01*
X136346633Y-85219411D01*
X136290828Y-85163508D01*
X136068325Y-85071117D01*
X135827402Y-85070907D01*
X135604739Y-85162909D01*
X135434232Y-85333118D01*
X135341841Y-85555621D01*
X135341631Y-85796544D01*
X135355698Y-85830589D01*
X134006315Y-85830589D01*
X133166761Y-84991035D01*
X133197600Y-84836000D01*
X133131862Y-84505515D01*
X132944657Y-84225343D01*
X132664485Y-84038138D01*
X132588694Y-84023062D01*
X132762963Y-83988398D01*
X132911289Y-83889289D01*
X133100600Y-83699979D01*
X136748400Y-83699979D01*
X137454600Y-84406179D01*
X137454600Y-84406179D01*
G37*
X137454600Y-84406179D02*
X137602926Y-84505288D01*
X137777889Y-84540090D01*
X143237995Y-84540090D01*
X143412958Y-84505288D01*
X143561284Y-84406179D01*
X143879065Y-84088399D01*
X147422294Y-84088399D01*
X147217343Y-84225343D01*
X147030138Y-84505515D01*
X146964400Y-84836000D01*
X147000406Y-85017016D01*
X145759032Y-86258390D01*
X138914719Y-86258390D01*
X138620829Y-85964501D01*
X138472503Y-85865392D01*
X138309174Y-85832904D01*
X138323833Y-85797601D01*
X138324043Y-85556678D01*
X138232041Y-85334015D01*
X138061832Y-85163508D01*
X137839329Y-85071117D01*
X137598406Y-85070907D01*
X137375743Y-85162909D01*
X137319142Y-85219411D01*
X136346633Y-85219411D01*
X136290828Y-85163508D01*
X136068325Y-85071117D01*
X135827402Y-85070907D01*
X135604739Y-85162909D01*
X135434232Y-85333118D01*
X135341841Y-85555621D01*
X135341631Y-85796544D01*
X135355698Y-85830589D01*
X134006315Y-85830589D01*
X133166761Y-84991035D01*
X133197600Y-84836000D01*
X133131862Y-84505515D01*
X132944657Y-84225343D01*
X132664485Y-84038138D01*
X132588694Y-84023062D01*
X132762963Y-83988398D01*
X132911289Y-83889289D01*
X133100600Y-83699979D01*
X136748400Y-83699979D01*
X137454600Y-84406179D01*
G36*
X152474511Y-82222885D02*
X152401396Y-82296000D01*
X152474511Y-82369115D01*
X151838115Y-83005511D01*
X151765000Y-82932396D01*
X151691885Y-83005511D01*
X151055489Y-82369115D01*
X151128604Y-82296000D01*
X151055489Y-82222885D01*
X151691885Y-81586489D01*
X151765000Y-81659604D01*
X151838115Y-81586489D01*
X152474511Y-82222885D01*
X152474511Y-82222885D01*
G37*
X152474511Y-82222885D02*
X152401396Y-82296000D01*
X152474511Y-82369115D01*
X151838115Y-83005511D01*
X151765000Y-82932396D01*
X151691885Y-83005511D01*
X151055489Y-82369115D01*
X151128604Y-82296000D01*
X151055489Y-82222885D01*
X151691885Y-81586489D01*
X151765000Y-81659604D01*
X151838115Y-81586489D01*
X152474511Y-82222885D01*
G36*
X137839874Y-72067040D02*
X137864670Y-72198817D01*
X137942550Y-72319847D01*
X138061382Y-72401041D01*
X138202440Y-72429606D01*
X138902902Y-72429606D01*
X138913348Y-72440052D01*
X139029778Y-72517849D01*
X138915888Y-72593948D01*
X138902902Y-72606934D01*
X138202440Y-72606934D01*
X138070663Y-72631730D01*
X137949633Y-72709610D01*
X137868439Y-72828442D01*
X137839874Y-72969500D01*
X137839874Y-73858769D01*
X137759311Y-73778206D01*
X137535257Y-73685400D01*
X137312400Y-73685400D01*
X137160000Y-73837800D01*
X137160000Y-74549000D01*
X137414000Y-74549000D01*
X137414000Y-75057000D01*
X137160000Y-75057000D01*
X137160000Y-75158601D01*
X136652000Y-75158601D01*
X136652000Y-75057000D01*
X135940800Y-75057000D01*
X135839199Y-75158601D01*
X134651126Y-75158601D01*
X134340600Y-74848074D01*
X134340600Y-74144714D01*
X134596715Y-73888600D01*
X135942295Y-73888600D01*
X135881206Y-73949689D01*
X135788400Y-74173743D01*
X135788400Y-74396600D01*
X135940800Y-74549000D01*
X136652000Y-74549000D01*
X136652000Y-73837800D01*
X136587203Y-73773003D01*
X136792757Y-73635657D01*
X137051389Y-73377026D01*
X137392640Y-73377026D01*
X137524417Y-73352230D01*
X137645447Y-73274350D01*
X137726641Y-73155518D01*
X137755206Y-73014460D01*
X137755206Y-72014460D01*
X137749399Y-71983600D01*
X137839874Y-71983600D01*
X137839874Y-72067040D01*
X137839874Y-72067040D01*
G37*
X137839874Y-72067040D02*
X137864670Y-72198817D01*
X137942550Y-72319847D01*
X138061382Y-72401041D01*
X138202440Y-72429606D01*
X138902902Y-72429606D01*
X138913348Y-72440052D01*
X139029778Y-72517849D01*
X138915888Y-72593948D01*
X138902902Y-72606934D01*
X138202440Y-72606934D01*
X138070663Y-72631730D01*
X137949633Y-72709610D01*
X137868439Y-72828442D01*
X137839874Y-72969500D01*
X137839874Y-73858769D01*
X137759311Y-73778206D01*
X137535257Y-73685400D01*
X137312400Y-73685400D01*
X137160000Y-73837800D01*
X137160000Y-74549000D01*
X137414000Y-74549000D01*
X137414000Y-75057000D01*
X137160000Y-75057000D01*
X137160000Y-75158601D01*
X136652000Y-75158601D01*
X136652000Y-75057000D01*
X135940800Y-75057000D01*
X135839199Y-75158601D01*
X134651126Y-75158601D01*
X134340600Y-74848074D01*
X134340600Y-74144714D01*
X134596715Y-73888600D01*
X135942295Y-73888600D01*
X135881206Y-73949689D01*
X135788400Y-74173743D01*
X135788400Y-74396600D01*
X135940800Y-74549000D01*
X136652000Y-74549000D01*
X136652000Y-73837800D01*
X136587203Y-73773003D01*
X136792757Y-73635657D01*
X137051389Y-73377026D01*
X137392640Y-73377026D01*
X137524417Y-73352230D01*
X137645447Y-73274350D01*
X137726641Y-73155518D01*
X137755206Y-73014460D01*
X137755206Y-72014460D01*
X137749399Y-71983600D01*
X137839874Y-71983600D01*
X137839874Y-72067040D01*
M02*
