G04 #@! TF.FileFunction,Paste,Top*
%FSLAX46Y46*%
G04 Gerber Fmt 4.6, Leading zero omitted, Abs format (unit mm)*
G04 Created by KiCad (PCBNEW 4.0.1-3.201512221401+6198~38~ubuntu15.10.1-stable) date Thu 31 Mar 2016 03:59:41 PM EEST*
%MOMM*%
G01*
G04 APERTURE LIST*
%ADD10C,0.100000*%
%ADD11C,0.254000*%
%ADD12R,1.016000X1.016000*%
%ADD13R,0.500000X0.550000*%
%ADD14R,0.550000X0.500000*%
%ADD15R,1.168400X1.422400*%
%ADD16R,2.000000X0.600000*%
G04 APERTURE END LIST*
D10*
D11*
X125000000Y-120000000D02*
X125000000Y-70000000D01*
X155000000Y-120000000D02*
X125000000Y-120000000D01*
X155000000Y-70000000D02*
X155000000Y-120000000D01*
X125000000Y-70000000D02*
X155000000Y-70000000D01*
D12*
X146939000Y-89916000D03*
X146939000Y-88138000D03*
D13*
X142748000Y-106045000D03*
X141732000Y-106045000D03*
D14*
X144653000Y-106045000D03*
X144653000Y-105029000D03*
X145796000Y-106045000D03*
X145796000Y-105029000D03*
X134239000Y-106045000D03*
X134239000Y-105029000D03*
D13*
X146431000Y-101854000D03*
X147447000Y-101854000D03*
X146431000Y-103124000D03*
X147447000Y-103124000D03*
X147447000Y-86741000D03*
X146431000Y-86741000D03*
D12*
X146939000Y-94488000D03*
X146939000Y-92710000D03*
D13*
X147447000Y-91313000D03*
X146431000Y-91313000D03*
X146431000Y-95885000D03*
X147447000Y-95885000D03*
X146431000Y-100584000D03*
X147447000Y-100584000D03*
D15*
X146939000Y-83058000D03*
X146939000Y-85090000D03*
D13*
X146431000Y-98044000D03*
X147447000Y-98044000D03*
D14*
X135382000Y-105029000D03*
X135382000Y-106045000D03*
D13*
X137287000Y-106045000D03*
X138303000Y-106045000D03*
D15*
X146939000Y-80772000D03*
X146939000Y-78740000D03*
D13*
X146431000Y-99314000D03*
X147447000Y-99314000D03*
D12*
X138684000Y-104775000D03*
X136906000Y-104775000D03*
X141351000Y-104775000D03*
X143129000Y-104775000D03*
D14*
X146558000Y-72136000D03*
X146558000Y-73152000D03*
D16*
X135254000Y-72009000D03*
X135254000Y-73279000D03*
X135254000Y-74549000D03*
X135254000Y-75819000D03*
X135254000Y-77089000D03*
X135254000Y-78359000D03*
X135254000Y-79629000D03*
X135254000Y-80899000D03*
X135254000Y-82169000D03*
X135254000Y-83439000D03*
X144654000Y-83439000D03*
X144654000Y-82169000D03*
X144654000Y-80899000D03*
X144654000Y-79629000D03*
X144654000Y-78359000D03*
X144654000Y-77089000D03*
X144654000Y-75819000D03*
X144654000Y-74549000D03*
X144654000Y-73279000D03*
X144654000Y-72009000D03*
X135255000Y-86614000D03*
X135255000Y-87884000D03*
X135255000Y-89154000D03*
X135255000Y-90424000D03*
X135255000Y-91694000D03*
X135255000Y-92964000D03*
X135255000Y-94234000D03*
X135255000Y-95504000D03*
X135255000Y-96774000D03*
X135255000Y-98044000D03*
X135255000Y-99314000D03*
X135255000Y-100584000D03*
X135255000Y-101854000D03*
X135255000Y-103124000D03*
X144653000Y-103124000D03*
X144653000Y-101854000D03*
X144653000Y-100584000D03*
X144653000Y-99314000D03*
X144653000Y-98044000D03*
X144653000Y-96774000D03*
X144653000Y-95504000D03*
X144653000Y-94234000D03*
X144653000Y-92964000D03*
X144653000Y-91694000D03*
X144653000Y-90424000D03*
X144653000Y-89154000D03*
X144653000Y-87884000D03*
X144653000Y-86614000D03*
M02*
