G04 #@! TF.FileFunction,Copper,L1,Top,Signal*
%FSLAX46Y46*%
G04 Gerber Fmt 4.6, Leading zero omitted, Abs format (unit mm)*
G04 Created by KiCad (PCBNEW 4.0.1-3.201512221401+6198~38~ubuntu15.10.1-stable) date Thu 31 Mar 2016 03:59:57 PM EEST*
%MOMM*%
G01*
G04 APERTURE LIST*
%ADD10C,0.100000*%
%ADD11R,1.750000X1.750000*%
%ADD12C,1.800000*%
%ADD13R,1.016000X1.016000*%
%ADD14R,0.500000X0.550000*%
%ADD15R,0.550000X0.500000*%
%ADD16R,1.270000X1.524000*%
%ADD17C,2.500000*%
%ADD18C,2.000000*%
%ADD19R,2.000000X0.600000*%
%ADD20R,1.778000X1.778000*%
%ADD21C,1.778000*%
%ADD22C,1.000000*%
%ADD23C,0.500000*%
%ADD24C,1.016000*%
%ADD25C,0.508000*%
%ADD26C,0.254000*%
%ADD27C,0.203200*%
%ADD28C,1.270000*%
G04 APERTURE END LIST*
D10*
D11*
X149225000Y-74676000D03*
D12*
X151765000Y-74676000D03*
X149225000Y-77216000D03*
X151765000Y-77216000D03*
X149225000Y-79756000D03*
X151765000Y-79756000D03*
X149225000Y-82296000D03*
X151765000Y-82296000D03*
X149225000Y-84836000D03*
X151765000Y-84836000D03*
X151765000Y-87376000D03*
X149225000Y-87376000D03*
X151765000Y-89916000D03*
X149225000Y-89916000D03*
X151765000Y-92456000D03*
X149225000Y-92456000D03*
X151765000Y-94996000D03*
X149225000Y-94996000D03*
X151765000Y-97536000D03*
X149225000Y-97536000D03*
X151765000Y-105156000D03*
X149225000Y-105156000D03*
X151765000Y-115316000D03*
X149225000Y-112776000D03*
X151765000Y-112776000D03*
X149225000Y-115316000D03*
X149225000Y-110236000D03*
X151765000Y-107696000D03*
X151765000Y-110236000D03*
X149225000Y-107696000D03*
X151765000Y-100076000D03*
X151765000Y-102616000D03*
X149225000Y-102616000D03*
X149225000Y-100076000D03*
D13*
X146939000Y-89916000D03*
X146939000Y-88138000D03*
D14*
X142748000Y-106045000D03*
X141732000Y-106045000D03*
D15*
X144653000Y-106045000D03*
X144653000Y-105029000D03*
X145796000Y-106045000D03*
X145796000Y-105029000D03*
X134239000Y-106045000D03*
X134239000Y-105029000D03*
D14*
X146431000Y-101854000D03*
X147447000Y-101854000D03*
X146431000Y-103124000D03*
X147447000Y-103124000D03*
X147447000Y-86741000D03*
X146431000Y-86741000D03*
D13*
X146939000Y-94488000D03*
X146939000Y-92710000D03*
D14*
X147447000Y-91313000D03*
X146431000Y-91313000D03*
X146431000Y-95885000D03*
X147447000Y-95885000D03*
X146431000Y-100584000D03*
X147447000Y-100584000D03*
D16*
X146939000Y-83058000D03*
X146939000Y-85090000D03*
D14*
X146431000Y-98044000D03*
X147447000Y-98044000D03*
D15*
X135382000Y-105029000D03*
X135382000Y-106045000D03*
D14*
X137287000Y-106045000D03*
X138303000Y-106045000D03*
D17*
X136500000Y-117000000D03*
X136500000Y-110000000D03*
X143500000Y-110000000D03*
D18*
X140000000Y-113500000D03*
D17*
X143500000Y-117000000D03*
D16*
X146939000Y-80772000D03*
X146939000Y-78740000D03*
D14*
X146431000Y-99314000D03*
X147447000Y-99314000D03*
D13*
X138684000Y-104775000D03*
X136906000Y-104775000D03*
X141351000Y-104775000D03*
X143129000Y-104775000D03*
D15*
X146558000Y-72136000D03*
X146558000Y-73152000D03*
D19*
X135254000Y-72009000D03*
X135254000Y-73279000D03*
X135254000Y-74549000D03*
X135254000Y-75819000D03*
X135254000Y-77089000D03*
X135254000Y-78359000D03*
X135254000Y-79629000D03*
X135254000Y-80899000D03*
X135254000Y-82169000D03*
X135254000Y-83439000D03*
X144654000Y-83439000D03*
X144654000Y-82169000D03*
X144654000Y-80899000D03*
X144654000Y-79629000D03*
X144654000Y-78359000D03*
X144654000Y-77089000D03*
X144654000Y-75819000D03*
X144654000Y-74549000D03*
X144654000Y-73279000D03*
X144654000Y-72009000D03*
D20*
X149225000Y-117856000D03*
D21*
X151765000Y-117856000D03*
D22*
X128270000Y-118110000D03*
X128270000Y-71755000D03*
X151765000Y-71755000D03*
D19*
X135255000Y-86614000D03*
X135255000Y-87884000D03*
X135255000Y-89154000D03*
X135255000Y-90424000D03*
X135255000Y-91694000D03*
X135255000Y-92964000D03*
X135255000Y-94234000D03*
X135255000Y-95504000D03*
X135255000Y-96774000D03*
X135255000Y-98044000D03*
X135255000Y-99314000D03*
X135255000Y-100584000D03*
X135255000Y-101854000D03*
X135255000Y-103124000D03*
X144653000Y-103124000D03*
X144653000Y-101854000D03*
X144653000Y-100584000D03*
X144653000Y-99314000D03*
X144653000Y-98044000D03*
X144653000Y-96774000D03*
X144653000Y-95504000D03*
X144653000Y-94234000D03*
X144653000Y-92964000D03*
X144653000Y-91694000D03*
X144653000Y-90424000D03*
X144653000Y-89154000D03*
X144653000Y-87884000D03*
X144653000Y-86614000D03*
D11*
X130810000Y-74676000D03*
D12*
X128270000Y-74676000D03*
X130810000Y-77216000D03*
X128270000Y-77216000D03*
X130810000Y-79756000D03*
X128270000Y-79756000D03*
X130810000Y-82296000D03*
X128270000Y-82296000D03*
X130810000Y-84836000D03*
X128270000Y-84836000D03*
X128270000Y-87376000D03*
X130810000Y-87376000D03*
X128270000Y-89916000D03*
X130810000Y-89916000D03*
X128270000Y-92456000D03*
X130810000Y-92456000D03*
X128270000Y-94996000D03*
X130810000Y-94996000D03*
X128270000Y-97536000D03*
X130810000Y-97536000D03*
X128270000Y-105156000D03*
X130810000Y-105156000D03*
X128270000Y-115316000D03*
X130810000Y-112776000D03*
X128270000Y-112776000D03*
X130810000Y-115316000D03*
X130810000Y-110236000D03*
X128270000Y-107696000D03*
X128270000Y-110236000D03*
X130810000Y-107696000D03*
X128270000Y-100076000D03*
X128270000Y-102616000D03*
X130810000Y-102616000D03*
X130810000Y-100076000D03*
D23*
X133604000Y-93146237D03*
X142240000Y-93146237D03*
X142554864Y-89165767D03*
X133605891Y-90620043D03*
X142113000Y-90631190D03*
X133604000Y-91821000D03*
X142113000Y-91821000D03*
X136017000Y-84328000D03*
X135254000Y-84327000D03*
X134620000Y-84328000D03*
X143764000Y-85344000D03*
X144272000Y-84836000D03*
X144780000Y-85344000D03*
X145288000Y-84836000D03*
X137672001Y-97785999D03*
X133477000Y-98806000D03*
X133477000Y-98171000D03*
X133477000Y-97536000D03*
X133477000Y-96774000D03*
X138684000Y-95457190D03*
X137922000Y-96774000D03*
X146939000Y-89154000D03*
X146177000Y-89154000D03*
X142875000Y-97282000D03*
X146050000Y-96774000D03*
X142875000Y-96774000D03*
X143383000Y-96774000D03*
X147447000Y-99949000D03*
X144018000Y-103759000D03*
X144653000Y-103759000D03*
X143383000Y-103966190D03*
X142875000Y-103966190D03*
X142875000Y-103124000D03*
X143383000Y-103124000D03*
X143891000Y-105537000D03*
X143383000Y-105537000D03*
X142875000Y-105537000D03*
X144145000Y-106045000D03*
X143256000Y-106045000D03*
X136114201Y-105537000D03*
X137160000Y-105537000D03*
X136652000Y-105537000D03*
X136779000Y-106045000D03*
X135890000Y-106045000D03*
D22*
X154130926Y-116840000D03*
X154130926Y-114300000D03*
X154130926Y-111760000D03*
X154130926Y-109220000D03*
X154130926Y-106680000D03*
X154130926Y-104140000D03*
X154130926Y-101600000D03*
X154130926Y-99060000D03*
X154130926Y-96520000D03*
X154130926Y-93980000D03*
X154130926Y-91440000D03*
X154130926Y-88900000D03*
X154130926Y-86360000D03*
X154130926Y-83820000D03*
X154130926Y-81280000D03*
X154130926Y-78740000D03*
X154130926Y-76200000D03*
X154108848Y-72784277D03*
X154130926Y-70815954D03*
X154130926Y-74663083D03*
D23*
X154051000Y-119126000D03*
X130045460Y-119382540D03*
X131445000Y-119382540D03*
X132715000Y-119382540D03*
X133985000Y-119382540D03*
X135255000Y-119382540D03*
X136525000Y-119382540D03*
X137795000Y-119382540D03*
X139065000Y-119382540D03*
X140335000Y-119382540D03*
X141605000Y-119382540D03*
X142875000Y-119382540D03*
X144145000Y-119382540D03*
X145415000Y-119382540D03*
X146685000Y-119382540D03*
X147955000Y-119382540D03*
X149225000Y-119382540D03*
X150495000Y-119382540D03*
X152958094Y-119382540D03*
X151765000Y-119382540D03*
D22*
X126111000Y-117348000D03*
X126111000Y-119126000D03*
X126111000Y-77216000D03*
X126111000Y-72771000D03*
X126111000Y-74759254D03*
X126111000Y-70866000D03*
D23*
X150796398Y-73406000D03*
X149994999Y-71755000D03*
X149994999Y-72604601D03*
X130040001Y-72907761D03*
X130040001Y-71755000D03*
X131073288Y-70611630D03*
X132080000Y-70609839D03*
X130112700Y-70609839D03*
X133350000Y-70609839D03*
X134620000Y-70609839D03*
X135890000Y-70609839D03*
X137160000Y-70609839D03*
X138430000Y-70609839D03*
X139700000Y-70609839D03*
X140970000Y-70609799D03*
X142713801Y-70609839D03*
X144272000Y-70609839D03*
X146050000Y-70609839D03*
X147320000Y-70609839D03*
X148590000Y-70609839D03*
X147574000Y-73660000D03*
X147066000Y-73660000D03*
X146558000Y-73660000D03*
X147574000Y-73152000D03*
X147066000Y-73152000D03*
X149965978Y-70609839D03*
X136655658Y-74039089D03*
X137160000Y-74041000D03*
X137668000Y-74295000D03*
X137668000Y-74803000D03*
X133858000Y-71374000D03*
X133858000Y-72009000D03*
D22*
X126111000Y-115316000D03*
X126111000Y-79756000D03*
X126111000Y-82296000D03*
X126111000Y-84836000D03*
X126111000Y-87376000D03*
X126111000Y-89916000D03*
X126111000Y-92456000D03*
X126111000Y-94996000D03*
X126111000Y-97536000D03*
X126111000Y-100076000D03*
X126111000Y-102616000D03*
X126111000Y-105156000D03*
X126111000Y-107696000D03*
X126111000Y-110236000D03*
X126111000Y-112776000D03*
D23*
X148082000Y-99314000D03*
X152781000Y-106426000D03*
X153135372Y-101388105D03*
X153162000Y-81026000D03*
X153162000Y-78486000D03*
X141838035Y-89905996D03*
X141427190Y-92591427D03*
X139319000Y-94280820D03*
X137160000Y-96012000D03*
X152400000Y-83566000D03*
X147955000Y-80772000D03*
X138124750Y-82824857D03*
X139846838Y-74935783D03*
X140993441Y-82972860D03*
X141732000Y-98933000D03*
X138557000Y-98933000D03*
X134239000Y-109093000D03*
X144653000Y-104521000D03*
X139319000Y-103251000D03*
X137718339Y-85676611D03*
X135947335Y-85676611D03*
X136608699Y-87249000D03*
X137718321Y-87249000D03*
X138124750Y-83528070D03*
X142367000Y-83528070D03*
X138557000Y-81661000D03*
X140970000Y-81661000D03*
X140573566Y-80371966D03*
X138909305Y-80378343D03*
D24*
X154130926Y-82289512D02*
X154130926Y-83820000D01*
X153114926Y-82296000D02*
X154124438Y-82296000D01*
D25*
X154124438Y-82296000D02*
X154130926Y-82289512D01*
D24*
X154130926Y-82289512D02*
X154130926Y-81280000D01*
D25*
X146939000Y-89916000D02*
X146923909Y-89931091D01*
X146923909Y-89931091D02*
X146923909Y-90333986D01*
X146923909Y-90333986D02*
X147447000Y-90857077D01*
X147447000Y-90857077D02*
X147447000Y-91313000D01*
X147447000Y-89154000D02*
X146939000Y-89154000D01*
X147942526Y-89154000D02*
X147447000Y-89154000D01*
X147447000Y-89154000D02*
X147447000Y-91313000D01*
X147828000Y-90932000D02*
X147447000Y-91313000D01*
X147828000Y-89304342D02*
X147828000Y-90932000D01*
X147942526Y-89154000D02*
X147942526Y-89189816D01*
X147942526Y-89189816D02*
X147828000Y-89304342D01*
X147994799Y-88733201D02*
X147994799Y-89101727D01*
X147994799Y-89101727D02*
X147942526Y-89154000D01*
D26*
X147447000Y-87122000D02*
X147994799Y-87669799D01*
X147994799Y-87669799D02*
X147994799Y-88733201D01*
X147447000Y-86741000D02*
X147447000Y-87122000D01*
X147447000Y-86741000D02*
X147447000Y-86487000D01*
X147447000Y-86487000D02*
X148022170Y-85911830D01*
X148022170Y-85911830D02*
X148395830Y-85911830D01*
X148395830Y-85911830D02*
X148590000Y-86106000D01*
D25*
X142875000Y-97282000D02*
X146207451Y-97282000D01*
X146207451Y-97282000D02*
X146426612Y-97062839D01*
X146426612Y-97062839D02*
X146426612Y-96778388D01*
X146426612Y-96778388D02*
X146431000Y-96774000D01*
X147066000Y-96774000D02*
X146431000Y-96774000D01*
X146431000Y-96774000D02*
X146050000Y-96774000D01*
D27*
X147447000Y-99314000D02*
X147447000Y-99167851D01*
X147447000Y-99167851D02*
X148062851Y-98552000D01*
X148276781Y-98552000D02*
X148570580Y-98845799D01*
X148062851Y-98552000D02*
X148276781Y-98552000D01*
D26*
X147447000Y-99314000D02*
X148102379Y-99314000D01*
X153423820Y-99060000D02*
X154130926Y-99060000D01*
X148102379Y-99314000D02*
X148570580Y-98845799D01*
X148570580Y-98845799D02*
X153209619Y-98845799D01*
X153209619Y-98845799D02*
X153423820Y-99060000D01*
D27*
X142875000Y-99652530D02*
X142875000Y-98679000D01*
X142875000Y-98679000D02*
X142875000Y-97635553D01*
X147447000Y-99314000D02*
X147447000Y-99256358D01*
X147447000Y-99256358D02*
X146869642Y-98679000D01*
X146869642Y-98679000D02*
X142875000Y-98679000D01*
X147447000Y-99949000D02*
X143171470Y-99949000D01*
X143171470Y-99949000D02*
X142875000Y-99652530D01*
X142875000Y-97635553D02*
X142875000Y-97282000D01*
X147447000Y-100584000D02*
X147447000Y-100609000D01*
X143100432Y-101249199D02*
X142875815Y-101473815D01*
X147447000Y-100609000D02*
X146806801Y-101249199D01*
X146806801Y-101249199D02*
X143100432Y-101249199D01*
X142875815Y-101473815D02*
X142875000Y-101473000D01*
X142875000Y-101473000D02*
X142875000Y-103124000D01*
D25*
X142240000Y-92357579D02*
X142240000Y-93146237D01*
X142240000Y-93146237D02*
X142240000Y-93091000D01*
X142113000Y-91821000D02*
X142113000Y-92230579D01*
X142113000Y-92230579D02*
X142240000Y-92357579D01*
X142554864Y-88812214D02*
X142554864Y-89165767D01*
X142554864Y-86553136D02*
X142554864Y-88812214D01*
X142554864Y-89519320D02*
X142554864Y-89165767D01*
X142113000Y-90631190D02*
X142554864Y-90189326D01*
X143764000Y-85344000D02*
X142554864Y-86553136D01*
X142554864Y-90189326D02*
X142554864Y-89519320D01*
X133604000Y-91821000D02*
X133604000Y-90621934D01*
X133604000Y-90621934D02*
X133605891Y-90620043D01*
X142113000Y-90631190D02*
X142113000Y-90678000D01*
X133604000Y-91821000D02*
X133604000Y-96118721D01*
X133486640Y-96236081D02*
X133486640Y-96764360D01*
X133604000Y-96118721D02*
X133486640Y-96236081D01*
X133486640Y-96764360D02*
X133477000Y-96774000D01*
X133477000Y-96774000D02*
X133477000Y-96349835D01*
X133477000Y-96349835D02*
X133393165Y-96266000D01*
X133393165Y-96266000D02*
X132080000Y-96266000D01*
X142113000Y-90678000D02*
X142113000Y-91821000D01*
X136779000Y-106045000D02*
X136779000Y-109721000D01*
X136779000Y-109721000D02*
X136500000Y-110000000D01*
X133858000Y-71374000D02*
X133858000Y-71117839D01*
X133858000Y-71117839D02*
X133350000Y-70609839D01*
X137160000Y-74041000D02*
X137160000Y-72407000D01*
X137160000Y-72407000D02*
X136762000Y-72009000D01*
X136762000Y-72009000D02*
X135254000Y-72009000D01*
X135254000Y-83439000D02*
X135982710Y-83439000D01*
X135982710Y-83439000D02*
X136017000Y-83473290D01*
X136017000Y-83473290D02*
X136017000Y-84328000D01*
X135254000Y-84327000D02*
X136016000Y-84327000D01*
X136016000Y-84327000D02*
X136017000Y-84328000D01*
X134620000Y-84328000D02*
X135253000Y-84328000D01*
X135253000Y-84328000D02*
X135254000Y-84327000D01*
X135254000Y-83439000D02*
X135254000Y-84327000D01*
X135254000Y-83439000D02*
X134620000Y-83439000D01*
X134620000Y-83439000D02*
X134620000Y-84328000D01*
D27*
X144272000Y-84836000D02*
X143764000Y-85344000D01*
X144780000Y-85344000D02*
X144272000Y-84836000D01*
X145288000Y-84836000D02*
X144780000Y-85344000D01*
X145958801Y-84165199D02*
X145288000Y-84836000D01*
X146558000Y-73660000D02*
X145958801Y-74259199D01*
X145958801Y-74259199D02*
X145958801Y-84165199D01*
D28*
X151765000Y-82296000D02*
X153114926Y-82296000D01*
D25*
X137922000Y-96774000D02*
X137910991Y-96785009D01*
X137910991Y-97547009D02*
X137672001Y-97785999D01*
X137910991Y-96785009D02*
X137910991Y-97547009D01*
X133477000Y-98171000D02*
X133477000Y-98806000D01*
X133477000Y-97536000D02*
X133477000Y-98171000D01*
X133477000Y-96774000D02*
X133477000Y-97536000D01*
D27*
X132080000Y-96266000D02*
X127381000Y-96266000D01*
X127381000Y-96266000D02*
X126111000Y-94996000D01*
X147447000Y-103886000D02*
X152659837Y-103886000D01*
X152659837Y-103886000D02*
X152913837Y-104140000D01*
X152913837Y-104140000D02*
X154130926Y-104140000D01*
D25*
X143146000Y-73279000D02*
X142748000Y-73279000D01*
X144654000Y-73279000D02*
X143146000Y-73279000D01*
X137922000Y-96266000D02*
X138684000Y-95457190D01*
X137922000Y-96774000D02*
X137922000Y-96266000D01*
X146939000Y-89154000D02*
X146939000Y-89916000D01*
X146530553Y-89154000D02*
X146939000Y-89154000D01*
X146177000Y-89154000D02*
X146530553Y-89154000D01*
X142875000Y-97282000D02*
X143383000Y-96774000D01*
X142875000Y-96774000D02*
X142875000Y-97282000D01*
X146050000Y-96774000D02*
X144653000Y-96774000D01*
X143383000Y-96774000D02*
X142875000Y-96774000D01*
X144653000Y-96774000D02*
X143383000Y-96774000D01*
X147447000Y-99949000D02*
X147447000Y-100584000D01*
X147447000Y-99314000D02*
X147447000Y-99949000D01*
X145034000Y-103124000D02*
X145669000Y-103759000D01*
X145669000Y-103759000D02*
X146050000Y-104140000D01*
X144653000Y-103759000D02*
X145669000Y-103759000D01*
X144018000Y-103759000D02*
X144018000Y-103124000D01*
X144018000Y-103124000D02*
X144653000Y-103124000D01*
X144018000Y-103759000D02*
X143383000Y-103759000D01*
X144653000Y-103759000D02*
X144018000Y-103759000D01*
X143383000Y-103966190D02*
X143383000Y-103759000D01*
X143383000Y-103759000D02*
X143383000Y-103124000D01*
X144653000Y-103124000D02*
X144653000Y-103759000D01*
X142875000Y-103966190D02*
X142875000Y-103124000D01*
X143383000Y-103966190D02*
X142875000Y-103966190D01*
X143383000Y-104521000D02*
X143383000Y-103966190D01*
X143383000Y-104013000D02*
X143383000Y-103966190D01*
X143129000Y-104775000D02*
X143383000Y-104521000D01*
X142875000Y-104521000D02*
X142875000Y-103966190D01*
X142875000Y-104013000D02*
X142875000Y-103966190D01*
X143383000Y-103124000D02*
X142875000Y-103124000D01*
X144653000Y-103124000D02*
X143383000Y-103124000D01*
X136114201Y-105537000D02*
X135606201Y-106045000D01*
X135606201Y-106045000D02*
X135382000Y-106045000D01*
X136114201Y-105537000D02*
X136144000Y-105537000D01*
X136144000Y-105537000D02*
X136906000Y-104775000D01*
X142875000Y-105537000D02*
X142875000Y-105918000D01*
X142875000Y-105918000D02*
X142748000Y-106045000D01*
X143891000Y-105537000D02*
X144399000Y-106045000D01*
X144399000Y-106045000D02*
X144653000Y-106045000D01*
X144145000Y-106045000D02*
X143891000Y-106045000D01*
X143891000Y-106045000D02*
X143256000Y-106045000D01*
X143891000Y-105537000D02*
X143891000Y-106045000D01*
X143383000Y-105537000D02*
X143891000Y-105537000D01*
X143383000Y-105537000D02*
X143383000Y-105918000D01*
X143383000Y-105918000D02*
X143256000Y-106045000D01*
X143383000Y-105537000D02*
X142875000Y-105537000D01*
X143383000Y-105029000D02*
X143383000Y-105537000D01*
X143129000Y-104775000D02*
X143383000Y-105029000D01*
X142875000Y-105029000D02*
X142875000Y-105537000D01*
X143129000Y-104775000D02*
X142875000Y-105029000D01*
X144653000Y-106045000D02*
X144145000Y-106045000D01*
X142748000Y-106045000D02*
X143256000Y-106045000D01*
X136114201Y-105537000D02*
X136114201Y-105820799D01*
X136114201Y-105820799D02*
X135890000Y-106045000D01*
X136652000Y-105537000D02*
X136114201Y-105537000D01*
X137160000Y-105537000D02*
X137160000Y-105918000D01*
X137160000Y-105918000D02*
X137287000Y-106045000D01*
X136652000Y-105537000D02*
X136652000Y-105918000D01*
X136652000Y-105918000D02*
X136779000Y-106045000D01*
X137160000Y-105537000D02*
X136652000Y-105537000D01*
X137160000Y-105029000D02*
X137160000Y-105537000D01*
X136906000Y-104775000D02*
X137160000Y-105029000D01*
X136652000Y-105029000D02*
X136652000Y-105537000D01*
X136906000Y-104775000D02*
X136652000Y-105029000D01*
X135890000Y-106045000D02*
X136398000Y-106045000D01*
X136779000Y-106045000D02*
X136398000Y-106045000D01*
X137287000Y-106045000D02*
X136779000Y-106045000D01*
X135382000Y-106045000D02*
X135890000Y-106045000D01*
D28*
X136500000Y-117000000D02*
X137072776Y-117572776D01*
X137072776Y-117572776D02*
X142927224Y-117572776D01*
X142927224Y-117572776D02*
X143500000Y-117000000D01*
D25*
X147574000Y-73660000D02*
X147574000Y-73152000D01*
X147066000Y-73660000D02*
X147574000Y-73660000D01*
X147066000Y-73660000D02*
X146558000Y-73660000D01*
X147066000Y-73152000D02*
X147066000Y-73660000D01*
X146558000Y-73152000D02*
X146558000Y-73660000D01*
X147066000Y-73152000D02*
X147574000Y-73152000D01*
X146558000Y-73152000D02*
X147066000Y-73152000D01*
X135254000Y-72009000D02*
X134493000Y-72009000D01*
X134493000Y-72009000D02*
X133858000Y-71374000D01*
X133858000Y-71655447D02*
X133858000Y-71374000D01*
X133858000Y-72009000D02*
X133858000Y-71655447D01*
X135254000Y-72009000D02*
X133858000Y-72009000D01*
X148082000Y-99314000D02*
X147447000Y-99314000D01*
X144653000Y-89154000D02*
X143953000Y-89154000D01*
X143129000Y-104775000D02*
X142875000Y-104521000D01*
X144653000Y-103124000D02*
X145034000Y-103124000D01*
X147447000Y-103886000D02*
X147447000Y-103124000D01*
X147193000Y-104140000D02*
X147447000Y-103886000D01*
X146050000Y-104140000D02*
X147193000Y-104140000D01*
X147447000Y-95885000D02*
X147447000Y-96266000D01*
X147447000Y-96393000D02*
X147066000Y-96774000D01*
X146939000Y-94488000D02*
X147447000Y-94996000D01*
X147447000Y-94996000D02*
X147447000Y-95885000D01*
X146939000Y-89916000D02*
X146177000Y-89154000D01*
X146177000Y-89154000D02*
X144653000Y-89154000D01*
D24*
X150622000Y-83439000D02*
X150495000Y-83566000D01*
D26*
X150495000Y-83566000D02*
X150495000Y-85725000D01*
D24*
X151765000Y-82296000D02*
X150622000Y-83439000D01*
D26*
X147955000Y-86741000D02*
X148590000Y-86106000D01*
X148590000Y-86106000D02*
X150114000Y-86106000D01*
X150114000Y-86106000D02*
X150495000Y-85725000D01*
D25*
X147447000Y-86741000D02*
X147955000Y-86741000D01*
X144654000Y-73279000D02*
X146431000Y-73279000D01*
X146431000Y-73279000D02*
X146558000Y-73152000D01*
X128270000Y-74422000D02*
X128270000Y-74676000D01*
D24*
X128270000Y-74676000D02*
X128270000Y-77216000D01*
D27*
X147828000Y-106426000D02*
X147447000Y-106045000D01*
X147447000Y-106045000D02*
X146274200Y-106045000D01*
X152781000Y-106426000D02*
X147828000Y-106426000D01*
X147447000Y-101854000D02*
X147447000Y-101853136D01*
X147447000Y-101853136D02*
X147912031Y-101388105D01*
X147912031Y-101388105D02*
X152781819Y-101388105D01*
X152781819Y-101388105D02*
X153135372Y-101388105D01*
D26*
X153162000Y-78486000D02*
X153162000Y-81026000D01*
X150495000Y-78105000D02*
X150876000Y-78486000D01*
X150495000Y-77978000D02*
X150495000Y-78486000D01*
X150495000Y-76835000D02*
X150495000Y-77978000D01*
X150495000Y-77978000D02*
X150495000Y-78105000D01*
X150495000Y-78105000D02*
X150114000Y-78486000D01*
X152903660Y-75941660D02*
X153162000Y-76200000D01*
X153162000Y-76200000D02*
X153162000Y-78486000D01*
X150495000Y-75941660D02*
X152903660Y-75941660D01*
X149225000Y-74676000D02*
X149229340Y-74676000D01*
D25*
X149229340Y-74676000D02*
X150495000Y-75941660D01*
D26*
X150495000Y-75941660D02*
X150495000Y-76835000D01*
D24*
X149225000Y-74676000D02*
X149219015Y-74676000D01*
X149219015Y-74676000D02*
X146936843Y-76958172D01*
X146936843Y-76958172D02*
X146936843Y-78737843D01*
X146936843Y-78737843D02*
X146939000Y-78740000D01*
D26*
X151003000Y-78486000D02*
X150495000Y-78486000D01*
X153162000Y-78486000D02*
X151003000Y-78486000D01*
X151003000Y-78486000D02*
X150876000Y-78486000D01*
X150876000Y-78486000D02*
X150495000Y-78867000D01*
X150495000Y-80645000D02*
X150495000Y-78867000D01*
X150495000Y-78867000D02*
X150495000Y-78486000D01*
X149987000Y-78486000D02*
X150114000Y-78486000D01*
X150114000Y-78486000D02*
X150495000Y-78867000D01*
X150495000Y-81026000D02*
X150876000Y-81026000D01*
X150876000Y-81026000D02*
X153162000Y-81026000D01*
X150495000Y-80645000D02*
X150876000Y-81026000D01*
X150495000Y-81026000D02*
X150495000Y-80645000D01*
X148717000Y-81026000D02*
X150114000Y-81026000D01*
X150114000Y-81026000D02*
X150241000Y-81026000D01*
X150495000Y-80645000D02*
X150114000Y-81026000D01*
X150241000Y-81026000D02*
X150495000Y-81026000D01*
X150495000Y-78486000D02*
X149987000Y-78486000D01*
X147955000Y-81788000D02*
X148717000Y-81026000D01*
X147955000Y-82042000D02*
X147955000Y-81788000D01*
X147701000Y-82296000D02*
X147955000Y-82042000D01*
D25*
X145796000Y-106045000D02*
X146274200Y-106045000D01*
D27*
X147447000Y-101879000D02*
X147447000Y-101854000D01*
D26*
X149987000Y-78486000D02*
X148082000Y-78486000D01*
D25*
X146939000Y-78740000D02*
X147193000Y-78486000D01*
D26*
X147193000Y-78486000D02*
X148082000Y-78486000D01*
D25*
X146939000Y-83058000D02*
X147701000Y-82296000D01*
X149225000Y-73355200D02*
X148005800Y-72136000D01*
X148005800Y-72136000D02*
X146558000Y-72136000D01*
D24*
X149225000Y-74676000D02*
X149225000Y-73355200D01*
D25*
X144654000Y-72009000D02*
X146431000Y-72009000D01*
X146431000Y-72009000D02*
X146558000Y-72136000D01*
D27*
X133731000Y-73279000D02*
X133477000Y-73533000D01*
X133477000Y-75184000D02*
X132080000Y-76581000D01*
X133477000Y-73533000D02*
X133477000Y-75184000D01*
D25*
X135254000Y-73279000D02*
X134112000Y-73279000D01*
D27*
X134112000Y-73279000D02*
X133731000Y-73279000D01*
X132080000Y-78486000D02*
X131699000Y-78867000D01*
X132080000Y-76581000D02*
X132080000Y-78486000D01*
D24*
X130683000Y-79883000D02*
X131699000Y-78867000D01*
D27*
X131699000Y-78867000D02*
X131572000Y-78994000D01*
D24*
X131572000Y-78994000D02*
X131445000Y-79121000D01*
D27*
X133985000Y-75819000D02*
X133477000Y-75819000D01*
D25*
X135254000Y-75819000D02*
X133985000Y-75819000D01*
D27*
X132334000Y-80772000D02*
X131953000Y-81153000D01*
X132334000Y-79629000D02*
X132334000Y-80772000D01*
X132588000Y-79375000D02*
X132334000Y-79629000D01*
X132588000Y-76708000D02*
X132588000Y-79375000D01*
X133477000Y-75819000D02*
X132588000Y-76708000D01*
X132080000Y-81026000D02*
X131953000Y-81153000D01*
X131953000Y-81153000D02*
X131826000Y-81280000D01*
X132080000Y-81026000D02*
X131826000Y-81280000D01*
D24*
X130810000Y-82296000D02*
X131826000Y-81280000D01*
D27*
X134112000Y-78359000D02*
X133858000Y-78613000D01*
X133350000Y-83566000D02*
X132080000Y-84836000D01*
D25*
X135254000Y-78359000D02*
X134112000Y-78359000D01*
D24*
X132080000Y-84836000D02*
X130810000Y-84836000D01*
D27*
X133350000Y-80772000D02*
X133350000Y-83566000D01*
X133858000Y-80264000D02*
X133350000Y-80772000D01*
X133858000Y-78613000D02*
X133858000Y-80264000D01*
X134112000Y-80899000D02*
X133858000Y-81153000D01*
D24*
X130810000Y-87376000D02*
X132334000Y-87376000D01*
D25*
X134112000Y-80899000D02*
X135254000Y-80899000D01*
D27*
X133858000Y-85852000D02*
X132334000Y-87376000D01*
X133858000Y-81153000D02*
X133858000Y-85852000D01*
X141838035Y-89552443D02*
X141838035Y-89905996D01*
X143954000Y-83439000D02*
X141838035Y-85554965D01*
X144654000Y-83439000D02*
X143954000Y-83439000D01*
X141838035Y-85554965D02*
X141838035Y-89552443D01*
X141177191Y-92341428D02*
X141427190Y-92591427D01*
X141158100Y-92322337D02*
X141177191Y-92341428D01*
X141158100Y-83694900D02*
X141158100Y-92322337D01*
X143954000Y-80899000D02*
X141158100Y-83694900D01*
X144654000Y-80899000D02*
X143954000Y-80899000D01*
X140345278Y-93254542D02*
X139568999Y-94030821D01*
X140345278Y-81464522D02*
X140345278Y-93254542D01*
X139568999Y-94030821D02*
X139319000Y-94280820D01*
X144654000Y-78359000D02*
X143450800Y-78359000D01*
X143450800Y-78359000D02*
X140345278Y-81464522D01*
X139938867Y-92257773D02*
X139938867Y-79834133D01*
X143954000Y-75819000D02*
X144654000Y-75819000D01*
X137160000Y-96012000D02*
X137160000Y-95036640D01*
X139938867Y-79834133D02*
X143954000Y-75819000D01*
X137160000Y-95036640D02*
X139938867Y-92257773D01*
X138366066Y-116632967D02*
X141596271Y-116632967D01*
X135779100Y-114046000D02*
X138366066Y-116632967D01*
X129540000Y-114046000D02*
X135779100Y-114046000D01*
X141596271Y-116632967D02*
X144183238Y-114046000D01*
X144183238Y-114046000D02*
X150495000Y-114046000D01*
D24*
X151765000Y-115316000D02*
X150495000Y-114046000D01*
X129540000Y-114046000D02*
X128270000Y-115316000D01*
D27*
X134956851Y-112649000D02*
X138534406Y-116226556D01*
X138534406Y-116226556D02*
X141427931Y-116226556D01*
X132334000Y-112649000D02*
X134956851Y-112649000D01*
X144878487Y-112776000D02*
X148209000Y-112776000D01*
X141427931Y-116226556D02*
X144878487Y-112776000D01*
D24*
X130937000Y-112649000D02*
X132334000Y-112649000D01*
X149225000Y-112776000D02*
X148209000Y-112776000D01*
X148209000Y-112776000D02*
X148336000Y-112776000D01*
X130810000Y-112776000D02*
X130937000Y-112649000D01*
D27*
X129540000Y-111506000D02*
X132541712Y-111506000D01*
X132541712Y-111506000D02*
X133277075Y-112241363D01*
X133277075Y-112241363D02*
X135123964Y-112241363D01*
X145573736Y-111506000D02*
X150495000Y-111506000D01*
X135123964Y-112241363D02*
X138702746Y-115820145D01*
X138702746Y-115820145D02*
X141259591Y-115820145D01*
X141259591Y-115820145D02*
X145573736Y-111506000D01*
D24*
X151765000Y-112776000D02*
X150495000Y-111506000D01*
X129540000Y-111506000D02*
X128270000Y-112776000D01*
D27*
X132334000Y-115316000D02*
X135572801Y-118554801D01*
X135572801Y-118554801D02*
X144970199Y-118554801D01*
X144970199Y-118554801D02*
X148209000Y-115316000D01*
D24*
X130810000Y-115316000D02*
X132334000Y-115316000D01*
X148209000Y-115316000D02*
X149225000Y-115316000D01*
D25*
X144653000Y-87884000D02*
X146685000Y-87884000D01*
X146685000Y-87884000D02*
X146939000Y-88138000D01*
X146939000Y-88138000D02*
X146431000Y-87630000D01*
X146431000Y-87630000D02*
X146431000Y-86741000D01*
X146939000Y-85090000D02*
X146431000Y-85598000D01*
X146431000Y-85598000D02*
X146431000Y-86741000D01*
X144653000Y-98044000D02*
X146431000Y-98044000D01*
D27*
X147447000Y-98044000D02*
X147447000Y-97360320D01*
X147447000Y-97360320D02*
X148541320Y-96266000D01*
X148541320Y-96266000D02*
X152654000Y-96266000D01*
X152654000Y-96266000D02*
X153035000Y-95885000D01*
X153035000Y-95885000D02*
X153035000Y-93980000D01*
X152400000Y-83566000D02*
X152401690Y-83566000D01*
X152401690Y-83566000D02*
X153035000Y-84199310D01*
X153035000Y-84199310D02*
X153035000Y-93472000D01*
X152781000Y-93726000D02*
X153035000Y-93980000D01*
X152781000Y-93726000D02*
X153035000Y-93472000D01*
X153035000Y-93726000D02*
X152781000Y-93726000D01*
D25*
X147574000Y-93345000D02*
X146939000Y-92710000D01*
D27*
X147574000Y-93345000D02*
X147955000Y-93726000D01*
X147955000Y-93726000D02*
X152781000Y-93726000D01*
D25*
X147955000Y-80772000D02*
X146939000Y-80772000D01*
D27*
X153035000Y-93980000D02*
X153035000Y-93726000D01*
X153035000Y-93726000D02*
X153035000Y-93472000D01*
D25*
X146939000Y-92710000D02*
X146431000Y-92202000D01*
X146431000Y-92202000D02*
X146431000Y-91821000D01*
X146431000Y-91313000D02*
X146431000Y-91821000D01*
X146304000Y-91694000D02*
X144653000Y-91694000D01*
X146431000Y-91821000D02*
X146304000Y-91694000D01*
D27*
X146177000Y-95631000D02*
X146050000Y-95504000D01*
D25*
X144653000Y-92964000D02*
X145669000Y-92964000D01*
X146177000Y-95631000D02*
X146431000Y-95885000D01*
D27*
X146050000Y-93345000D02*
X145669000Y-92964000D01*
X146050000Y-95504000D02*
X146050000Y-93345000D01*
X140751689Y-95599589D02*
X140751689Y-83214612D01*
X140751689Y-83214612D02*
X140993441Y-82972860D01*
X138557000Y-97794278D02*
X140751689Y-95599589D01*
X138557000Y-98933000D02*
X138557000Y-97794278D01*
X139846838Y-74935783D02*
X137976342Y-76806279D01*
X137976342Y-76806279D02*
X137976342Y-81962187D01*
X137976342Y-81962187D02*
X138124750Y-82110595D01*
X138124750Y-82110595D02*
X138124750Y-82824857D01*
X144653000Y-100584000D02*
X142240000Y-100584000D01*
X142240000Y-100584000D02*
X141732000Y-100076000D01*
X141732000Y-100076000D02*
X141732000Y-98933000D01*
D25*
X144653000Y-100584000D02*
X146431000Y-100584000D01*
D27*
X143256000Y-87311000D02*
X143256000Y-90590818D01*
X144653000Y-86614000D02*
X143953000Y-86614000D01*
X143953000Y-86614000D02*
X143256000Y-87311000D01*
X143256000Y-90590818D02*
X142892797Y-90954021D01*
X139273014Y-97668593D02*
X139273014Y-102407986D01*
X142892797Y-90954021D02*
X142892797Y-94048810D01*
X142892797Y-94048810D02*
X139273014Y-97668593D01*
X139273014Y-102407986D02*
X137795000Y-103886000D01*
X137795000Y-103886000D02*
X135760120Y-103886000D01*
X135760120Y-103886000D02*
X135382000Y-104264120D01*
X135382000Y-104264120D02*
X135382000Y-105029000D01*
D25*
X134239000Y-105029000D02*
X135382000Y-105029000D01*
D27*
X144653000Y-94234000D02*
X143857109Y-94234000D01*
X143857109Y-94234000D02*
X140085836Y-98005273D01*
X140085836Y-98005273D02*
X140085836Y-103456358D01*
X140085836Y-103456358D02*
X138767194Y-104775000D01*
X138767194Y-104775000D02*
X138684000Y-104775000D01*
D25*
X138303000Y-106045000D02*
X138310620Y-106037380D01*
X138310620Y-106037380D02*
X138310620Y-105148380D01*
X138310620Y-105148380D02*
X138684000Y-104775000D01*
D27*
X140004800Y-112166400D02*
X140004800Y-109905800D01*
D24*
X140004800Y-113495200D02*
X140004800Y-112166400D01*
D27*
X138303000Y-106603800D02*
X138303000Y-106045000D01*
X138303000Y-108204000D02*
X138303000Y-106603800D01*
X140004800Y-109905800D02*
X138303000Y-108204000D01*
D24*
X140000000Y-113500000D02*
X140004800Y-113495200D01*
D27*
X144653000Y-95504000D02*
X143161860Y-95504000D01*
X140492247Y-98173613D02*
X140492247Y-103928742D01*
X143161860Y-95504000D02*
X140492247Y-98173613D01*
X140492247Y-103928742D02*
X141338505Y-104775000D01*
X141338505Y-104775000D02*
X141351000Y-104775000D01*
X150495000Y-116586000D02*
X152400000Y-116586000D01*
X153162000Y-115824000D02*
X153162000Y-109728000D01*
X153162000Y-109728000D02*
X152400000Y-108966000D01*
X152400000Y-116586000D02*
X153162000Y-115824000D01*
X152400000Y-108966000D02*
X147193000Y-108966000D01*
X147193000Y-108966000D02*
X145814404Y-107587404D01*
X145814404Y-107587404D02*
X142384134Y-107587404D01*
X142384134Y-107587404D02*
X141732000Y-106935270D01*
X141732000Y-106935270D02*
X141732000Y-106045000D01*
D25*
X141732000Y-106045000D02*
X141724380Y-106037380D01*
X141724380Y-105148380D02*
X141351000Y-104775000D01*
X141724380Y-106037380D02*
X141724380Y-105148380D01*
D24*
X149225000Y-117856000D02*
X150495000Y-116586000D01*
D25*
X134239000Y-106045000D02*
X134239000Y-109093000D01*
D27*
X139568999Y-103001001D02*
X139319000Y-103251000D01*
X143299208Y-94217150D02*
X139679425Y-97836933D01*
X143299208Y-91122360D02*
X143299208Y-94217150D01*
X143997568Y-90424000D02*
X143299208Y-91122360D01*
X139679425Y-102890575D02*
X139568999Y-103001001D01*
X144653000Y-90424000D02*
X143997568Y-90424000D01*
X139679425Y-97836933D02*
X139679425Y-102890575D01*
D25*
X144653000Y-105029000D02*
X144653000Y-104521000D01*
X144653000Y-105029000D02*
X145796000Y-105029000D01*
X146431000Y-101854000D02*
X144653000Y-101854000D01*
X146431000Y-103124000D02*
X146431000Y-101854000D01*
X144653000Y-99314000D02*
X146431000Y-99314000D01*
D27*
X135254000Y-74549000D02*
X135990527Y-74549000D01*
X137569930Y-79332430D02*
X137569930Y-84430251D01*
X135990527Y-74549000D02*
X136707769Y-75266242D01*
X136707769Y-75266242D02*
X136707769Y-78470269D01*
X136707769Y-78470269D02*
X137569930Y-79332430D01*
X137569930Y-84430251D02*
X137718339Y-84578660D01*
X137718339Y-84578660D02*
X137718339Y-85676611D01*
D25*
X135255000Y-86614000D02*
X135941870Y-86614000D01*
X135941870Y-86614000D02*
X135941870Y-85676611D01*
X135941870Y-85676611D02*
X135947335Y-85676611D01*
D27*
X129540000Y-88265000D02*
X129540000Y-83947000D01*
X133223000Y-88646000D02*
X129921000Y-88646000D01*
X129921000Y-88646000D02*
X129540000Y-88265000D01*
X129540000Y-83947000D02*
X129921000Y-83566000D01*
X133985000Y-77089000D02*
X133477000Y-77089000D01*
D25*
X135254000Y-77089000D02*
X133985000Y-77089000D01*
D27*
X132080000Y-83566000D02*
X129921000Y-83566000D01*
X132842000Y-82804000D02*
X132080000Y-83566000D01*
X132842000Y-80391000D02*
X132842000Y-82804000D01*
X133223000Y-80010000D02*
X132842000Y-80391000D01*
X133223000Y-77343000D02*
X133223000Y-80010000D01*
X133477000Y-77089000D02*
X133223000Y-77343000D01*
D25*
X133985000Y-87884000D02*
X135255000Y-87884000D01*
D27*
X133985000Y-87884000D02*
X133223000Y-88646000D01*
X136652000Y-79629000D02*
X137163519Y-80140519D01*
X137163519Y-80140519D02*
X137163519Y-88015101D01*
X137163519Y-88015101D02*
X136024620Y-89154000D01*
X136024620Y-89154000D02*
X135255000Y-89154000D01*
D25*
X135254000Y-79629000D02*
X136652000Y-79629000D01*
D27*
X135255000Y-90424000D02*
X135973820Y-90424000D01*
X137718321Y-87602553D02*
X137718321Y-87249000D01*
X135973820Y-90424000D02*
X137718321Y-88679499D01*
X137718321Y-88679499D02*
X137718321Y-87602553D01*
X136271000Y-82169000D02*
X136608699Y-82506699D01*
X136608699Y-86895447D02*
X136608699Y-87249000D01*
X136608699Y-82506699D02*
X136608699Y-86895447D01*
X136271000Y-82169000D02*
X136271000Y-82169000D01*
D25*
X136271000Y-82169000D02*
X135254000Y-82169000D01*
D27*
X135255000Y-91694000D02*
X135955000Y-91694000D01*
X135955000Y-91694000D02*
X138289085Y-89359915D01*
X138289085Y-89359915D02*
X138289085Y-84435158D01*
X138289085Y-84435158D02*
X138124750Y-84270823D01*
X138124750Y-84270823D02*
X138124750Y-83528070D01*
X143954000Y-82169000D02*
X142594930Y-83528070D01*
X144654000Y-82169000D02*
X143954000Y-82169000D01*
X142594930Y-83528070D02*
X142367000Y-83528070D01*
X135955000Y-92964000D02*
X135255000Y-92964000D01*
X138719634Y-90199366D02*
X135955000Y-92964000D01*
X138557000Y-81661000D02*
X138557000Y-82014553D01*
X138719634Y-82177187D02*
X138719634Y-90199366D01*
X138557000Y-82014553D02*
X138719634Y-82177187D01*
X144654000Y-79629000D02*
X143002390Y-79629000D01*
X140970390Y-81661000D02*
X140970000Y-81661000D01*
X143002390Y-79629000D02*
X140970390Y-81661000D01*
X135955000Y-94234000D02*
X139126045Y-91062955D01*
X139126045Y-80948636D02*
X138909305Y-80731896D01*
X139126045Y-91062955D02*
X139126045Y-80948636D01*
X138909305Y-80731896D02*
X138909305Y-80378343D01*
X135255000Y-94234000D02*
X135955000Y-94234000D01*
X140671034Y-80371966D02*
X140573566Y-80371966D01*
X144654000Y-77089000D02*
X143954000Y-77089000D01*
X143954000Y-77089000D02*
X140671034Y-80371966D01*
X139532456Y-91926544D02*
X139532456Y-78970544D01*
X143954000Y-74549000D02*
X144654000Y-74549000D01*
X139532456Y-78970544D02*
X143954000Y-74549000D01*
X135255000Y-95504000D02*
X135955000Y-95504000D01*
X135955000Y-95504000D02*
X139532456Y-91926544D01*
G36*
X126899465Y-70837507D02*
X126652681Y-71431828D01*
X126652119Y-72075349D01*
X126897866Y-72670100D01*
X127352507Y-73125535D01*
X127735825Y-73284703D01*
X127660662Y-73430266D01*
X128270000Y-74039604D01*
X128879338Y-73430266D01*
X128804101Y-73284560D01*
X129185100Y-73127134D01*
X129640535Y-72672493D01*
X129887319Y-72078172D01*
X129887747Y-71587743D01*
X133644400Y-71587743D01*
X133644400Y-71706600D01*
X133796800Y-71859000D01*
X134754000Y-71859000D01*
X134754000Y-71251800D01*
X135754000Y-71251800D01*
X135754000Y-71859000D01*
X136711200Y-71859000D01*
X136863600Y-71706600D01*
X136863600Y-71587743D01*
X136770794Y-71363689D01*
X136599311Y-71192206D01*
X136375257Y-71099400D01*
X135906400Y-71099400D01*
X135754000Y-71251800D01*
X134754000Y-71251800D01*
X134601600Y-71099400D01*
X134132743Y-71099400D01*
X133908689Y-71192206D01*
X133737206Y-71363689D01*
X133644400Y-71587743D01*
X129887747Y-71587743D01*
X129887881Y-71434651D01*
X129642134Y-70839900D01*
X129285457Y-70482600D01*
X150749992Y-70482600D01*
X150394465Y-70837507D01*
X150147681Y-71431828D01*
X150147119Y-72075349D01*
X150392866Y-72670100D01*
X150847507Y-73125535D01*
X151230825Y-73284703D01*
X151155662Y-73430266D01*
X151765000Y-74039604D01*
X152374338Y-73430266D01*
X152299101Y-73284560D01*
X152680100Y-73127134D01*
X153135535Y-72672493D01*
X153382319Y-72078172D01*
X153382881Y-71434651D01*
X153137134Y-70839900D01*
X152780457Y-70482600D01*
X154517400Y-70482600D01*
X154517400Y-119517400D01*
X129099750Y-119517400D01*
X129185100Y-119482134D01*
X129640535Y-119027493D01*
X129887319Y-118433172D01*
X129887881Y-117789651D01*
X129642134Y-117194900D01*
X129187493Y-116739465D01*
X128651534Y-116516915D01*
X128980311Y-116381067D01*
X129333825Y-116028169D01*
X129525382Y-115566850D01*
X129525631Y-115281684D01*
X129554454Y-115252860D01*
X129554182Y-115564659D01*
X129744933Y-116026311D01*
X130097831Y-116379825D01*
X130559150Y-116571382D01*
X131058659Y-116571818D01*
X131520311Y-116381067D01*
X131722130Y-116179600D01*
X132334000Y-116179600D01*
X132515016Y-116143594D01*
X135249512Y-118878090D01*
X135397838Y-118977199D01*
X135572801Y-119012001D01*
X144970199Y-119012001D01*
X145145162Y-118977199D01*
X145293488Y-118878090D01*
X148027984Y-116143594D01*
X148209000Y-116179600D01*
X148312955Y-116179600D01*
X148512831Y-116379825D01*
X148974150Y-116571382D01*
X149288029Y-116571656D01*
X149255251Y-116604434D01*
X148336000Y-116604434D01*
X148204223Y-116629230D01*
X148083193Y-116707110D01*
X148001999Y-116825942D01*
X147973434Y-116967000D01*
X147973434Y-118745000D01*
X147998230Y-118876777D01*
X148076110Y-118997807D01*
X148194942Y-119079001D01*
X148336000Y-119107566D01*
X150114000Y-119107566D01*
X150203139Y-119090793D01*
X151158825Y-119090793D01*
X151265339Y-119299952D01*
X151855950Y-119381250D01*
X152264661Y-119299952D01*
X152371175Y-119090793D01*
X151765000Y-118484618D01*
X151158825Y-119090793D01*
X150203139Y-119090793D01*
X150245777Y-119082770D01*
X150366807Y-119004890D01*
X150448001Y-118886058D01*
X150476566Y-118745000D01*
X150476566Y-118434858D01*
X150530207Y-118462175D01*
X151136382Y-117856000D01*
X151059378Y-117778996D01*
X151687996Y-117150378D01*
X151765000Y-117227382D01*
X151842004Y-117150378D01*
X152470622Y-117778996D01*
X152393618Y-117856000D01*
X152999793Y-118462175D01*
X153208952Y-118355661D01*
X153290250Y-117765050D01*
X153208952Y-117356339D01*
X153083097Y-117292247D01*
X153221195Y-117154149D01*
X152849812Y-116782766D01*
X153485289Y-116147289D01*
X153584398Y-115998963D01*
X153619200Y-115824000D01*
X153619200Y-109728000D01*
X153584398Y-109553037D01*
X153485289Y-109404711D01*
X152723289Y-108642711D01*
X152645765Y-108590910D01*
X152828825Y-108408169D01*
X153020382Y-107946850D01*
X153020818Y-107447341D01*
X152849061Y-107031659D01*
X152900933Y-107031704D01*
X153123596Y-106939702D01*
X153294103Y-106769493D01*
X153386494Y-106546990D01*
X153386704Y-106306067D01*
X153294702Y-106083404D01*
X153124493Y-105912897D01*
X152901990Y-105820506D01*
X152848636Y-105820459D01*
X153020382Y-105406850D01*
X153020818Y-104907341D01*
X152830067Y-104445689D01*
X152477169Y-104092175D01*
X152015850Y-103900618D01*
X151516341Y-103900182D01*
X151054689Y-104090933D01*
X150701175Y-104443831D01*
X150509618Y-104905150D01*
X150509182Y-105404659D01*
X150699933Y-105866311D01*
X150802243Y-105968800D01*
X150188018Y-105968800D01*
X150288825Y-105868169D01*
X150480382Y-105406850D01*
X150480818Y-104907341D01*
X150290067Y-104445689D01*
X149937169Y-104092175D01*
X149475850Y-103900618D01*
X148976341Y-103900182D01*
X148514689Y-104090933D01*
X148161175Y-104443831D01*
X147969618Y-104905150D01*
X147969182Y-105404659D01*
X148159933Y-105866311D01*
X148262243Y-105968800D01*
X148017378Y-105968800D01*
X147770289Y-105721711D01*
X147621963Y-105622602D01*
X147447000Y-105587800D01*
X146666119Y-105587800D01*
X146507484Y-105481803D01*
X146380122Y-105456469D01*
X146405001Y-105420058D01*
X146433566Y-105279000D01*
X146433566Y-104779000D01*
X146408770Y-104647223D01*
X146330890Y-104526193D01*
X146212058Y-104444999D01*
X146071000Y-104416434D01*
X145521000Y-104416434D01*
X145505237Y-104419400D01*
X145258688Y-104419400D01*
X145258704Y-104401067D01*
X145220215Y-104307916D01*
X145216197Y-104287716D01*
X145204855Y-104270741D01*
X145166702Y-104178404D01*
X145095492Y-104107070D01*
X145084052Y-104089948D01*
X145067080Y-104078608D01*
X145022151Y-104033600D01*
X145186402Y-104033600D01*
X145186402Y-103914602D01*
X145305400Y-104033600D01*
X145774257Y-104033600D01*
X145998311Y-103940794D01*
X146169794Y-103769311D01*
X146173621Y-103760072D01*
X146181000Y-103761566D01*
X146681000Y-103761566D01*
X146694854Y-103758959D01*
X146851689Y-103915794D01*
X147075743Y-104008600D01*
X147169600Y-104008600D01*
X147322000Y-103856200D01*
X147322000Y-103261500D01*
X147197000Y-103261500D01*
X147197000Y-102986500D01*
X147322000Y-102986500D01*
X147322000Y-102849000D01*
X147572000Y-102849000D01*
X147572000Y-102986500D01*
X147697000Y-102986500D01*
X147697000Y-103261500D01*
X147572000Y-103261500D01*
X147572000Y-103856200D01*
X147724400Y-104008600D01*
X147818257Y-104008600D01*
X148042311Y-103915794D01*
X148213794Y-103744311D01*
X148249793Y-103657402D01*
X148306600Y-103657402D01*
X148306600Y-103473234D01*
X148512831Y-103679825D01*
X148974150Y-103871382D01*
X149473659Y-103871818D01*
X149935311Y-103681067D01*
X150288825Y-103328169D01*
X150480382Y-102866850D01*
X150480818Y-102367341D01*
X150290067Y-101905689D01*
X150229788Y-101845305D01*
X150759803Y-101845305D01*
X150701175Y-101903831D01*
X150509618Y-102365150D01*
X150509182Y-102864659D01*
X150699933Y-103326311D01*
X151052831Y-103679825D01*
X151514150Y-103871382D01*
X152013659Y-103871818D01*
X152475311Y-103681067D01*
X152828825Y-103328169D01*
X153020382Y-102866850D01*
X153020818Y-102367341D01*
X152835741Y-101919421D01*
X153014382Y-101993599D01*
X153255305Y-101993809D01*
X153477968Y-101901807D01*
X153648475Y-101731598D01*
X153740866Y-101509095D01*
X153741076Y-101268172D01*
X153649074Y-101045509D01*
X153478865Y-100875002D01*
X153256362Y-100782611D01*
X153015439Y-100782401D01*
X152792776Y-100874403D01*
X152736175Y-100930905D01*
X152685840Y-100930905D01*
X152828825Y-100788169D01*
X153020382Y-100326850D01*
X153020818Y-99827341D01*
X152830067Y-99365689D01*
X152477169Y-99012175D01*
X152015850Y-98820618D01*
X151516341Y-98820182D01*
X151054689Y-99010933D01*
X150701175Y-99363831D01*
X150509618Y-99825150D01*
X150509182Y-100324659D01*
X150699933Y-100786311D01*
X150844275Y-100930905D01*
X150145840Y-100930905D01*
X150288825Y-100788169D01*
X150480382Y-100326850D01*
X150480818Y-99827341D01*
X150290067Y-99365689D01*
X149937169Y-99012175D01*
X149475850Y-98820618D01*
X148976341Y-98820182D01*
X148514689Y-99010933D01*
X148306600Y-99218659D01*
X148306600Y-98780598D01*
X148249793Y-98780598D01*
X148213794Y-98693689D01*
X148042311Y-98522206D01*
X148000399Y-98504846D01*
X148031001Y-98460058D01*
X148059566Y-98319000D01*
X148059566Y-98003405D01*
X148159933Y-98246311D01*
X148512831Y-98599825D01*
X148974150Y-98791382D01*
X149473659Y-98791818D01*
X149935311Y-98601067D01*
X150288825Y-98248169D01*
X150480382Y-97786850D01*
X150480818Y-97287341D01*
X150290067Y-96825689D01*
X150187757Y-96723200D01*
X150801982Y-96723200D01*
X150701175Y-96823831D01*
X150509618Y-97285150D01*
X150509182Y-97784659D01*
X150699933Y-98246311D01*
X151052831Y-98599825D01*
X151514150Y-98791382D01*
X152013659Y-98791818D01*
X152475311Y-98601067D01*
X152828825Y-98248169D01*
X153020382Y-97786850D01*
X153020818Y-97287341D01*
X152830067Y-96825689D01*
X152715537Y-96710960D01*
X152828963Y-96688398D01*
X152977289Y-96589289D01*
X153358289Y-96208289D01*
X153457398Y-96059963D01*
X153464952Y-96021987D01*
X153492200Y-95885000D01*
X153492200Y-84199310D01*
X153457398Y-84024347D01*
X153437120Y-83993999D01*
X153358290Y-83876021D01*
X153005637Y-83523368D01*
X153005704Y-83446067D01*
X152942297Y-83292609D01*
X153229125Y-83005781D01*
X153088517Y-82865173D01*
X153220315Y-82797118D01*
X153301305Y-82202048D01*
X153220315Y-81794882D01*
X153088517Y-81726827D01*
X153183726Y-81631618D01*
X153281933Y-81631704D01*
X153504596Y-81539702D01*
X153675103Y-81369493D01*
X153767494Y-81146990D01*
X153767704Y-80906067D01*
X153675702Y-80683404D01*
X153644600Y-80652248D01*
X153644600Y-78859943D01*
X153675103Y-78829493D01*
X153767494Y-78606990D01*
X153767704Y-78366067D01*
X153675702Y-78143404D01*
X153644600Y-78112248D01*
X153644600Y-76200000D01*
X153607864Y-76015317D01*
X153503250Y-75858750D01*
X153244910Y-75600410D01*
X153106787Y-75508119D01*
X153229125Y-75385781D01*
X153088517Y-75245173D01*
X153220315Y-75177118D01*
X153301305Y-74582048D01*
X153220315Y-74174882D01*
X153010734Y-74066662D01*
X152401396Y-74676000D01*
X152474511Y-74749115D01*
X151838115Y-75385511D01*
X151765000Y-75312396D01*
X151691885Y-75385511D01*
X151055489Y-74749115D01*
X151128604Y-74676000D01*
X150519266Y-74066662D01*
X150462566Y-74095940D01*
X150462566Y-73801000D01*
X150437770Y-73669223D01*
X150359890Y-73548193D01*
X150241058Y-73466999D01*
X150100000Y-73438434D01*
X150088600Y-73438434D01*
X150088600Y-73355200D01*
X150022862Y-73024715D01*
X149835657Y-72744543D01*
X149555485Y-72557338D01*
X149225000Y-72491600D01*
X149223752Y-72491848D01*
X148436852Y-71704948D01*
X148239084Y-71572803D01*
X148005800Y-71526400D01*
X146847647Y-71526400D01*
X146833000Y-71523434D01*
X146780466Y-71523434D01*
X146664284Y-71445803D01*
X146431000Y-71399400D01*
X145830770Y-71399400D01*
X145795058Y-71374999D01*
X145654000Y-71346434D01*
X143654000Y-71346434D01*
X143522223Y-71371230D01*
X143401193Y-71449110D01*
X143319999Y-71567942D01*
X143291434Y-71709000D01*
X143291434Y-72309000D01*
X143316230Y-72440777D01*
X143325530Y-72455230D01*
X143308689Y-72462206D01*
X143137206Y-72633689D01*
X143044400Y-72857743D01*
X143044400Y-72976600D01*
X143196800Y-73129000D01*
X143535400Y-73129000D01*
X143535400Y-73429000D01*
X143196800Y-73429000D01*
X143044400Y-73581400D01*
X143044400Y-73700257D01*
X143137206Y-73924311D01*
X143308689Y-74095794D01*
X143323974Y-74102125D01*
X143319999Y-74107942D01*
X143291434Y-74249000D01*
X143291434Y-74564987D01*
X139209167Y-78647255D01*
X139110058Y-78795581D01*
X139075256Y-78970544D01*
X139075256Y-79791518D01*
X139030295Y-79772849D01*
X138789372Y-79772639D01*
X138566709Y-79864641D01*
X138433542Y-79997575D01*
X138433542Y-76995657D01*
X139887781Y-75541418D01*
X139966771Y-75541487D01*
X140189434Y-75449485D01*
X140359941Y-75279276D01*
X140452332Y-75056773D01*
X140452542Y-74815850D01*
X140360540Y-74593187D01*
X140190331Y-74422680D01*
X139967828Y-74330289D01*
X139726905Y-74330079D01*
X139504242Y-74422081D01*
X139333735Y-74592290D01*
X139241344Y-74814793D01*
X139241274Y-74894769D01*
X137653053Y-76482990D01*
X137553944Y-76631316D01*
X137519142Y-76806279D01*
X137519142Y-78635064D01*
X137164969Y-78280891D01*
X137164969Y-75266242D01*
X137130167Y-75091279D01*
X137031058Y-74942953D01*
X136616566Y-74528461D01*
X136616566Y-74249000D01*
X136591770Y-74117223D01*
X136513890Y-73996193D01*
X136395058Y-73914999D01*
X136390092Y-73913993D01*
X136506807Y-73838890D01*
X136588001Y-73720058D01*
X136616566Y-73579000D01*
X136616566Y-72979000D01*
X136591770Y-72847223D01*
X136582470Y-72832770D01*
X136599311Y-72825794D01*
X136770794Y-72654311D01*
X136863600Y-72430257D01*
X136863600Y-72311400D01*
X136711200Y-72159000D01*
X135754000Y-72159000D01*
X135754000Y-72161400D01*
X134754000Y-72161400D01*
X134754000Y-72159000D01*
X133796800Y-72159000D01*
X133644400Y-72311400D01*
X133644400Y-72430257D01*
X133737206Y-72654311D01*
X133830749Y-72747854D01*
X133715453Y-72824892D01*
X133556037Y-72856602D01*
X133407711Y-72955711D01*
X133153711Y-73209711D01*
X133054602Y-73358037D01*
X133019800Y-73533000D01*
X133019800Y-74994622D01*
X131756711Y-76257711D01*
X131704910Y-76335235D01*
X131522169Y-76152175D01*
X131060850Y-75960618D01*
X130561341Y-75960182D01*
X130099689Y-76150933D01*
X129746175Y-76503831D01*
X129670329Y-76686489D01*
X129515734Y-76606662D01*
X128906396Y-77216000D01*
X129515734Y-77825338D01*
X129670246Y-77745554D01*
X129744933Y-77926311D01*
X130097831Y-78279825D01*
X130559150Y-78471382D01*
X130873030Y-78471656D01*
X130844257Y-78500429D01*
X130561341Y-78500182D01*
X130099689Y-78690933D01*
X129746175Y-79043831D01*
X129554618Y-79505150D01*
X129554182Y-80004659D01*
X129744933Y-80466311D01*
X130097831Y-80819825D01*
X130559150Y-81011382D01*
X130873030Y-81011656D01*
X130844257Y-81040429D01*
X130561341Y-81040182D01*
X130099689Y-81230933D01*
X129746175Y-81583831D01*
X129670329Y-81766489D01*
X129515734Y-81686662D01*
X128906396Y-82296000D01*
X129515734Y-82905338D01*
X129670246Y-82825554D01*
X129744933Y-83006311D01*
X129859463Y-83121040D01*
X129746037Y-83143602D01*
X129597711Y-83242711D01*
X129216711Y-83623711D01*
X129117602Y-83772037D01*
X129095077Y-83885280D01*
X128982169Y-83772175D01*
X128799511Y-83696329D01*
X128879338Y-83541734D01*
X128270000Y-82932396D01*
X127660662Y-83541734D01*
X127740446Y-83696246D01*
X127559689Y-83770933D01*
X127206175Y-84123831D01*
X127014618Y-84585150D01*
X127014182Y-85084659D01*
X127204933Y-85546311D01*
X127557831Y-85899825D01*
X128019150Y-86091382D01*
X128518659Y-86091818D01*
X128980311Y-85901067D01*
X129082800Y-85798757D01*
X129082800Y-86412982D01*
X128982169Y-86312175D01*
X128520850Y-86120618D01*
X128021341Y-86120182D01*
X127559689Y-86310933D01*
X127206175Y-86663831D01*
X127014618Y-87125150D01*
X127014182Y-87624659D01*
X127204933Y-88086311D01*
X127557831Y-88439825D01*
X128019150Y-88631382D01*
X128518659Y-88631818D01*
X128980311Y-88441067D01*
X129095040Y-88326537D01*
X129117602Y-88439963D01*
X129216711Y-88588289D01*
X129597711Y-88969289D01*
X129746037Y-89068398D01*
X129859280Y-89090923D01*
X129746175Y-89203831D01*
X129554618Y-89665150D01*
X129554182Y-90164659D01*
X129744933Y-90626311D01*
X130097831Y-90979825D01*
X130559150Y-91171382D01*
X131058659Y-91171818D01*
X131520311Y-90981067D01*
X131873825Y-90628169D01*
X132065382Y-90166850D01*
X132065818Y-89667341D01*
X131875067Y-89205689D01*
X131772757Y-89103200D01*
X133223000Y-89103200D01*
X133397963Y-89068398D01*
X133546289Y-88969289D01*
X133886910Y-88628668D01*
X133883400Y-88646000D01*
X133883400Y-103759000D01*
X133890348Y-103795927D01*
X133912172Y-103829843D01*
X133945472Y-103852595D01*
X133985000Y-103860600D01*
X135138942Y-103860600D01*
X135058711Y-103940831D01*
X134959602Y-104089157D01*
X134924800Y-104264120D01*
X134924800Y-104419400D01*
X134528647Y-104419400D01*
X134514000Y-104416434D01*
X133964000Y-104416434D01*
X133832223Y-104441230D01*
X133711193Y-104519110D01*
X133629999Y-104637942D01*
X133601434Y-104779000D01*
X133601434Y-105279000D01*
X133626230Y-105410777D01*
X133704110Y-105531807D01*
X133710477Y-105536158D01*
X133629999Y-105653942D01*
X133601434Y-105795000D01*
X133601434Y-106295000D01*
X133626230Y-106426777D01*
X133629400Y-106431703D01*
X133629400Y-109093000D01*
X133633383Y-109113024D01*
X133633296Y-109212933D01*
X133671785Y-109306084D01*
X133675803Y-109326284D01*
X133687145Y-109343259D01*
X133725298Y-109435596D01*
X133796508Y-109506930D01*
X133807948Y-109524052D01*
X133824920Y-109535392D01*
X133895507Y-109606103D01*
X133988592Y-109644755D01*
X134005716Y-109656197D01*
X134025739Y-109660180D01*
X134118010Y-109698494D01*
X134218799Y-109698582D01*
X134239000Y-109702600D01*
X134259024Y-109698617D01*
X134358933Y-109698704D01*
X134452084Y-109660215D01*
X134472284Y-109656197D01*
X134489259Y-109644855D01*
X134581596Y-109606702D01*
X134652930Y-109535492D01*
X134670052Y-109524052D01*
X134681392Y-109507080D01*
X134695086Y-109493410D01*
X134606296Y-110093919D01*
X134714504Y-110637919D01*
X134949003Y-110796655D01*
X135745658Y-110000000D01*
X137254342Y-110000000D01*
X138050997Y-110796655D01*
X138285496Y-110637919D01*
X138393704Y-109906081D01*
X138285496Y-109362081D01*
X138050997Y-109203345D01*
X137254342Y-110000000D01*
X135745658Y-110000000D01*
X134949003Y-109203345D01*
X134809782Y-109297586D01*
X134844494Y-109213990D01*
X134844582Y-109113201D01*
X134848600Y-109093000D01*
X134848600Y-108449003D01*
X135703345Y-108449003D01*
X136500000Y-109245658D01*
X137296655Y-108449003D01*
X137137919Y-108214504D01*
X136406081Y-108106296D01*
X135862081Y-108214504D01*
X135703345Y-108449003D01*
X134848600Y-108449003D01*
X134848600Y-106847794D01*
X134985743Y-106904600D01*
X135092100Y-106904600D01*
X135244500Y-106752200D01*
X135244500Y-106170000D01*
X135519500Y-106170000D01*
X135519500Y-106752200D01*
X135671900Y-106904600D01*
X135778257Y-106904600D01*
X136002311Y-106811794D01*
X136173794Y-106640311D01*
X136266600Y-106416257D01*
X136266600Y-106334900D01*
X136427400Y-106334900D01*
X136427400Y-106441257D01*
X136520206Y-106665311D01*
X136691689Y-106836794D01*
X136915743Y-106929600D01*
X137009600Y-106929600D01*
X137162000Y-106777200D01*
X137162000Y-106182500D01*
X136579800Y-106182500D01*
X136427400Y-106334900D01*
X136266600Y-106334900D01*
X136266600Y-106322400D01*
X136114200Y-106170000D01*
X135519500Y-106170000D01*
X135244500Y-106170000D01*
X135107000Y-106170000D01*
X135107000Y-105920000D01*
X135244500Y-105920000D01*
X135244500Y-105795000D01*
X135519500Y-105795000D01*
X135519500Y-105920000D01*
X136114200Y-105920000D01*
X136181182Y-105853018D01*
X136276743Y-105892600D01*
X136564900Y-105892600D01*
X136579800Y-105907500D01*
X137162000Y-105907500D01*
X137162000Y-105892600D01*
X137412000Y-105892600D01*
X137412000Y-105907500D01*
X137537000Y-105907500D01*
X137537000Y-106182500D01*
X137412000Y-106182500D01*
X137412000Y-106777200D01*
X137564400Y-106929600D01*
X137658257Y-106929600D01*
X137845800Y-106851917D01*
X137845800Y-108204000D01*
X137880602Y-108378963D01*
X137979711Y-108527289D01*
X139547600Y-110095178D01*
X139547600Y-111453206D01*
X139394143Y-111555743D01*
X139206938Y-111835915D01*
X139141200Y-112166400D01*
X139141200Y-112441865D01*
X138851448Y-112731112D01*
X138644636Y-113229171D01*
X138644165Y-113768463D01*
X138850108Y-114266883D01*
X139231112Y-114648552D01*
X139729171Y-114855364D01*
X140268463Y-114855835D01*
X140766883Y-114649892D01*
X141148552Y-114268888D01*
X141355364Y-113770829D01*
X141355835Y-113231537D01*
X141149892Y-112733117D01*
X140868400Y-112451134D01*
X140868400Y-112166400D01*
X140802662Y-111835915D01*
X140615457Y-111555743D01*
X140608355Y-111550997D01*
X142703345Y-111550997D01*
X142862081Y-111785496D01*
X143593919Y-111893704D01*
X144137919Y-111785496D01*
X144296655Y-111550997D01*
X143500000Y-110754342D01*
X142703345Y-111550997D01*
X140608355Y-111550997D01*
X140462000Y-111453206D01*
X140462000Y-110093919D01*
X141606296Y-110093919D01*
X141714504Y-110637919D01*
X141949003Y-110796655D01*
X142745658Y-110000000D01*
X144254342Y-110000000D01*
X145050997Y-110796655D01*
X145285496Y-110637919D01*
X145393704Y-109906081D01*
X145285496Y-109362081D01*
X145050997Y-109203345D01*
X144254342Y-110000000D01*
X142745658Y-110000000D01*
X141949003Y-109203345D01*
X141714504Y-109362081D01*
X141606296Y-110093919D01*
X140462000Y-110093919D01*
X140462000Y-109905800D01*
X140427198Y-109730837D01*
X140328089Y-109582511D01*
X139194581Y-108449003D01*
X142703345Y-108449003D01*
X143500000Y-109245658D01*
X144296655Y-108449003D01*
X144137919Y-108214504D01*
X143406081Y-108106296D01*
X142862081Y-108214504D01*
X142703345Y-108449003D01*
X139194581Y-108449003D01*
X138760200Y-108014622D01*
X138760200Y-106609237D01*
X138805807Y-106579890D01*
X138887001Y-106461058D01*
X138915566Y-106320000D01*
X138915566Y-106060777D01*
X138920220Y-106037380D01*
X138920220Y-105645566D01*
X139192000Y-105645566D01*
X139323777Y-105620770D01*
X139444807Y-105542890D01*
X139526001Y-105424058D01*
X139554566Y-105283000D01*
X139554566Y-104634206D01*
X140075945Y-104112828D01*
X140168958Y-104252031D01*
X140480434Y-104563507D01*
X140480434Y-105283000D01*
X140505230Y-105414777D01*
X140583110Y-105535807D01*
X140701942Y-105617001D01*
X140843000Y-105645566D01*
X141114780Y-105645566D01*
X141114780Y-106037380D01*
X141119434Y-106060777D01*
X141119434Y-106320000D01*
X141144230Y-106451777D01*
X141222110Y-106572807D01*
X141274800Y-106608808D01*
X141274800Y-106935270D01*
X141309602Y-107110233D01*
X141408711Y-107258559D01*
X142060845Y-107910693D01*
X142209171Y-108009802D01*
X142384134Y-108044604D01*
X145625026Y-108044604D01*
X146869711Y-109289289D01*
X147018037Y-109388398D01*
X147193000Y-109423200D01*
X148261982Y-109423200D01*
X148161175Y-109523831D01*
X147969618Y-109985150D01*
X147969182Y-110484659D01*
X148159933Y-110946311D01*
X148262243Y-111048800D01*
X145573736Y-111048800D01*
X145398773Y-111083602D01*
X145250447Y-111182711D01*
X141070213Y-115362945D01*
X138892124Y-115362945D01*
X135447253Y-111918074D01*
X135298927Y-111818965D01*
X135123964Y-111784163D01*
X133466453Y-111784163D01*
X133233287Y-111550997D01*
X135703345Y-111550997D01*
X135862081Y-111785496D01*
X136593919Y-111893704D01*
X137137919Y-111785496D01*
X137296655Y-111550997D01*
X136500000Y-110754342D01*
X135703345Y-111550997D01*
X133233287Y-111550997D01*
X132865001Y-111182711D01*
X132716675Y-111083602D01*
X132541712Y-111048800D01*
X131773018Y-111048800D01*
X131873825Y-110948169D01*
X132065382Y-110486850D01*
X132065818Y-109987341D01*
X131875067Y-109525689D01*
X131522169Y-109172175D01*
X131060850Y-108980618D01*
X130561341Y-108980182D01*
X130099689Y-109170933D01*
X129746175Y-109523831D01*
X129554618Y-109985150D01*
X129554182Y-110484659D01*
X129626466Y-110659600D01*
X129540000Y-110642401D01*
X129453660Y-110659575D01*
X129525382Y-110486850D01*
X129525818Y-109987341D01*
X129335067Y-109525689D01*
X128982169Y-109172175D01*
X128520850Y-108980618D01*
X128021341Y-108980182D01*
X127559689Y-109170933D01*
X127206175Y-109523831D01*
X127014618Y-109985150D01*
X127014182Y-110484659D01*
X127204933Y-110946311D01*
X127557831Y-111299825D01*
X128019150Y-111491382D01*
X128333029Y-111491656D01*
X128304257Y-111520429D01*
X128021341Y-111520182D01*
X127559689Y-111710933D01*
X127206175Y-112063831D01*
X127014618Y-112525150D01*
X127014182Y-113024659D01*
X127204933Y-113486311D01*
X127557831Y-113839825D01*
X128019150Y-114031382D01*
X128333029Y-114031656D01*
X128304257Y-114060429D01*
X128021341Y-114060182D01*
X127559689Y-114250933D01*
X127206175Y-114603831D01*
X127014618Y-115065150D01*
X127014182Y-115564659D01*
X127204933Y-116026311D01*
X127557831Y-116379825D01*
X127888808Y-116517259D01*
X127354900Y-116737866D01*
X126899465Y-117192507D01*
X126652681Y-117786828D01*
X126652119Y-118430349D01*
X126897866Y-119025100D01*
X127352507Y-119480535D01*
X127441288Y-119517400D01*
X125482600Y-119517400D01*
X125482600Y-107944659D01*
X127014182Y-107944659D01*
X127204933Y-108406311D01*
X127557831Y-108759825D01*
X128019150Y-108951382D01*
X128518659Y-108951818D01*
X128980311Y-108761067D01*
X129333825Y-108408169D01*
X129525382Y-107946850D01*
X129525383Y-107944659D01*
X129554182Y-107944659D01*
X129744933Y-108406311D01*
X130097831Y-108759825D01*
X130559150Y-108951382D01*
X131058659Y-108951818D01*
X131520311Y-108761067D01*
X131873825Y-108408169D01*
X132065382Y-107946850D01*
X132065818Y-107447341D01*
X131875067Y-106985689D01*
X131522169Y-106632175D01*
X131060850Y-106440618D01*
X130561341Y-106440182D01*
X130099689Y-106630933D01*
X129746175Y-106983831D01*
X129554618Y-107445150D01*
X129554182Y-107944659D01*
X129525383Y-107944659D01*
X129525818Y-107447341D01*
X129335067Y-106985689D01*
X128982169Y-106632175D01*
X128520850Y-106440618D01*
X128021341Y-106440182D01*
X127559689Y-106630933D01*
X127206175Y-106983831D01*
X127014618Y-107445150D01*
X127014182Y-107944659D01*
X125482600Y-107944659D01*
X125482600Y-105404659D01*
X127014182Y-105404659D01*
X127204933Y-105866311D01*
X127557831Y-106219825D01*
X128019150Y-106411382D01*
X128518659Y-106411818D01*
X128980311Y-106221067D01*
X129333825Y-105868169D01*
X129525382Y-105406850D01*
X129525383Y-105404659D01*
X129554182Y-105404659D01*
X129744933Y-105866311D01*
X130097831Y-106219825D01*
X130559150Y-106411382D01*
X131058659Y-106411818D01*
X131520311Y-106221067D01*
X131873825Y-105868169D01*
X132065382Y-105406850D01*
X132065818Y-104907341D01*
X131875067Y-104445689D01*
X131522169Y-104092175D01*
X131060850Y-103900618D01*
X130561341Y-103900182D01*
X130099689Y-104090933D01*
X129746175Y-104443831D01*
X129554618Y-104905150D01*
X129554182Y-105404659D01*
X129525383Y-105404659D01*
X129525818Y-104907341D01*
X129335067Y-104445689D01*
X128982169Y-104092175D01*
X128520850Y-103900618D01*
X128021341Y-103900182D01*
X127559689Y-104090933D01*
X127206175Y-104443831D01*
X127014618Y-104905150D01*
X127014182Y-105404659D01*
X125482600Y-105404659D01*
X125482600Y-102864659D01*
X127014182Y-102864659D01*
X127204933Y-103326311D01*
X127557831Y-103679825D01*
X128019150Y-103871382D01*
X128518659Y-103871818D01*
X128980311Y-103681067D01*
X129333825Y-103328169D01*
X129525382Y-102866850D01*
X129525383Y-102864659D01*
X129554182Y-102864659D01*
X129744933Y-103326311D01*
X130097831Y-103679825D01*
X130559150Y-103871382D01*
X131058659Y-103871818D01*
X131520311Y-103681067D01*
X131873825Y-103328169D01*
X132065382Y-102866850D01*
X132065818Y-102367341D01*
X131875067Y-101905689D01*
X131522169Y-101552175D01*
X131060850Y-101360618D01*
X130561341Y-101360182D01*
X130099689Y-101550933D01*
X129746175Y-101903831D01*
X129554618Y-102365150D01*
X129554182Y-102864659D01*
X129525383Y-102864659D01*
X129525818Y-102367341D01*
X129335067Y-101905689D01*
X128982169Y-101552175D01*
X128520850Y-101360618D01*
X128021341Y-101360182D01*
X127559689Y-101550933D01*
X127206175Y-101903831D01*
X127014618Y-102365150D01*
X127014182Y-102864659D01*
X125482600Y-102864659D01*
X125482600Y-100324659D01*
X127014182Y-100324659D01*
X127204933Y-100786311D01*
X127557831Y-101139825D01*
X128019150Y-101331382D01*
X128518659Y-101331818D01*
X128980311Y-101141067D01*
X129333825Y-100788169D01*
X129525382Y-100326850D01*
X129525383Y-100324659D01*
X129554182Y-100324659D01*
X129744933Y-100786311D01*
X130097831Y-101139825D01*
X130559150Y-101331382D01*
X131058659Y-101331818D01*
X131520311Y-101141067D01*
X131873825Y-100788169D01*
X132065382Y-100326850D01*
X132065818Y-99827341D01*
X131875067Y-99365689D01*
X131522169Y-99012175D01*
X131060850Y-98820618D01*
X130561341Y-98820182D01*
X130099689Y-99010933D01*
X129746175Y-99363831D01*
X129554618Y-99825150D01*
X129554182Y-100324659D01*
X129525383Y-100324659D01*
X129525818Y-99827341D01*
X129335067Y-99365689D01*
X128982169Y-99012175D01*
X128520850Y-98820618D01*
X128021341Y-98820182D01*
X127559689Y-99010933D01*
X127206175Y-99363831D01*
X127014618Y-99825150D01*
X127014182Y-100324659D01*
X125482600Y-100324659D01*
X125482600Y-97784659D01*
X127014182Y-97784659D01*
X127204933Y-98246311D01*
X127557831Y-98599825D01*
X128019150Y-98791382D01*
X128518659Y-98791818D01*
X128980311Y-98601067D01*
X129333825Y-98248169D01*
X129525382Y-97786850D01*
X129525383Y-97784659D01*
X129554182Y-97784659D01*
X129744933Y-98246311D01*
X130097831Y-98599825D01*
X130559150Y-98791382D01*
X131058659Y-98791818D01*
X131520311Y-98601067D01*
X131873825Y-98248169D01*
X132065382Y-97786850D01*
X132065818Y-97287341D01*
X131875067Y-96825689D01*
X131522169Y-96472175D01*
X131060850Y-96280618D01*
X130561341Y-96280182D01*
X130099689Y-96470933D01*
X129746175Y-96823831D01*
X129554618Y-97285150D01*
X129554182Y-97784659D01*
X129525383Y-97784659D01*
X129525818Y-97287341D01*
X129335067Y-96825689D01*
X128982169Y-96472175D01*
X128520850Y-96280618D01*
X128021341Y-96280182D01*
X127559689Y-96470933D01*
X127206175Y-96823831D01*
X127014618Y-97285150D01*
X127014182Y-97784659D01*
X125482600Y-97784659D01*
X125482600Y-95244659D01*
X127014182Y-95244659D01*
X127204933Y-95706311D01*
X127557831Y-96059825D01*
X128019150Y-96251382D01*
X128518659Y-96251818D01*
X128980311Y-96061067D01*
X129333825Y-95708169D01*
X129525382Y-95246850D01*
X129525383Y-95244659D01*
X129554182Y-95244659D01*
X129744933Y-95706311D01*
X130097831Y-96059825D01*
X130559150Y-96251382D01*
X131058659Y-96251818D01*
X131520311Y-96061067D01*
X131873825Y-95708169D01*
X132065382Y-95246850D01*
X132065818Y-94747341D01*
X131875067Y-94285689D01*
X131522169Y-93932175D01*
X131060850Y-93740618D01*
X130561341Y-93740182D01*
X130099689Y-93930933D01*
X129746175Y-94283831D01*
X129554618Y-94745150D01*
X129554182Y-95244659D01*
X129525383Y-95244659D01*
X129525818Y-94747341D01*
X129335067Y-94285689D01*
X128982169Y-93932175D01*
X128520850Y-93740618D01*
X128021341Y-93740182D01*
X127559689Y-93930933D01*
X127206175Y-94283831D01*
X127014618Y-94745150D01*
X127014182Y-95244659D01*
X125482600Y-95244659D01*
X125482600Y-92704659D01*
X127014182Y-92704659D01*
X127204933Y-93166311D01*
X127557831Y-93519825D01*
X128019150Y-93711382D01*
X128518659Y-93711818D01*
X128980311Y-93521067D01*
X129333825Y-93168169D01*
X129525382Y-92706850D01*
X129525383Y-92704659D01*
X129554182Y-92704659D01*
X129744933Y-93166311D01*
X130097831Y-93519825D01*
X130559150Y-93711382D01*
X131058659Y-93711818D01*
X131520311Y-93521067D01*
X131873825Y-93168169D01*
X132065382Y-92706850D01*
X132065818Y-92207341D01*
X131875067Y-91745689D01*
X131522169Y-91392175D01*
X131060850Y-91200618D01*
X130561341Y-91200182D01*
X130099689Y-91390933D01*
X129746175Y-91743831D01*
X129554618Y-92205150D01*
X129554182Y-92704659D01*
X129525383Y-92704659D01*
X129525818Y-92207341D01*
X129335067Y-91745689D01*
X128982169Y-91392175D01*
X128520850Y-91200618D01*
X128021341Y-91200182D01*
X127559689Y-91390933D01*
X127206175Y-91743831D01*
X127014618Y-92205150D01*
X127014182Y-92704659D01*
X125482600Y-92704659D01*
X125482600Y-90164659D01*
X127014182Y-90164659D01*
X127204933Y-90626311D01*
X127557831Y-90979825D01*
X128019150Y-91171382D01*
X128518659Y-91171818D01*
X128980311Y-90981067D01*
X129333825Y-90628169D01*
X129525382Y-90166850D01*
X129525818Y-89667341D01*
X129335067Y-89205689D01*
X128982169Y-88852175D01*
X128520850Y-88660618D01*
X128021341Y-88660182D01*
X127559689Y-88850933D01*
X127206175Y-89203831D01*
X127014618Y-89665150D01*
X127014182Y-90164659D01*
X125482600Y-90164659D01*
X125482600Y-82389952D01*
X126733695Y-82389952D01*
X126814685Y-82797118D01*
X127024266Y-82905338D01*
X127633604Y-82296000D01*
X127024266Y-81686662D01*
X126814685Y-81794882D01*
X126733695Y-82389952D01*
X125482600Y-82389952D01*
X125482600Y-80004659D01*
X127014182Y-80004659D01*
X127204933Y-80466311D01*
X127557831Y-80819825D01*
X127740489Y-80895671D01*
X127660662Y-81050266D01*
X128270000Y-81659604D01*
X128879338Y-81050266D01*
X128799554Y-80895754D01*
X128980311Y-80821067D01*
X129333825Y-80468169D01*
X129525382Y-80006850D01*
X129525818Y-79507341D01*
X129335067Y-79045689D01*
X128982169Y-78692175D01*
X128799511Y-78616329D01*
X128879338Y-78461734D01*
X128270000Y-77852396D01*
X127660662Y-78461734D01*
X127740446Y-78616246D01*
X127559689Y-78690933D01*
X127206175Y-79043831D01*
X127014618Y-79505150D01*
X127014182Y-80004659D01*
X125482600Y-80004659D01*
X125482600Y-77309952D01*
X126733695Y-77309952D01*
X126814685Y-77717118D01*
X127024266Y-77825338D01*
X127633604Y-77216000D01*
X127024266Y-76606662D01*
X126814685Y-76714882D01*
X126733695Y-77309952D01*
X125482600Y-77309952D01*
X125482600Y-75921734D01*
X127660662Y-75921734D01*
X127673192Y-75946000D01*
X127660662Y-75970266D01*
X127712478Y-76022082D01*
X127768882Y-76131315D01*
X127830034Y-76139638D01*
X128270000Y-76579604D01*
X128705171Y-76144433D01*
X128771118Y-76131315D01*
X128827522Y-76022082D01*
X128879338Y-75970266D01*
X128866808Y-75946000D01*
X128879338Y-75921734D01*
X128827522Y-75869918D01*
X128771118Y-75760685D01*
X128709966Y-75752362D01*
X128270000Y-75312396D01*
X127834829Y-75747567D01*
X127768882Y-75760685D01*
X127712478Y-75869918D01*
X127660662Y-75921734D01*
X125482600Y-75921734D01*
X125482600Y-74769952D01*
X126733695Y-74769952D01*
X126814685Y-75177118D01*
X127024266Y-75285338D01*
X127633604Y-74676000D01*
X128906396Y-74676000D01*
X129515734Y-75285338D01*
X129572434Y-75256060D01*
X129572434Y-75551000D01*
X129597230Y-75682777D01*
X129675110Y-75803807D01*
X129793942Y-75885001D01*
X129935000Y-75913566D01*
X131685000Y-75913566D01*
X131816777Y-75888770D01*
X131937807Y-75810890D01*
X132019001Y-75692058D01*
X132047566Y-75551000D01*
X132047566Y-73801000D01*
X132022770Y-73669223D01*
X131944890Y-73548193D01*
X131826058Y-73466999D01*
X131685000Y-73438434D01*
X129935000Y-73438434D01*
X129803223Y-73463230D01*
X129682193Y-73541110D01*
X129600999Y-73659942D01*
X129572434Y-73801000D01*
X129572434Y-74095940D01*
X129515734Y-74066662D01*
X128906396Y-74676000D01*
X127633604Y-74676000D01*
X127024266Y-74066662D01*
X126814685Y-74174882D01*
X126733695Y-74769952D01*
X125482600Y-74769952D01*
X125482600Y-70482600D01*
X127254992Y-70482600D01*
X126899465Y-70837507D01*
X126899465Y-70837507D01*
G37*
X126899465Y-70837507D02*
X126652681Y-71431828D01*
X126652119Y-72075349D01*
X126897866Y-72670100D01*
X127352507Y-73125535D01*
X127735825Y-73284703D01*
X127660662Y-73430266D01*
X128270000Y-74039604D01*
X128879338Y-73430266D01*
X128804101Y-73284560D01*
X129185100Y-73127134D01*
X129640535Y-72672493D01*
X129887319Y-72078172D01*
X129887747Y-71587743D01*
X133644400Y-71587743D01*
X133644400Y-71706600D01*
X133796800Y-71859000D01*
X134754000Y-71859000D01*
X134754000Y-71251800D01*
X135754000Y-71251800D01*
X135754000Y-71859000D01*
X136711200Y-71859000D01*
X136863600Y-71706600D01*
X136863600Y-71587743D01*
X136770794Y-71363689D01*
X136599311Y-71192206D01*
X136375257Y-71099400D01*
X135906400Y-71099400D01*
X135754000Y-71251800D01*
X134754000Y-71251800D01*
X134601600Y-71099400D01*
X134132743Y-71099400D01*
X133908689Y-71192206D01*
X133737206Y-71363689D01*
X133644400Y-71587743D01*
X129887747Y-71587743D01*
X129887881Y-71434651D01*
X129642134Y-70839900D01*
X129285457Y-70482600D01*
X150749992Y-70482600D01*
X150394465Y-70837507D01*
X150147681Y-71431828D01*
X150147119Y-72075349D01*
X150392866Y-72670100D01*
X150847507Y-73125535D01*
X151230825Y-73284703D01*
X151155662Y-73430266D01*
X151765000Y-74039604D01*
X152374338Y-73430266D01*
X152299101Y-73284560D01*
X152680100Y-73127134D01*
X153135535Y-72672493D01*
X153382319Y-72078172D01*
X153382881Y-71434651D01*
X153137134Y-70839900D01*
X152780457Y-70482600D01*
X154517400Y-70482600D01*
X154517400Y-119517400D01*
X129099750Y-119517400D01*
X129185100Y-119482134D01*
X129640535Y-119027493D01*
X129887319Y-118433172D01*
X129887881Y-117789651D01*
X129642134Y-117194900D01*
X129187493Y-116739465D01*
X128651534Y-116516915D01*
X128980311Y-116381067D01*
X129333825Y-116028169D01*
X129525382Y-115566850D01*
X129525631Y-115281684D01*
X129554454Y-115252860D01*
X129554182Y-115564659D01*
X129744933Y-116026311D01*
X130097831Y-116379825D01*
X130559150Y-116571382D01*
X131058659Y-116571818D01*
X131520311Y-116381067D01*
X131722130Y-116179600D01*
X132334000Y-116179600D01*
X132515016Y-116143594D01*
X135249512Y-118878090D01*
X135397838Y-118977199D01*
X135572801Y-119012001D01*
X144970199Y-119012001D01*
X145145162Y-118977199D01*
X145293488Y-118878090D01*
X148027984Y-116143594D01*
X148209000Y-116179600D01*
X148312955Y-116179600D01*
X148512831Y-116379825D01*
X148974150Y-116571382D01*
X149288029Y-116571656D01*
X149255251Y-116604434D01*
X148336000Y-116604434D01*
X148204223Y-116629230D01*
X148083193Y-116707110D01*
X148001999Y-116825942D01*
X147973434Y-116967000D01*
X147973434Y-118745000D01*
X147998230Y-118876777D01*
X148076110Y-118997807D01*
X148194942Y-119079001D01*
X148336000Y-119107566D01*
X150114000Y-119107566D01*
X150203139Y-119090793D01*
X151158825Y-119090793D01*
X151265339Y-119299952D01*
X151855950Y-119381250D01*
X152264661Y-119299952D01*
X152371175Y-119090793D01*
X151765000Y-118484618D01*
X151158825Y-119090793D01*
X150203139Y-119090793D01*
X150245777Y-119082770D01*
X150366807Y-119004890D01*
X150448001Y-118886058D01*
X150476566Y-118745000D01*
X150476566Y-118434858D01*
X150530207Y-118462175D01*
X151136382Y-117856000D01*
X151059378Y-117778996D01*
X151687996Y-117150378D01*
X151765000Y-117227382D01*
X151842004Y-117150378D01*
X152470622Y-117778996D01*
X152393618Y-117856000D01*
X152999793Y-118462175D01*
X153208952Y-118355661D01*
X153290250Y-117765050D01*
X153208952Y-117356339D01*
X153083097Y-117292247D01*
X153221195Y-117154149D01*
X152849812Y-116782766D01*
X153485289Y-116147289D01*
X153584398Y-115998963D01*
X153619200Y-115824000D01*
X153619200Y-109728000D01*
X153584398Y-109553037D01*
X153485289Y-109404711D01*
X152723289Y-108642711D01*
X152645765Y-108590910D01*
X152828825Y-108408169D01*
X153020382Y-107946850D01*
X153020818Y-107447341D01*
X152849061Y-107031659D01*
X152900933Y-107031704D01*
X153123596Y-106939702D01*
X153294103Y-106769493D01*
X153386494Y-106546990D01*
X153386704Y-106306067D01*
X153294702Y-106083404D01*
X153124493Y-105912897D01*
X152901990Y-105820506D01*
X152848636Y-105820459D01*
X153020382Y-105406850D01*
X153020818Y-104907341D01*
X152830067Y-104445689D01*
X152477169Y-104092175D01*
X152015850Y-103900618D01*
X151516341Y-103900182D01*
X151054689Y-104090933D01*
X150701175Y-104443831D01*
X150509618Y-104905150D01*
X150509182Y-105404659D01*
X150699933Y-105866311D01*
X150802243Y-105968800D01*
X150188018Y-105968800D01*
X150288825Y-105868169D01*
X150480382Y-105406850D01*
X150480818Y-104907341D01*
X150290067Y-104445689D01*
X149937169Y-104092175D01*
X149475850Y-103900618D01*
X148976341Y-103900182D01*
X148514689Y-104090933D01*
X148161175Y-104443831D01*
X147969618Y-104905150D01*
X147969182Y-105404659D01*
X148159933Y-105866311D01*
X148262243Y-105968800D01*
X148017378Y-105968800D01*
X147770289Y-105721711D01*
X147621963Y-105622602D01*
X147447000Y-105587800D01*
X146666119Y-105587800D01*
X146507484Y-105481803D01*
X146380122Y-105456469D01*
X146405001Y-105420058D01*
X146433566Y-105279000D01*
X146433566Y-104779000D01*
X146408770Y-104647223D01*
X146330890Y-104526193D01*
X146212058Y-104444999D01*
X146071000Y-104416434D01*
X145521000Y-104416434D01*
X145505237Y-104419400D01*
X145258688Y-104419400D01*
X145258704Y-104401067D01*
X145220215Y-104307916D01*
X145216197Y-104287716D01*
X145204855Y-104270741D01*
X145166702Y-104178404D01*
X145095492Y-104107070D01*
X145084052Y-104089948D01*
X145067080Y-104078608D01*
X145022151Y-104033600D01*
X145186402Y-104033600D01*
X145186402Y-103914602D01*
X145305400Y-104033600D01*
X145774257Y-104033600D01*
X145998311Y-103940794D01*
X146169794Y-103769311D01*
X146173621Y-103760072D01*
X146181000Y-103761566D01*
X146681000Y-103761566D01*
X146694854Y-103758959D01*
X146851689Y-103915794D01*
X147075743Y-104008600D01*
X147169600Y-104008600D01*
X147322000Y-103856200D01*
X147322000Y-103261500D01*
X147197000Y-103261500D01*
X147197000Y-102986500D01*
X147322000Y-102986500D01*
X147322000Y-102849000D01*
X147572000Y-102849000D01*
X147572000Y-102986500D01*
X147697000Y-102986500D01*
X147697000Y-103261500D01*
X147572000Y-103261500D01*
X147572000Y-103856200D01*
X147724400Y-104008600D01*
X147818257Y-104008600D01*
X148042311Y-103915794D01*
X148213794Y-103744311D01*
X148249793Y-103657402D01*
X148306600Y-103657402D01*
X148306600Y-103473234D01*
X148512831Y-103679825D01*
X148974150Y-103871382D01*
X149473659Y-103871818D01*
X149935311Y-103681067D01*
X150288825Y-103328169D01*
X150480382Y-102866850D01*
X150480818Y-102367341D01*
X150290067Y-101905689D01*
X150229788Y-101845305D01*
X150759803Y-101845305D01*
X150701175Y-101903831D01*
X150509618Y-102365150D01*
X150509182Y-102864659D01*
X150699933Y-103326311D01*
X151052831Y-103679825D01*
X151514150Y-103871382D01*
X152013659Y-103871818D01*
X152475311Y-103681067D01*
X152828825Y-103328169D01*
X153020382Y-102866850D01*
X153020818Y-102367341D01*
X152835741Y-101919421D01*
X153014382Y-101993599D01*
X153255305Y-101993809D01*
X153477968Y-101901807D01*
X153648475Y-101731598D01*
X153740866Y-101509095D01*
X153741076Y-101268172D01*
X153649074Y-101045509D01*
X153478865Y-100875002D01*
X153256362Y-100782611D01*
X153015439Y-100782401D01*
X152792776Y-100874403D01*
X152736175Y-100930905D01*
X152685840Y-100930905D01*
X152828825Y-100788169D01*
X153020382Y-100326850D01*
X153020818Y-99827341D01*
X152830067Y-99365689D01*
X152477169Y-99012175D01*
X152015850Y-98820618D01*
X151516341Y-98820182D01*
X151054689Y-99010933D01*
X150701175Y-99363831D01*
X150509618Y-99825150D01*
X150509182Y-100324659D01*
X150699933Y-100786311D01*
X150844275Y-100930905D01*
X150145840Y-100930905D01*
X150288825Y-100788169D01*
X150480382Y-100326850D01*
X150480818Y-99827341D01*
X150290067Y-99365689D01*
X149937169Y-99012175D01*
X149475850Y-98820618D01*
X148976341Y-98820182D01*
X148514689Y-99010933D01*
X148306600Y-99218659D01*
X148306600Y-98780598D01*
X148249793Y-98780598D01*
X148213794Y-98693689D01*
X148042311Y-98522206D01*
X148000399Y-98504846D01*
X148031001Y-98460058D01*
X148059566Y-98319000D01*
X148059566Y-98003405D01*
X148159933Y-98246311D01*
X148512831Y-98599825D01*
X148974150Y-98791382D01*
X149473659Y-98791818D01*
X149935311Y-98601067D01*
X150288825Y-98248169D01*
X150480382Y-97786850D01*
X150480818Y-97287341D01*
X150290067Y-96825689D01*
X150187757Y-96723200D01*
X150801982Y-96723200D01*
X150701175Y-96823831D01*
X150509618Y-97285150D01*
X150509182Y-97784659D01*
X150699933Y-98246311D01*
X151052831Y-98599825D01*
X151514150Y-98791382D01*
X152013659Y-98791818D01*
X152475311Y-98601067D01*
X152828825Y-98248169D01*
X153020382Y-97786850D01*
X153020818Y-97287341D01*
X152830067Y-96825689D01*
X152715537Y-96710960D01*
X152828963Y-96688398D01*
X152977289Y-96589289D01*
X153358289Y-96208289D01*
X153457398Y-96059963D01*
X153464952Y-96021987D01*
X153492200Y-95885000D01*
X153492200Y-84199310D01*
X153457398Y-84024347D01*
X153437120Y-83993999D01*
X153358290Y-83876021D01*
X153005637Y-83523368D01*
X153005704Y-83446067D01*
X152942297Y-83292609D01*
X153229125Y-83005781D01*
X153088517Y-82865173D01*
X153220315Y-82797118D01*
X153301305Y-82202048D01*
X153220315Y-81794882D01*
X153088517Y-81726827D01*
X153183726Y-81631618D01*
X153281933Y-81631704D01*
X153504596Y-81539702D01*
X153675103Y-81369493D01*
X153767494Y-81146990D01*
X153767704Y-80906067D01*
X153675702Y-80683404D01*
X153644600Y-80652248D01*
X153644600Y-78859943D01*
X153675103Y-78829493D01*
X153767494Y-78606990D01*
X153767704Y-78366067D01*
X153675702Y-78143404D01*
X153644600Y-78112248D01*
X153644600Y-76200000D01*
X153607864Y-76015317D01*
X153503250Y-75858750D01*
X153244910Y-75600410D01*
X153106787Y-75508119D01*
X153229125Y-75385781D01*
X153088517Y-75245173D01*
X153220315Y-75177118D01*
X153301305Y-74582048D01*
X153220315Y-74174882D01*
X153010734Y-74066662D01*
X152401396Y-74676000D01*
X152474511Y-74749115D01*
X151838115Y-75385511D01*
X151765000Y-75312396D01*
X151691885Y-75385511D01*
X151055489Y-74749115D01*
X151128604Y-74676000D01*
X150519266Y-74066662D01*
X150462566Y-74095940D01*
X150462566Y-73801000D01*
X150437770Y-73669223D01*
X150359890Y-73548193D01*
X150241058Y-73466999D01*
X150100000Y-73438434D01*
X150088600Y-73438434D01*
X150088600Y-73355200D01*
X150022862Y-73024715D01*
X149835657Y-72744543D01*
X149555485Y-72557338D01*
X149225000Y-72491600D01*
X149223752Y-72491848D01*
X148436852Y-71704948D01*
X148239084Y-71572803D01*
X148005800Y-71526400D01*
X146847647Y-71526400D01*
X146833000Y-71523434D01*
X146780466Y-71523434D01*
X146664284Y-71445803D01*
X146431000Y-71399400D01*
X145830770Y-71399400D01*
X145795058Y-71374999D01*
X145654000Y-71346434D01*
X143654000Y-71346434D01*
X143522223Y-71371230D01*
X143401193Y-71449110D01*
X143319999Y-71567942D01*
X143291434Y-71709000D01*
X143291434Y-72309000D01*
X143316230Y-72440777D01*
X143325530Y-72455230D01*
X143308689Y-72462206D01*
X143137206Y-72633689D01*
X143044400Y-72857743D01*
X143044400Y-72976600D01*
X143196800Y-73129000D01*
X143535400Y-73129000D01*
X143535400Y-73429000D01*
X143196800Y-73429000D01*
X143044400Y-73581400D01*
X143044400Y-73700257D01*
X143137206Y-73924311D01*
X143308689Y-74095794D01*
X143323974Y-74102125D01*
X143319999Y-74107942D01*
X143291434Y-74249000D01*
X143291434Y-74564987D01*
X139209167Y-78647255D01*
X139110058Y-78795581D01*
X139075256Y-78970544D01*
X139075256Y-79791518D01*
X139030295Y-79772849D01*
X138789372Y-79772639D01*
X138566709Y-79864641D01*
X138433542Y-79997575D01*
X138433542Y-76995657D01*
X139887781Y-75541418D01*
X139966771Y-75541487D01*
X140189434Y-75449485D01*
X140359941Y-75279276D01*
X140452332Y-75056773D01*
X140452542Y-74815850D01*
X140360540Y-74593187D01*
X140190331Y-74422680D01*
X139967828Y-74330289D01*
X139726905Y-74330079D01*
X139504242Y-74422081D01*
X139333735Y-74592290D01*
X139241344Y-74814793D01*
X139241274Y-74894769D01*
X137653053Y-76482990D01*
X137553944Y-76631316D01*
X137519142Y-76806279D01*
X137519142Y-78635064D01*
X137164969Y-78280891D01*
X137164969Y-75266242D01*
X137130167Y-75091279D01*
X137031058Y-74942953D01*
X136616566Y-74528461D01*
X136616566Y-74249000D01*
X136591770Y-74117223D01*
X136513890Y-73996193D01*
X136395058Y-73914999D01*
X136390092Y-73913993D01*
X136506807Y-73838890D01*
X136588001Y-73720058D01*
X136616566Y-73579000D01*
X136616566Y-72979000D01*
X136591770Y-72847223D01*
X136582470Y-72832770D01*
X136599311Y-72825794D01*
X136770794Y-72654311D01*
X136863600Y-72430257D01*
X136863600Y-72311400D01*
X136711200Y-72159000D01*
X135754000Y-72159000D01*
X135754000Y-72161400D01*
X134754000Y-72161400D01*
X134754000Y-72159000D01*
X133796800Y-72159000D01*
X133644400Y-72311400D01*
X133644400Y-72430257D01*
X133737206Y-72654311D01*
X133830749Y-72747854D01*
X133715453Y-72824892D01*
X133556037Y-72856602D01*
X133407711Y-72955711D01*
X133153711Y-73209711D01*
X133054602Y-73358037D01*
X133019800Y-73533000D01*
X133019800Y-74994622D01*
X131756711Y-76257711D01*
X131704910Y-76335235D01*
X131522169Y-76152175D01*
X131060850Y-75960618D01*
X130561341Y-75960182D01*
X130099689Y-76150933D01*
X129746175Y-76503831D01*
X129670329Y-76686489D01*
X129515734Y-76606662D01*
X128906396Y-77216000D01*
X129515734Y-77825338D01*
X129670246Y-77745554D01*
X129744933Y-77926311D01*
X130097831Y-78279825D01*
X130559150Y-78471382D01*
X130873030Y-78471656D01*
X130844257Y-78500429D01*
X130561341Y-78500182D01*
X130099689Y-78690933D01*
X129746175Y-79043831D01*
X129554618Y-79505150D01*
X129554182Y-80004659D01*
X129744933Y-80466311D01*
X130097831Y-80819825D01*
X130559150Y-81011382D01*
X130873030Y-81011656D01*
X130844257Y-81040429D01*
X130561341Y-81040182D01*
X130099689Y-81230933D01*
X129746175Y-81583831D01*
X129670329Y-81766489D01*
X129515734Y-81686662D01*
X128906396Y-82296000D01*
X129515734Y-82905338D01*
X129670246Y-82825554D01*
X129744933Y-83006311D01*
X129859463Y-83121040D01*
X129746037Y-83143602D01*
X129597711Y-83242711D01*
X129216711Y-83623711D01*
X129117602Y-83772037D01*
X129095077Y-83885280D01*
X128982169Y-83772175D01*
X128799511Y-83696329D01*
X128879338Y-83541734D01*
X128270000Y-82932396D01*
X127660662Y-83541734D01*
X127740446Y-83696246D01*
X127559689Y-83770933D01*
X127206175Y-84123831D01*
X127014618Y-84585150D01*
X127014182Y-85084659D01*
X127204933Y-85546311D01*
X127557831Y-85899825D01*
X128019150Y-86091382D01*
X128518659Y-86091818D01*
X128980311Y-85901067D01*
X129082800Y-85798757D01*
X129082800Y-86412982D01*
X128982169Y-86312175D01*
X128520850Y-86120618D01*
X128021341Y-86120182D01*
X127559689Y-86310933D01*
X127206175Y-86663831D01*
X127014618Y-87125150D01*
X127014182Y-87624659D01*
X127204933Y-88086311D01*
X127557831Y-88439825D01*
X128019150Y-88631382D01*
X128518659Y-88631818D01*
X128980311Y-88441067D01*
X129095040Y-88326537D01*
X129117602Y-88439963D01*
X129216711Y-88588289D01*
X129597711Y-88969289D01*
X129746037Y-89068398D01*
X129859280Y-89090923D01*
X129746175Y-89203831D01*
X129554618Y-89665150D01*
X129554182Y-90164659D01*
X129744933Y-90626311D01*
X130097831Y-90979825D01*
X130559150Y-91171382D01*
X131058659Y-91171818D01*
X131520311Y-90981067D01*
X131873825Y-90628169D01*
X132065382Y-90166850D01*
X132065818Y-89667341D01*
X131875067Y-89205689D01*
X131772757Y-89103200D01*
X133223000Y-89103200D01*
X133397963Y-89068398D01*
X133546289Y-88969289D01*
X133886910Y-88628668D01*
X133883400Y-88646000D01*
X133883400Y-103759000D01*
X133890348Y-103795927D01*
X133912172Y-103829843D01*
X133945472Y-103852595D01*
X133985000Y-103860600D01*
X135138942Y-103860600D01*
X135058711Y-103940831D01*
X134959602Y-104089157D01*
X134924800Y-104264120D01*
X134924800Y-104419400D01*
X134528647Y-104419400D01*
X134514000Y-104416434D01*
X133964000Y-104416434D01*
X133832223Y-104441230D01*
X133711193Y-104519110D01*
X133629999Y-104637942D01*
X133601434Y-104779000D01*
X133601434Y-105279000D01*
X133626230Y-105410777D01*
X133704110Y-105531807D01*
X133710477Y-105536158D01*
X133629999Y-105653942D01*
X133601434Y-105795000D01*
X133601434Y-106295000D01*
X133626230Y-106426777D01*
X133629400Y-106431703D01*
X133629400Y-109093000D01*
X133633383Y-109113024D01*
X133633296Y-109212933D01*
X133671785Y-109306084D01*
X133675803Y-109326284D01*
X133687145Y-109343259D01*
X133725298Y-109435596D01*
X133796508Y-109506930D01*
X133807948Y-109524052D01*
X133824920Y-109535392D01*
X133895507Y-109606103D01*
X133988592Y-109644755D01*
X134005716Y-109656197D01*
X134025739Y-109660180D01*
X134118010Y-109698494D01*
X134218799Y-109698582D01*
X134239000Y-109702600D01*
X134259024Y-109698617D01*
X134358933Y-109698704D01*
X134452084Y-109660215D01*
X134472284Y-109656197D01*
X134489259Y-109644855D01*
X134581596Y-109606702D01*
X134652930Y-109535492D01*
X134670052Y-109524052D01*
X134681392Y-109507080D01*
X134695086Y-109493410D01*
X134606296Y-110093919D01*
X134714504Y-110637919D01*
X134949003Y-110796655D01*
X135745658Y-110000000D01*
X137254342Y-110000000D01*
X138050997Y-110796655D01*
X138285496Y-110637919D01*
X138393704Y-109906081D01*
X138285496Y-109362081D01*
X138050997Y-109203345D01*
X137254342Y-110000000D01*
X135745658Y-110000000D01*
X134949003Y-109203345D01*
X134809782Y-109297586D01*
X134844494Y-109213990D01*
X134844582Y-109113201D01*
X134848600Y-109093000D01*
X134848600Y-108449003D01*
X135703345Y-108449003D01*
X136500000Y-109245658D01*
X137296655Y-108449003D01*
X137137919Y-108214504D01*
X136406081Y-108106296D01*
X135862081Y-108214504D01*
X135703345Y-108449003D01*
X134848600Y-108449003D01*
X134848600Y-106847794D01*
X134985743Y-106904600D01*
X135092100Y-106904600D01*
X135244500Y-106752200D01*
X135244500Y-106170000D01*
X135519500Y-106170000D01*
X135519500Y-106752200D01*
X135671900Y-106904600D01*
X135778257Y-106904600D01*
X136002311Y-106811794D01*
X136173794Y-106640311D01*
X136266600Y-106416257D01*
X136266600Y-106334900D01*
X136427400Y-106334900D01*
X136427400Y-106441257D01*
X136520206Y-106665311D01*
X136691689Y-106836794D01*
X136915743Y-106929600D01*
X137009600Y-106929600D01*
X137162000Y-106777200D01*
X137162000Y-106182500D01*
X136579800Y-106182500D01*
X136427400Y-106334900D01*
X136266600Y-106334900D01*
X136266600Y-106322400D01*
X136114200Y-106170000D01*
X135519500Y-106170000D01*
X135244500Y-106170000D01*
X135107000Y-106170000D01*
X135107000Y-105920000D01*
X135244500Y-105920000D01*
X135244500Y-105795000D01*
X135519500Y-105795000D01*
X135519500Y-105920000D01*
X136114200Y-105920000D01*
X136181182Y-105853018D01*
X136276743Y-105892600D01*
X136564900Y-105892600D01*
X136579800Y-105907500D01*
X137162000Y-105907500D01*
X137162000Y-105892600D01*
X137412000Y-105892600D01*
X137412000Y-105907500D01*
X137537000Y-105907500D01*
X137537000Y-106182500D01*
X137412000Y-106182500D01*
X137412000Y-106777200D01*
X137564400Y-106929600D01*
X137658257Y-106929600D01*
X137845800Y-106851917D01*
X137845800Y-108204000D01*
X137880602Y-108378963D01*
X137979711Y-108527289D01*
X139547600Y-110095178D01*
X139547600Y-111453206D01*
X139394143Y-111555743D01*
X139206938Y-111835915D01*
X139141200Y-112166400D01*
X139141200Y-112441865D01*
X138851448Y-112731112D01*
X138644636Y-113229171D01*
X138644165Y-113768463D01*
X138850108Y-114266883D01*
X139231112Y-114648552D01*
X139729171Y-114855364D01*
X140268463Y-114855835D01*
X140766883Y-114649892D01*
X141148552Y-114268888D01*
X141355364Y-113770829D01*
X141355835Y-113231537D01*
X141149892Y-112733117D01*
X140868400Y-112451134D01*
X140868400Y-112166400D01*
X140802662Y-111835915D01*
X140615457Y-111555743D01*
X140608355Y-111550997D01*
X142703345Y-111550997D01*
X142862081Y-111785496D01*
X143593919Y-111893704D01*
X144137919Y-111785496D01*
X144296655Y-111550997D01*
X143500000Y-110754342D01*
X142703345Y-111550997D01*
X140608355Y-111550997D01*
X140462000Y-111453206D01*
X140462000Y-110093919D01*
X141606296Y-110093919D01*
X141714504Y-110637919D01*
X141949003Y-110796655D01*
X142745658Y-110000000D01*
X144254342Y-110000000D01*
X145050997Y-110796655D01*
X145285496Y-110637919D01*
X145393704Y-109906081D01*
X145285496Y-109362081D01*
X145050997Y-109203345D01*
X144254342Y-110000000D01*
X142745658Y-110000000D01*
X141949003Y-109203345D01*
X141714504Y-109362081D01*
X141606296Y-110093919D01*
X140462000Y-110093919D01*
X140462000Y-109905800D01*
X140427198Y-109730837D01*
X140328089Y-109582511D01*
X139194581Y-108449003D01*
X142703345Y-108449003D01*
X143500000Y-109245658D01*
X144296655Y-108449003D01*
X144137919Y-108214504D01*
X143406081Y-108106296D01*
X142862081Y-108214504D01*
X142703345Y-108449003D01*
X139194581Y-108449003D01*
X138760200Y-108014622D01*
X138760200Y-106609237D01*
X138805807Y-106579890D01*
X138887001Y-106461058D01*
X138915566Y-106320000D01*
X138915566Y-106060777D01*
X138920220Y-106037380D01*
X138920220Y-105645566D01*
X139192000Y-105645566D01*
X139323777Y-105620770D01*
X139444807Y-105542890D01*
X139526001Y-105424058D01*
X139554566Y-105283000D01*
X139554566Y-104634206D01*
X140075945Y-104112828D01*
X140168958Y-104252031D01*
X140480434Y-104563507D01*
X140480434Y-105283000D01*
X140505230Y-105414777D01*
X140583110Y-105535807D01*
X140701942Y-105617001D01*
X140843000Y-105645566D01*
X141114780Y-105645566D01*
X141114780Y-106037380D01*
X141119434Y-106060777D01*
X141119434Y-106320000D01*
X141144230Y-106451777D01*
X141222110Y-106572807D01*
X141274800Y-106608808D01*
X141274800Y-106935270D01*
X141309602Y-107110233D01*
X141408711Y-107258559D01*
X142060845Y-107910693D01*
X142209171Y-108009802D01*
X142384134Y-108044604D01*
X145625026Y-108044604D01*
X146869711Y-109289289D01*
X147018037Y-109388398D01*
X147193000Y-109423200D01*
X148261982Y-109423200D01*
X148161175Y-109523831D01*
X147969618Y-109985150D01*
X147969182Y-110484659D01*
X148159933Y-110946311D01*
X148262243Y-111048800D01*
X145573736Y-111048800D01*
X145398773Y-111083602D01*
X145250447Y-111182711D01*
X141070213Y-115362945D01*
X138892124Y-115362945D01*
X135447253Y-111918074D01*
X135298927Y-111818965D01*
X135123964Y-111784163D01*
X133466453Y-111784163D01*
X133233287Y-111550997D01*
X135703345Y-111550997D01*
X135862081Y-111785496D01*
X136593919Y-111893704D01*
X137137919Y-111785496D01*
X137296655Y-111550997D01*
X136500000Y-110754342D01*
X135703345Y-111550997D01*
X133233287Y-111550997D01*
X132865001Y-111182711D01*
X132716675Y-111083602D01*
X132541712Y-111048800D01*
X131773018Y-111048800D01*
X131873825Y-110948169D01*
X132065382Y-110486850D01*
X132065818Y-109987341D01*
X131875067Y-109525689D01*
X131522169Y-109172175D01*
X131060850Y-108980618D01*
X130561341Y-108980182D01*
X130099689Y-109170933D01*
X129746175Y-109523831D01*
X129554618Y-109985150D01*
X129554182Y-110484659D01*
X129626466Y-110659600D01*
X129540000Y-110642401D01*
X129453660Y-110659575D01*
X129525382Y-110486850D01*
X129525818Y-109987341D01*
X129335067Y-109525689D01*
X128982169Y-109172175D01*
X128520850Y-108980618D01*
X128021341Y-108980182D01*
X127559689Y-109170933D01*
X127206175Y-109523831D01*
X127014618Y-109985150D01*
X127014182Y-110484659D01*
X127204933Y-110946311D01*
X127557831Y-111299825D01*
X128019150Y-111491382D01*
X128333029Y-111491656D01*
X128304257Y-111520429D01*
X128021341Y-111520182D01*
X127559689Y-111710933D01*
X127206175Y-112063831D01*
X127014618Y-112525150D01*
X127014182Y-113024659D01*
X127204933Y-113486311D01*
X127557831Y-113839825D01*
X128019150Y-114031382D01*
X128333029Y-114031656D01*
X128304257Y-114060429D01*
X128021341Y-114060182D01*
X127559689Y-114250933D01*
X127206175Y-114603831D01*
X127014618Y-115065150D01*
X127014182Y-115564659D01*
X127204933Y-116026311D01*
X127557831Y-116379825D01*
X127888808Y-116517259D01*
X127354900Y-116737866D01*
X126899465Y-117192507D01*
X126652681Y-117786828D01*
X126652119Y-118430349D01*
X126897866Y-119025100D01*
X127352507Y-119480535D01*
X127441288Y-119517400D01*
X125482600Y-119517400D01*
X125482600Y-107944659D01*
X127014182Y-107944659D01*
X127204933Y-108406311D01*
X127557831Y-108759825D01*
X128019150Y-108951382D01*
X128518659Y-108951818D01*
X128980311Y-108761067D01*
X129333825Y-108408169D01*
X129525382Y-107946850D01*
X129525383Y-107944659D01*
X129554182Y-107944659D01*
X129744933Y-108406311D01*
X130097831Y-108759825D01*
X130559150Y-108951382D01*
X131058659Y-108951818D01*
X131520311Y-108761067D01*
X131873825Y-108408169D01*
X132065382Y-107946850D01*
X132065818Y-107447341D01*
X131875067Y-106985689D01*
X131522169Y-106632175D01*
X131060850Y-106440618D01*
X130561341Y-106440182D01*
X130099689Y-106630933D01*
X129746175Y-106983831D01*
X129554618Y-107445150D01*
X129554182Y-107944659D01*
X129525383Y-107944659D01*
X129525818Y-107447341D01*
X129335067Y-106985689D01*
X128982169Y-106632175D01*
X128520850Y-106440618D01*
X128021341Y-106440182D01*
X127559689Y-106630933D01*
X127206175Y-106983831D01*
X127014618Y-107445150D01*
X127014182Y-107944659D01*
X125482600Y-107944659D01*
X125482600Y-105404659D01*
X127014182Y-105404659D01*
X127204933Y-105866311D01*
X127557831Y-106219825D01*
X128019150Y-106411382D01*
X128518659Y-106411818D01*
X128980311Y-106221067D01*
X129333825Y-105868169D01*
X129525382Y-105406850D01*
X129525383Y-105404659D01*
X129554182Y-105404659D01*
X129744933Y-105866311D01*
X130097831Y-106219825D01*
X130559150Y-106411382D01*
X131058659Y-106411818D01*
X131520311Y-106221067D01*
X131873825Y-105868169D01*
X132065382Y-105406850D01*
X132065818Y-104907341D01*
X131875067Y-104445689D01*
X131522169Y-104092175D01*
X131060850Y-103900618D01*
X130561341Y-103900182D01*
X130099689Y-104090933D01*
X129746175Y-104443831D01*
X129554618Y-104905150D01*
X129554182Y-105404659D01*
X129525383Y-105404659D01*
X129525818Y-104907341D01*
X129335067Y-104445689D01*
X128982169Y-104092175D01*
X128520850Y-103900618D01*
X128021341Y-103900182D01*
X127559689Y-104090933D01*
X127206175Y-104443831D01*
X127014618Y-104905150D01*
X127014182Y-105404659D01*
X125482600Y-105404659D01*
X125482600Y-102864659D01*
X127014182Y-102864659D01*
X127204933Y-103326311D01*
X127557831Y-103679825D01*
X128019150Y-103871382D01*
X128518659Y-103871818D01*
X128980311Y-103681067D01*
X129333825Y-103328169D01*
X129525382Y-102866850D01*
X129525383Y-102864659D01*
X129554182Y-102864659D01*
X129744933Y-103326311D01*
X130097831Y-103679825D01*
X130559150Y-103871382D01*
X131058659Y-103871818D01*
X131520311Y-103681067D01*
X131873825Y-103328169D01*
X132065382Y-102866850D01*
X132065818Y-102367341D01*
X131875067Y-101905689D01*
X131522169Y-101552175D01*
X131060850Y-101360618D01*
X130561341Y-101360182D01*
X130099689Y-101550933D01*
X129746175Y-101903831D01*
X129554618Y-102365150D01*
X129554182Y-102864659D01*
X129525383Y-102864659D01*
X129525818Y-102367341D01*
X129335067Y-101905689D01*
X128982169Y-101552175D01*
X128520850Y-101360618D01*
X128021341Y-101360182D01*
X127559689Y-101550933D01*
X127206175Y-101903831D01*
X127014618Y-102365150D01*
X127014182Y-102864659D01*
X125482600Y-102864659D01*
X125482600Y-100324659D01*
X127014182Y-100324659D01*
X127204933Y-100786311D01*
X127557831Y-101139825D01*
X128019150Y-101331382D01*
X128518659Y-101331818D01*
X128980311Y-101141067D01*
X129333825Y-100788169D01*
X129525382Y-100326850D01*
X129525383Y-100324659D01*
X129554182Y-100324659D01*
X129744933Y-100786311D01*
X130097831Y-101139825D01*
X130559150Y-101331382D01*
X131058659Y-101331818D01*
X131520311Y-101141067D01*
X131873825Y-100788169D01*
X132065382Y-100326850D01*
X132065818Y-99827341D01*
X131875067Y-99365689D01*
X131522169Y-99012175D01*
X131060850Y-98820618D01*
X130561341Y-98820182D01*
X130099689Y-99010933D01*
X129746175Y-99363831D01*
X129554618Y-99825150D01*
X129554182Y-100324659D01*
X129525383Y-100324659D01*
X129525818Y-99827341D01*
X129335067Y-99365689D01*
X128982169Y-99012175D01*
X128520850Y-98820618D01*
X128021341Y-98820182D01*
X127559689Y-99010933D01*
X127206175Y-99363831D01*
X127014618Y-99825150D01*
X127014182Y-100324659D01*
X125482600Y-100324659D01*
X125482600Y-97784659D01*
X127014182Y-97784659D01*
X127204933Y-98246311D01*
X127557831Y-98599825D01*
X128019150Y-98791382D01*
X128518659Y-98791818D01*
X128980311Y-98601067D01*
X129333825Y-98248169D01*
X129525382Y-97786850D01*
X129525383Y-97784659D01*
X129554182Y-97784659D01*
X129744933Y-98246311D01*
X130097831Y-98599825D01*
X130559150Y-98791382D01*
X131058659Y-98791818D01*
X131520311Y-98601067D01*
X131873825Y-98248169D01*
X132065382Y-97786850D01*
X132065818Y-97287341D01*
X131875067Y-96825689D01*
X131522169Y-96472175D01*
X131060850Y-96280618D01*
X130561341Y-96280182D01*
X130099689Y-96470933D01*
X129746175Y-96823831D01*
X129554618Y-97285150D01*
X129554182Y-97784659D01*
X129525383Y-97784659D01*
X129525818Y-97287341D01*
X129335067Y-96825689D01*
X128982169Y-96472175D01*
X128520850Y-96280618D01*
X128021341Y-96280182D01*
X127559689Y-96470933D01*
X127206175Y-96823831D01*
X127014618Y-97285150D01*
X127014182Y-97784659D01*
X125482600Y-97784659D01*
X125482600Y-95244659D01*
X127014182Y-95244659D01*
X127204933Y-95706311D01*
X127557831Y-96059825D01*
X128019150Y-96251382D01*
X128518659Y-96251818D01*
X128980311Y-96061067D01*
X129333825Y-95708169D01*
X129525382Y-95246850D01*
X129525383Y-95244659D01*
X129554182Y-95244659D01*
X129744933Y-95706311D01*
X130097831Y-96059825D01*
X130559150Y-96251382D01*
X131058659Y-96251818D01*
X131520311Y-96061067D01*
X131873825Y-95708169D01*
X132065382Y-95246850D01*
X132065818Y-94747341D01*
X131875067Y-94285689D01*
X131522169Y-93932175D01*
X131060850Y-93740618D01*
X130561341Y-93740182D01*
X130099689Y-93930933D01*
X129746175Y-94283831D01*
X129554618Y-94745150D01*
X129554182Y-95244659D01*
X129525383Y-95244659D01*
X129525818Y-94747341D01*
X129335067Y-94285689D01*
X128982169Y-93932175D01*
X128520850Y-93740618D01*
X128021341Y-93740182D01*
X127559689Y-93930933D01*
X127206175Y-94283831D01*
X127014618Y-94745150D01*
X127014182Y-95244659D01*
X125482600Y-95244659D01*
X125482600Y-92704659D01*
X127014182Y-92704659D01*
X127204933Y-93166311D01*
X127557831Y-93519825D01*
X128019150Y-93711382D01*
X128518659Y-93711818D01*
X128980311Y-93521067D01*
X129333825Y-93168169D01*
X129525382Y-92706850D01*
X129525383Y-92704659D01*
X129554182Y-92704659D01*
X129744933Y-93166311D01*
X130097831Y-93519825D01*
X130559150Y-93711382D01*
X131058659Y-93711818D01*
X131520311Y-93521067D01*
X131873825Y-93168169D01*
X132065382Y-92706850D01*
X132065818Y-92207341D01*
X131875067Y-91745689D01*
X131522169Y-91392175D01*
X131060850Y-91200618D01*
X130561341Y-91200182D01*
X130099689Y-91390933D01*
X129746175Y-91743831D01*
X129554618Y-92205150D01*
X129554182Y-92704659D01*
X129525383Y-92704659D01*
X129525818Y-92207341D01*
X129335067Y-91745689D01*
X128982169Y-91392175D01*
X128520850Y-91200618D01*
X128021341Y-91200182D01*
X127559689Y-91390933D01*
X127206175Y-91743831D01*
X127014618Y-92205150D01*
X127014182Y-92704659D01*
X125482600Y-92704659D01*
X125482600Y-90164659D01*
X127014182Y-90164659D01*
X127204933Y-90626311D01*
X127557831Y-90979825D01*
X128019150Y-91171382D01*
X128518659Y-91171818D01*
X128980311Y-90981067D01*
X129333825Y-90628169D01*
X129525382Y-90166850D01*
X129525818Y-89667341D01*
X129335067Y-89205689D01*
X128982169Y-88852175D01*
X128520850Y-88660618D01*
X128021341Y-88660182D01*
X127559689Y-88850933D01*
X127206175Y-89203831D01*
X127014618Y-89665150D01*
X127014182Y-90164659D01*
X125482600Y-90164659D01*
X125482600Y-82389952D01*
X126733695Y-82389952D01*
X126814685Y-82797118D01*
X127024266Y-82905338D01*
X127633604Y-82296000D01*
X127024266Y-81686662D01*
X126814685Y-81794882D01*
X126733695Y-82389952D01*
X125482600Y-82389952D01*
X125482600Y-80004659D01*
X127014182Y-80004659D01*
X127204933Y-80466311D01*
X127557831Y-80819825D01*
X127740489Y-80895671D01*
X127660662Y-81050266D01*
X128270000Y-81659604D01*
X128879338Y-81050266D01*
X128799554Y-80895754D01*
X128980311Y-80821067D01*
X129333825Y-80468169D01*
X129525382Y-80006850D01*
X129525818Y-79507341D01*
X129335067Y-79045689D01*
X128982169Y-78692175D01*
X128799511Y-78616329D01*
X128879338Y-78461734D01*
X128270000Y-77852396D01*
X127660662Y-78461734D01*
X127740446Y-78616246D01*
X127559689Y-78690933D01*
X127206175Y-79043831D01*
X127014618Y-79505150D01*
X127014182Y-80004659D01*
X125482600Y-80004659D01*
X125482600Y-77309952D01*
X126733695Y-77309952D01*
X126814685Y-77717118D01*
X127024266Y-77825338D01*
X127633604Y-77216000D01*
X127024266Y-76606662D01*
X126814685Y-76714882D01*
X126733695Y-77309952D01*
X125482600Y-77309952D01*
X125482600Y-75921734D01*
X127660662Y-75921734D01*
X127673192Y-75946000D01*
X127660662Y-75970266D01*
X127712478Y-76022082D01*
X127768882Y-76131315D01*
X127830034Y-76139638D01*
X128270000Y-76579604D01*
X128705171Y-76144433D01*
X128771118Y-76131315D01*
X128827522Y-76022082D01*
X128879338Y-75970266D01*
X128866808Y-75946000D01*
X128879338Y-75921734D01*
X128827522Y-75869918D01*
X128771118Y-75760685D01*
X128709966Y-75752362D01*
X128270000Y-75312396D01*
X127834829Y-75747567D01*
X127768882Y-75760685D01*
X127712478Y-75869918D01*
X127660662Y-75921734D01*
X125482600Y-75921734D01*
X125482600Y-74769952D01*
X126733695Y-74769952D01*
X126814685Y-75177118D01*
X127024266Y-75285338D01*
X127633604Y-74676000D01*
X128906396Y-74676000D01*
X129515734Y-75285338D01*
X129572434Y-75256060D01*
X129572434Y-75551000D01*
X129597230Y-75682777D01*
X129675110Y-75803807D01*
X129793942Y-75885001D01*
X129935000Y-75913566D01*
X131685000Y-75913566D01*
X131816777Y-75888770D01*
X131937807Y-75810890D01*
X132019001Y-75692058D01*
X132047566Y-75551000D01*
X132047566Y-73801000D01*
X132022770Y-73669223D01*
X131944890Y-73548193D01*
X131826058Y-73466999D01*
X131685000Y-73438434D01*
X129935000Y-73438434D01*
X129803223Y-73463230D01*
X129682193Y-73541110D01*
X129600999Y-73659942D01*
X129572434Y-73801000D01*
X129572434Y-74095940D01*
X129515734Y-74066662D01*
X128906396Y-74676000D01*
X127633604Y-74676000D01*
X127024266Y-74066662D01*
X126814685Y-74174882D01*
X126733695Y-74769952D01*
X125482600Y-74769952D01*
X125482600Y-70482600D01*
X127254992Y-70482600D01*
X126899465Y-70837507D01*
G36*
X136228200Y-115141679D02*
X135862081Y-115214504D01*
X135703345Y-115449003D01*
X136500000Y-116245658D01*
X136514142Y-116231516D01*
X137268484Y-116985858D01*
X137254342Y-117000000D01*
X137268484Y-117014142D01*
X136514142Y-117768484D01*
X136500000Y-117754342D01*
X136485858Y-117768484D01*
X135731516Y-117014142D01*
X135745658Y-117000000D01*
X134949003Y-116203345D01*
X134714504Y-116362081D01*
X134625901Y-116961323D01*
X133161594Y-115497016D01*
X133197600Y-115316000D01*
X133131862Y-114985515D01*
X132944657Y-114705343D01*
X132664485Y-114518138D01*
X132589387Y-114503200D01*
X135589722Y-114503200D01*
X136228200Y-115141679D01*
X136228200Y-115141679D01*
G37*
X136228200Y-115141679D02*
X135862081Y-115214504D01*
X135703345Y-115449003D01*
X136500000Y-116245658D01*
X136514142Y-116231516D01*
X137268484Y-116985858D01*
X137254342Y-117000000D01*
X137268484Y-117014142D01*
X136514142Y-117768484D01*
X136500000Y-117754342D01*
X136485858Y-117768484D01*
X135731516Y-117014142D01*
X135745658Y-117000000D01*
X134949003Y-116203345D01*
X134714504Y-116362081D01*
X134625901Y-116961323D01*
X133161594Y-115497016D01*
X133197600Y-115316000D01*
X133131862Y-114985515D01*
X132944657Y-114705343D01*
X132664485Y-114518138D01*
X132589387Y-114503200D01*
X135589722Y-114503200D01*
X136228200Y-115141679D01*
G36*
X147878515Y-114518138D02*
X147598343Y-114705343D01*
X147411138Y-114985515D01*
X147345400Y-115316000D01*
X147381406Y-115497016D01*
X145293303Y-117585119D01*
X145393704Y-116906081D01*
X145285496Y-116362081D01*
X145050997Y-116203345D01*
X144254342Y-117000000D01*
X144268484Y-117014142D01*
X143514142Y-117768484D01*
X143500000Y-117754342D01*
X143485858Y-117768484D01*
X142731516Y-117014142D01*
X142745658Y-117000000D01*
X142731516Y-116985858D01*
X143485858Y-116231516D01*
X143500000Y-116245658D01*
X144296655Y-115449003D01*
X144137919Y-115214504D01*
X143722705Y-115153111D01*
X144372616Y-114503200D01*
X147953613Y-114503200D01*
X147878515Y-114518138D01*
X147878515Y-114518138D01*
G37*
X147878515Y-114518138D02*
X147598343Y-114705343D01*
X147411138Y-114985515D01*
X147345400Y-115316000D01*
X147381406Y-115497016D01*
X145293303Y-117585119D01*
X145393704Y-116906081D01*
X145285496Y-116362081D01*
X145050997Y-116203345D01*
X144254342Y-117000000D01*
X144268484Y-117014142D01*
X143514142Y-117768484D01*
X143500000Y-117754342D01*
X143485858Y-117768484D01*
X142731516Y-117014142D01*
X142745658Y-117000000D01*
X142731516Y-116985858D01*
X143485858Y-116231516D01*
X143500000Y-116245658D01*
X144296655Y-115449003D01*
X144137919Y-115214504D01*
X143722705Y-115153111D01*
X144372616Y-114503200D01*
X147953613Y-114503200D01*
X147878515Y-114518138D01*
G36*
X144790500Y-105920000D02*
X144928000Y-105920000D01*
X144928000Y-106170000D01*
X144790500Y-106170000D01*
X144790500Y-106752200D01*
X144942900Y-106904600D01*
X145049257Y-106904600D01*
X145273311Y-106811794D01*
X145443278Y-106641827D01*
X145521000Y-106657566D01*
X146071000Y-106657566D01*
X146086763Y-106654600D01*
X146274200Y-106654600D01*
X146507484Y-106608197D01*
X146666119Y-106502200D01*
X147257622Y-106502200D01*
X147504711Y-106749289D01*
X147653037Y-106848398D01*
X147828000Y-106883200D01*
X148261982Y-106883200D01*
X148161175Y-106983831D01*
X147969618Y-107445150D01*
X147969182Y-107944659D01*
X148159933Y-108406311D01*
X148262243Y-108508800D01*
X147382378Y-108508800D01*
X146137693Y-107264115D01*
X145989367Y-107165006D01*
X145814404Y-107130204D01*
X142573512Y-107130204D01*
X142370196Y-106926888D01*
X142376743Y-106929600D01*
X142470600Y-106929600D01*
X142623000Y-106777200D01*
X142623000Y-106182500D01*
X142873000Y-106182500D01*
X142873000Y-106777200D01*
X143025400Y-106929600D01*
X143119257Y-106929600D01*
X143343311Y-106836794D01*
X143514794Y-106665311D01*
X143607600Y-106441257D01*
X143607600Y-106334900D01*
X143595100Y-106322400D01*
X143768400Y-106322400D01*
X143768400Y-106416257D01*
X143861206Y-106640311D01*
X144032689Y-106811794D01*
X144256743Y-106904600D01*
X144363100Y-106904600D01*
X144515500Y-106752200D01*
X144515500Y-106170000D01*
X143920800Y-106170000D01*
X143768400Y-106322400D01*
X143595100Y-106322400D01*
X143455200Y-106182500D01*
X142873000Y-106182500D01*
X142623000Y-106182500D01*
X142498000Y-106182500D01*
X142498000Y-105907500D01*
X142623000Y-105907500D01*
X142623000Y-105892600D01*
X142873000Y-105892600D01*
X142873000Y-105907500D01*
X143455200Y-105907500D01*
X143470100Y-105892600D01*
X143758257Y-105892600D01*
X143853818Y-105853018D01*
X143920800Y-105920000D01*
X144515500Y-105920000D01*
X144515500Y-105795000D01*
X144790500Y-105795000D01*
X144790500Y-105920000D01*
X144790500Y-105920000D01*
G37*
X144790500Y-105920000D02*
X144928000Y-105920000D01*
X144928000Y-106170000D01*
X144790500Y-106170000D01*
X144790500Y-106752200D01*
X144942900Y-106904600D01*
X145049257Y-106904600D01*
X145273311Y-106811794D01*
X145443278Y-106641827D01*
X145521000Y-106657566D01*
X146071000Y-106657566D01*
X146086763Y-106654600D01*
X146274200Y-106654600D01*
X146507484Y-106608197D01*
X146666119Y-106502200D01*
X147257622Y-106502200D01*
X147504711Y-106749289D01*
X147653037Y-106848398D01*
X147828000Y-106883200D01*
X148261982Y-106883200D01*
X148161175Y-106983831D01*
X147969618Y-107445150D01*
X147969182Y-107944659D01*
X148159933Y-108406311D01*
X148262243Y-108508800D01*
X147382378Y-108508800D01*
X146137693Y-107264115D01*
X145989367Y-107165006D01*
X145814404Y-107130204D01*
X142573512Y-107130204D01*
X142370196Y-106926888D01*
X142376743Y-106929600D01*
X142470600Y-106929600D01*
X142623000Y-106777200D01*
X142623000Y-106182500D01*
X142873000Y-106182500D01*
X142873000Y-106777200D01*
X143025400Y-106929600D01*
X143119257Y-106929600D01*
X143343311Y-106836794D01*
X143514794Y-106665311D01*
X143607600Y-106441257D01*
X143607600Y-106334900D01*
X143595100Y-106322400D01*
X143768400Y-106322400D01*
X143768400Y-106416257D01*
X143861206Y-106640311D01*
X144032689Y-106811794D01*
X144256743Y-106904600D01*
X144363100Y-106904600D01*
X144515500Y-106752200D01*
X144515500Y-106170000D01*
X143920800Y-106170000D01*
X143768400Y-106322400D01*
X143595100Y-106322400D01*
X143455200Y-106182500D01*
X142873000Y-106182500D01*
X142623000Y-106182500D01*
X142498000Y-106182500D01*
X142498000Y-105907500D01*
X142623000Y-105907500D01*
X142623000Y-105892600D01*
X142873000Y-105892600D01*
X142873000Y-105907500D01*
X143455200Y-105907500D01*
X143470100Y-105892600D01*
X143758257Y-105892600D01*
X143853818Y-105853018D01*
X143920800Y-105920000D01*
X144515500Y-105920000D01*
X144515500Y-105795000D01*
X144790500Y-105795000D01*
X144790500Y-105920000D01*
G36*
X143383000Y-104521000D02*
X143637000Y-104521000D01*
X143637000Y-105029000D01*
X143383000Y-105029000D01*
X143383000Y-105283000D01*
X143373105Y-105283000D01*
X143343311Y-105253206D01*
X143281402Y-105227563D01*
X143281402Y-105160400D01*
X142875000Y-105160400D01*
X142875000Y-105029000D01*
X142621000Y-105029000D01*
X142621000Y-104521000D01*
X142875000Y-104521000D01*
X142875000Y-104267000D01*
X143383000Y-104267000D01*
X143383000Y-104521000D01*
X143383000Y-104521000D01*
G37*
X143383000Y-104521000D02*
X143637000Y-104521000D01*
X143637000Y-105029000D01*
X143383000Y-105029000D01*
X143383000Y-105283000D01*
X143373105Y-105283000D01*
X143343311Y-105253206D01*
X143281402Y-105227563D01*
X143281402Y-105160400D01*
X142875000Y-105160400D01*
X142875000Y-105029000D01*
X142621000Y-105029000D01*
X142621000Y-104521000D01*
X142875000Y-104521000D01*
X142875000Y-104267000D01*
X143383000Y-104267000D01*
X143383000Y-104521000D01*
G36*
X137160000Y-104521000D02*
X137414000Y-104521000D01*
X137414000Y-105029000D01*
X137160000Y-105029000D01*
X137160000Y-105160400D01*
X136753598Y-105160400D01*
X136753598Y-105227563D01*
X136691689Y-105253206D01*
X136661895Y-105283000D01*
X136652000Y-105283000D01*
X136652000Y-105029000D01*
X136398000Y-105029000D01*
X136398000Y-104521000D01*
X136652000Y-104521000D01*
X136652000Y-104343200D01*
X137160000Y-104343200D01*
X137160000Y-104521000D01*
X137160000Y-104521000D01*
G37*
X137160000Y-104521000D02*
X137414000Y-104521000D01*
X137414000Y-105029000D01*
X137160000Y-105029000D01*
X137160000Y-105160400D01*
X136753598Y-105160400D01*
X136753598Y-105227563D01*
X136691689Y-105253206D01*
X136661895Y-105283000D01*
X136652000Y-105283000D01*
X136652000Y-105029000D01*
X136398000Y-105029000D01*
X136398000Y-104521000D01*
X136652000Y-104521000D01*
X136652000Y-104343200D01*
X137160000Y-104343200D01*
X137160000Y-104521000D01*
G36*
X143043400Y-96352743D02*
X143043400Y-96471600D01*
X143195800Y-96624000D01*
X144153000Y-96624000D01*
X144153000Y-96621600D01*
X145153000Y-96621600D01*
X145153000Y-96624000D01*
X146110200Y-96624000D01*
X146211634Y-96522566D01*
X146681000Y-96522566D01*
X146694854Y-96519959D01*
X146851689Y-96676794D01*
X146913598Y-96702437D01*
X146913598Y-96769600D01*
X147391142Y-96769600D01*
X147123711Y-97037031D01*
X147024602Y-97185357D01*
X146989800Y-97360320D01*
X146989800Y-97479763D01*
X146944193Y-97509110D01*
X146939842Y-97515477D01*
X146822058Y-97434999D01*
X146681000Y-97406434D01*
X146181000Y-97406434D01*
X146174631Y-97407632D01*
X146262600Y-97195257D01*
X146262600Y-97076400D01*
X146110200Y-96924000D01*
X145153000Y-96924000D01*
X145153000Y-96926400D01*
X144153000Y-96926400D01*
X144153000Y-96924000D01*
X143195800Y-96924000D01*
X143043400Y-97076400D01*
X143043400Y-97195257D01*
X143136206Y-97419311D01*
X143307689Y-97590794D01*
X143322974Y-97597125D01*
X143318999Y-97602942D01*
X143290434Y-97744000D01*
X143290434Y-98344000D01*
X143315230Y-98475777D01*
X143393110Y-98596807D01*
X143511942Y-98678001D01*
X143516908Y-98679007D01*
X143400193Y-98754110D01*
X143318999Y-98872942D01*
X143290434Y-99014000D01*
X143290434Y-99614000D01*
X143315230Y-99745777D01*
X143393110Y-99866807D01*
X143511942Y-99948001D01*
X143516908Y-99949007D01*
X143400193Y-100024110D01*
X143330028Y-100126800D01*
X142429379Y-100126800D01*
X142189200Y-99886622D01*
X142189200Y-99332298D01*
X142245103Y-99276493D01*
X142337494Y-99053990D01*
X142337704Y-98813067D01*
X142245702Y-98590404D01*
X142075493Y-98419897D01*
X141852990Y-98327506D01*
X141612067Y-98327296D01*
X141389404Y-98419298D01*
X141218897Y-98589507D01*
X141126506Y-98812010D01*
X141126296Y-99052933D01*
X141218298Y-99275596D01*
X141274800Y-99332197D01*
X141274800Y-100076000D01*
X141309602Y-100250963D01*
X141408711Y-100399289D01*
X141916710Y-100907289D01*
X142041659Y-100990777D01*
X142065037Y-101006398D01*
X142240000Y-101041200D01*
X143331589Y-101041200D01*
X143393110Y-101136807D01*
X143511942Y-101218001D01*
X143516908Y-101219007D01*
X143400193Y-101294110D01*
X143318999Y-101412942D01*
X143290434Y-101554000D01*
X143290434Y-102154000D01*
X143315230Y-102285777D01*
X143324530Y-102300230D01*
X143307689Y-102307206D01*
X143136206Y-102478689D01*
X143043400Y-102702743D01*
X143043400Y-102821600D01*
X143195800Y-102974000D01*
X144153000Y-102974000D01*
X144153000Y-102971600D01*
X145153000Y-102971600D01*
X145153000Y-102974000D01*
X145206400Y-102974000D01*
X145206400Y-103274000D01*
X145153000Y-103274000D01*
X145153000Y-103424000D01*
X144153000Y-103424000D01*
X144153000Y-103274000D01*
X143195800Y-103274000D01*
X143043400Y-103426400D01*
X143043400Y-103545257D01*
X143089851Y-103657400D01*
X142499743Y-103657400D01*
X142275689Y-103750206D01*
X142104206Y-103921689D01*
X142077581Y-103985968D01*
X142000058Y-103932999D01*
X141859000Y-103904434D01*
X141114517Y-103904434D01*
X140949447Y-103739364D01*
X140949447Y-98362991D01*
X143102588Y-96209850D01*
X143043400Y-96352743D01*
X143043400Y-96352743D01*
G37*
X143043400Y-96352743D02*
X143043400Y-96471600D01*
X143195800Y-96624000D01*
X144153000Y-96624000D01*
X144153000Y-96621600D01*
X145153000Y-96621600D01*
X145153000Y-96624000D01*
X146110200Y-96624000D01*
X146211634Y-96522566D01*
X146681000Y-96522566D01*
X146694854Y-96519959D01*
X146851689Y-96676794D01*
X146913598Y-96702437D01*
X146913598Y-96769600D01*
X147391142Y-96769600D01*
X147123711Y-97037031D01*
X147024602Y-97185357D01*
X146989800Y-97360320D01*
X146989800Y-97479763D01*
X146944193Y-97509110D01*
X146939842Y-97515477D01*
X146822058Y-97434999D01*
X146681000Y-97406434D01*
X146181000Y-97406434D01*
X146174631Y-97407632D01*
X146262600Y-97195257D01*
X146262600Y-97076400D01*
X146110200Y-96924000D01*
X145153000Y-96924000D01*
X145153000Y-96926400D01*
X144153000Y-96926400D01*
X144153000Y-96924000D01*
X143195800Y-96924000D01*
X143043400Y-97076400D01*
X143043400Y-97195257D01*
X143136206Y-97419311D01*
X143307689Y-97590794D01*
X143322974Y-97597125D01*
X143318999Y-97602942D01*
X143290434Y-97744000D01*
X143290434Y-98344000D01*
X143315230Y-98475777D01*
X143393110Y-98596807D01*
X143511942Y-98678001D01*
X143516908Y-98679007D01*
X143400193Y-98754110D01*
X143318999Y-98872942D01*
X143290434Y-99014000D01*
X143290434Y-99614000D01*
X143315230Y-99745777D01*
X143393110Y-99866807D01*
X143511942Y-99948001D01*
X143516908Y-99949007D01*
X143400193Y-100024110D01*
X143330028Y-100126800D01*
X142429379Y-100126800D01*
X142189200Y-99886622D01*
X142189200Y-99332298D01*
X142245103Y-99276493D01*
X142337494Y-99053990D01*
X142337704Y-98813067D01*
X142245702Y-98590404D01*
X142075493Y-98419897D01*
X141852990Y-98327506D01*
X141612067Y-98327296D01*
X141389404Y-98419298D01*
X141218897Y-98589507D01*
X141126506Y-98812010D01*
X141126296Y-99052933D01*
X141218298Y-99275596D01*
X141274800Y-99332197D01*
X141274800Y-100076000D01*
X141309602Y-100250963D01*
X141408711Y-100399289D01*
X141916710Y-100907289D01*
X142041659Y-100990777D01*
X142065037Y-101006398D01*
X142240000Y-101041200D01*
X143331589Y-101041200D01*
X143393110Y-101136807D01*
X143511942Y-101218001D01*
X143516908Y-101219007D01*
X143400193Y-101294110D01*
X143318999Y-101412942D01*
X143290434Y-101554000D01*
X143290434Y-102154000D01*
X143315230Y-102285777D01*
X143324530Y-102300230D01*
X143307689Y-102307206D01*
X143136206Y-102478689D01*
X143043400Y-102702743D01*
X143043400Y-102821600D01*
X143195800Y-102974000D01*
X144153000Y-102974000D01*
X144153000Y-102971600D01*
X145153000Y-102971600D01*
X145153000Y-102974000D01*
X145206400Y-102974000D01*
X145206400Y-103274000D01*
X145153000Y-103274000D01*
X145153000Y-103424000D01*
X144153000Y-103424000D01*
X144153000Y-103274000D01*
X143195800Y-103274000D01*
X143043400Y-103426400D01*
X143043400Y-103545257D01*
X143089851Y-103657400D01*
X142499743Y-103657400D01*
X142275689Y-103750206D01*
X142104206Y-103921689D01*
X142077581Y-103985968D01*
X142000058Y-103932999D01*
X141859000Y-103904434D01*
X141114517Y-103904434D01*
X140949447Y-103739364D01*
X140949447Y-98362991D01*
X143102588Y-96209850D01*
X143043400Y-96352743D01*
G36*
X140294489Y-95410211D02*
X138233711Y-97470989D01*
X138134602Y-97619315D01*
X138099800Y-97794278D01*
X138099800Y-98533702D01*
X138043897Y-98589507D01*
X137951506Y-98812010D01*
X137951296Y-99052933D01*
X138043298Y-99275596D01*
X138213507Y-99446103D01*
X138436010Y-99538494D01*
X138676933Y-99538704D01*
X138815814Y-99481320D01*
X138815814Y-102218607D01*
X137605622Y-103428800D01*
X136616594Y-103428800D01*
X136617566Y-103424000D01*
X136617566Y-102824000D01*
X136592770Y-102692223D01*
X136514890Y-102571193D01*
X136509615Y-102567589D01*
X136510945Y-102409297D01*
X136589001Y-102295058D01*
X136617566Y-102154000D01*
X136617566Y-101554000D01*
X136592770Y-101422223D01*
X136520188Y-101309426D01*
X136521750Y-101123483D01*
X136589001Y-101025058D01*
X136617566Y-100884000D01*
X136617566Y-100284000D01*
X136592770Y-100152223D01*
X136530723Y-100055798D01*
X136532556Y-99837669D01*
X136589001Y-99755058D01*
X136617566Y-99614000D01*
X136617566Y-99014000D01*
X136592770Y-98882223D01*
X136541257Y-98802169D01*
X136543361Y-98551855D01*
X136589001Y-98485058D01*
X136617566Y-98344000D01*
X136617566Y-97744000D01*
X136592770Y-97612223D01*
X136551792Y-97548541D01*
X136554166Y-97266041D01*
X136589001Y-97215058D01*
X136617566Y-97074000D01*
X136617566Y-96474000D01*
X136592770Y-96342223D01*
X136562327Y-96294912D01*
X136563509Y-96154230D01*
X136646298Y-96354596D01*
X136816507Y-96525103D01*
X137039010Y-96617494D01*
X137279933Y-96617704D01*
X137502596Y-96525702D01*
X137673103Y-96355493D01*
X137765494Y-96132990D01*
X137765704Y-95892067D01*
X137673702Y-95669404D01*
X137617200Y-95612803D01*
X137617200Y-95226018D01*
X138734892Y-94108326D01*
X138713506Y-94159830D01*
X138713296Y-94400753D01*
X138805298Y-94623416D01*
X138975507Y-94793923D01*
X139198010Y-94886314D01*
X139438933Y-94886524D01*
X139661596Y-94794522D01*
X139832103Y-94624313D01*
X139924494Y-94401810D01*
X139924564Y-94321834D01*
X140294489Y-93951909D01*
X140294489Y-95410211D01*
X140294489Y-95410211D01*
G37*
X140294489Y-95410211D02*
X138233711Y-97470989D01*
X138134602Y-97619315D01*
X138099800Y-97794278D01*
X138099800Y-98533702D01*
X138043897Y-98589507D01*
X137951506Y-98812010D01*
X137951296Y-99052933D01*
X138043298Y-99275596D01*
X138213507Y-99446103D01*
X138436010Y-99538494D01*
X138676933Y-99538704D01*
X138815814Y-99481320D01*
X138815814Y-102218607D01*
X137605622Y-103428800D01*
X136616594Y-103428800D01*
X136617566Y-103424000D01*
X136617566Y-102824000D01*
X136592770Y-102692223D01*
X136514890Y-102571193D01*
X136509615Y-102567589D01*
X136510945Y-102409297D01*
X136589001Y-102295058D01*
X136617566Y-102154000D01*
X136617566Y-101554000D01*
X136592770Y-101422223D01*
X136520188Y-101309426D01*
X136521750Y-101123483D01*
X136589001Y-101025058D01*
X136617566Y-100884000D01*
X136617566Y-100284000D01*
X136592770Y-100152223D01*
X136530723Y-100055798D01*
X136532556Y-99837669D01*
X136589001Y-99755058D01*
X136617566Y-99614000D01*
X136617566Y-99014000D01*
X136592770Y-98882223D01*
X136541257Y-98802169D01*
X136543361Y-98551855D01*
X136589001Y-98485058D01*
X136617566Y-98344000D01*
X136617566Y-97744000D01*
X136592770Y-97612223D01*
X136551792Y-97548541D01*
X136554166Y-97266041D01*
X136589001Y-97215058D01*
X136617566Y-97074000D01*
X136617566Y-96474000D01*
X136592770Y-96342223D01*
X136562327Y-96294912D01*
X136563509Y-96154230D01*
X136646298Y-96354596D01*
X136816507Y-96525103D01*
X137039010Y-96617494D01*
X137279933Y-96617704D01*
X137502596Y-96525702D01*
X137673103Y-96355493D01*
X137765494Y-96132990D01*
X137765704Y-95892067D01*
X137673702Y-95669404D01*
X137617200Y-95612803D01*
X137617200Y-95226018D01*
X138734892Y-94108326D01*
X138713506Y-94159830D01*
X138713296Y-94400753D01*
X138805298Y-94623416D01*
X138975507Y-94793923D01*
X139198010Y-94886314D01*
X139438933Y-94886524D01*
X139661596Y-94794522D01*
X139832103Y-94624313D01*
X139924494Y-94401810D01*
X139924564Y-94321834D01*
X140294489Y-93951909D01*
X140294489Y-95410211D01*
G36*
X147572000Y-99176500D02*
X147697000Y-99176500D01*
X147697000Y-99451500D01*
X147572000Y-99451500D01*
X147572000Y-100446500D01*
X147697000Y-100446500D01*
X147697000Y-100721500D01*
X147572000Y-100721500D01*
X147572000Y-100859000D01*
X147322000Y-100859000D01*
X147322000Y-100721500D01*
X147197000Y-100721500D01*
X147197000Y-100446500D01*
X147322000Y-100446500D01*
X147322000Y-99451500D01*
X147197000Y-99451500D01*
X147197000Y-99176500D01*
X147322000Y-99176500D01*
X147322000Y-99039000D01*
X147572000Y-99039000D01*
X147572000Y-99176500D01*
X147572000Y-99176500D01*
G37*
X147572000Y-99176500D02*
X147697000Y-99176500D01*
X147697000Y-99451500D01*
X147572000Y-99451500D01*
X147572000Y-100446500D01*
X147697000Y-100446500D01*
X147697000Y-100721500D01*
X147572000Y-100721500D01*
X147572000Y-100859000D01*
X147322000Y-100859000D01*
X147322000Y-100721500D01*
X147197000Y-100721500D01*
X147197000Y-100446500D01*
X147322000Y-100446500D01*
X147322000Y-99451500D01*
X147197000Y-99451500D01*
X147197000Y-99176500D01*
X147322000Y-99176500D01*
X147322000Y-99039000D01*
X147572000Y-99039000D01*
X147572000Y-99176500D01*
G36*
X147572000Y-95747500D02*
X147697000Y-95747500D01*
X147697000Y-96022500D01*
X147572000Y-96022500D01*
X147572000Y-96160000D01*
X147322000Y-96160000D01*
X147322000Y-96022500D01*
X147197000Y-96022500D01*
X147197000Y-95747500D01*
X147322000Y-95747500D01*
X147322000Y-95610000D01*
X147572000Y-95610000D01*
X147572000Y-95747500D01*
X147572000Y-95747500D01*
G37*
X147572000Y-95747500D02*
X147697000Y-95747500D01*
X147697000Y-96022500D01*
X147572000Y-96022500D01*
X147572000Y-96160000D01*
X147322000Y-96160000D01*
X147322000Y-96022500D01*
X147197000Y-96022500D01*
X147197000Y-95747500D01*
X147322000Y-95747500D01*
X147322000Y-95610000D01*
X147572000Y-95610000D01*
X147572000Y-95747500D01*
G36*
X145966230Y-83951777D02*
X146044110Y-84072807D01*
X146046751Y-84074611D01*
X145969999Y-84186942D01*
X145941434Y-84328000D01*
X145941434Y-85254520D01*
X145867803Y-85364716D01*
X145821400Y-85598000D01*
X145821400Y-85998681D01*
X145794058Y-85979999D01*
X145653000Y-85951434D01*
X143653000Y-85951434D01*
X143521223Y-85976230D01*
X143400193Y-86054110D01*
X143318999Y-86172942D01*
X143290434Y-86314000D01*
X143290434Y-86629988D01*
X142932711Y-86987711D01*
X142833602Y-87136037D01*
X142798800Y-87311000D01*
X142798800Y-90401440D01*
X142569508Y-90630732D01*
X142470399Y-90779058D01*
X142435597Y-90954021D01*
X142435597Y-93859432D01*
X141208889Y-95086140D01*
X141208889Y-93156514D01*
X141306200Y-93196921D01*
X141547123Y-93197131D01*
X141769786Y-93105129D01*
X141940293Y-92934920D01*
X142032684Y-92712417D01*
X142032894Y-92471494D01*
X141940892Y-92248831D01*
X141770683Y-92078324D01*
X141615300Y-92013804D01*
X141615300Y-90469242D01*
X141717045Y-90511490D01*
X141957968Y-90511700D01*
X142180631Y-90419698D01*
X142351138Y-90249489D01*
X142443529Y-90026986D01*
X142443739Y-89786063D01*
X142351737Y-89563400D01*
X142295235Y-89506799D01*
X142295235Y-85744343D01*
X143938013Y-84101566D01*
X145654000Y-84101566D01*
X145785777Y-84076770D01*
X145906807Y-83998890D01*
X145960350Y-83920527D01*
X145966230Y-83951777D01*
X145966230Y-83951777D01*
G37*
X145966230Y-83951777D02*
X146044110Y-84072807D01*
X146046751Y-84074611D01*
X145969999Y-84186942D01*
X145941434Y-84328000D01*
X145941434Y-85254520D01*
X145867803Y-85364716D01*
X145821400Y-85598000D01*
X145821400Y-85998681D01*
X145794058Y-85979999D01*
X145653000Y-85951434D01*
X143653000Y-85951434D01*
X143521223Y-85976230D01*
X143400193Y-86054110D01*
X143318999Y-86172942D01*
X143290434Y-86314000D01*
X143290434Y-86629988D01*
X142932711Y-86987711D01*
X142833602Y-87136037D01*
X142798800Y-87311000D01*
X142798800Y-90401440D01*
X142569508Y-90630732D01*
X142470399Y-90779058D01*
X142435597Y-90954021D01*
X142435597Y-93859432D01*
X141208889Y-95086140D01*
X141208889Y-93156514D01*
X141306200Y-93196921D01*
X141547123Y-93197131D01*
X141769786Y-93105129D01*
X141940293Y-92934920D01*
X142032684Y-92712417D01*
X142032894Y-92471494D01*
X141940892Y-92248831D01*
X141770683Y-92078324D01*
X141615300Y-92013804D01*
X141615300Y-90469242D01*
X141717045Y-90511490D01*
X141957968Y-90511700D01*
X142180631Y-90419698D01*
X142351138Y-90249489D01*
X142443529Y-90026986D01*
X142443739Y-89786063D01*
X142351737Y-89563400D01*
X142295235Y-89506799D01*
X142295235Y-85744343D01*
X143938013Y-84101566D01*
X145654000Y-84101566D01*
X145785777Y-84076770D01*
X145906807Y-83998890D01*
X145960350Y-83920527D01*
X145966230Y-83951777D01*
G36*
X147193000Y-94234000D02*
X147904200Y-94234000D01*
X147955000Y-94183200D01*
X148261982Y-94183200D01*
X148161175Y-94283831D01*
X147969618Y-94745150D01*
X147969564Y-94807364D01*
X147904200Y-94742000D01*
X147193000Y-94742000D01*
X147193000Y-94996000D01*
X146685000Y-94996000D01*
X146685000Y-94742000D01*
X146507200Y-94742000D01*
X146507200Y-94234000D01*
X146685000Y-94234000D01*
X146685000Y-93980000D01*
X147193000Y-93980000D01*
X147193000Y-94234000D01*
X147193000Y-94234000D01*
G37*
X147193000Y-94234000D02*
X147904200Y-94234000D01*
X147955000Y-94183200D01*
X148261982Y-94183200D01*
X148161175Y-94283831D01*
X147969618Y-94745150D01*
X147969564Y-94807364D01*
X147904200Y-94742000D01*
X147193000Y-94742000D01*
X147193000Y-94996000D01*
X146685000Y-94996000D01*
X146685000Y-94742000D01*
X146507200Y-94742000D01*
X146507200Y-94234000D01*
X146685000Y-94234000D01*
X146685000Y-93980000D01*
X147193000Y-93980000D01*
X147193000Y-94234000D01*
G36*
X152474511Y-82222885D02*
X152401396Y-82296000D01*
X152474511Y-82369115D01*
X151838115Y-83005511D01*
X151765000Y-82932396D01*
X151155662Y-83541734D01*
X151235446Y-83696246D01*
X151054689Y-83770933D01*
X150701175Y-84123831D01*
X150509618Y-84585150D01*
X150509182Y-85084659D01*
X150699933Y-85546311D01*
X151052831Y-85899825D01*
X151514150Y-86091382D01*
X152013659Y-86091818D01*
X152475311Y-85901067D01*
X152577800Y-85798757D01*
X152577800Y-86412982D01*
X152477169Y-86312175D01*
X152015850Y-86120618D01*
X151516341Y-86120182D01*
X151054689Y-86310933D01*
X150701175Y-86663831D01*
X150509618Y-87125150D01*
X150509182Y-87624659D01*
X150699933Y-88086311D01*
X151052831Y-88439825D01*
X151514150Y-88631382D01*
X152013659Y-88631818D01*
X152475311Y-88441067D01*
X152577800Y-88338757D01*
X152577800Y-88952982D01*
X152477169Y-88852175D01*
X152015850Y-88660618D01*
X151516341Y-88660182D01*
X151054689Y-88850933D01*
X150701175Y-89203831D01*
X150509618Y-89665150D01*
X150509182Y-90164659D01*
X150699933Y-90626311D01*
X151052831Y-90979825D01*
X151514150Y-91171382D01*
X152013659Y-91171818D01*
X152475311Y-90981067D01*
X152577800Y-90878757D01*
X152577800Y-91492982D01*
X152477169Y-91392175D01*
X152015850Y-91200618D01*
X151516341Y-91200182D01*
X151054689Y-91390933D01*
X150701175Y-91743831D01*
X150509618Y-92205150D01*
X150509182Y-92704659D01*
X150699933Y-93166311D01*
X150802243Y-93268800D01*
X150188018Y-93268800D01*
X150288825Y-93168169D01*
X150480382Y-92706850D01*
X150480818Y-92207341D01*
X150290067Y-91745689D01*
X149937169Y-91392175D01*
X149475850Y-91200618D01*
X148976341Y-91200182D01*
X148514689Y-91390933D01*
X148304478Y-91600778D01*
X148154200Y-91450500D01*
X147572000Y-91450500D01*
X147572000Y-91588000D01*
X147322000Y-91588000D01*
X147322000Y-91450500D01*
X147197000Y-91450500D01*
X147197000Y-91175500D01*
X147322000Y-91175500D01*
X147322000Y-91038000D01*
X147572000Y-91038000D01*
X147572000Y-91175500D01*
X148154200Y-91175500D01*
X148306600Y-91023100D01*
X148306600Y-90916743D01*
X148213794Y-90692689D01*
X148056600Y-90535495D01*
X148056600Y-90376226D01*
X148159933Y-90626311D01*
X148512831Y-90979825D01*
X148974150Y-91171382D01*
X149473659Y-91171818D01*
X149935311Y-90981067D01*
X150288825Y-90628169D01*
X150480382Y-90166850D01*
X150480818Y-89667341D01*
X150290067Y-89205689D01*
X149937169Y-88852175D01*
X149475850Y-88660618D01*
X148976341Y-88660182D01*
X148514689Y-88850933D01*
X148161175Y-89203831D01*
X148056600Y-89455675D01*
X148056600Y-89286743D01*
X147963794Y-89062689D01*
X147792311Y-88891206D01*
X147728032Y-88864581D01*
X147781001Y-88787058D01*
X147809566Y-88646000D01*
X147809566Y-87630000D01*
X147808738Y-87625600D01*
X147969571Y-87625600D01*
X148159933Y-88086311D01*
X148512831Y-88439825D01*
X148974150Y-88631382D01*
X149473659Y-88631818D01*
X149935311Y-88441067D01*
X150288825Y-88088169D01*
X150480382Y-87626850D01*
X150480818Y-87127341D01*
X150290067Y-86665689D01*
X149937169Y-86312175D01*
X149475850Y-86120618D01*
X148976341Y-86120182D01*
X148514689Y-86310933D01*
X148306600Y-86518659D01*
X148306600Y-86207598D01*
X148249793Y-86207598D01*
X148213794Y-86120689D01*
X148042311Y-85949206D01*
X147980402Y-85923562D01*
X147980402Y-85856400D01*
X147935675Y-85856400D01*
X147936566Y-85852000D01*
X147936566Y-85084659D01*
X147969182Y-85084659D01*
X148159933Y-85546311D01*
X148512831Y-85899825D01*
X148974150Y-86091382D01*
X149473659Y-86091818D01*
X149935311Y-85901067D01*
X150288825Y-85548169D01*
X150480382Y-85086850D01*
X150480818Y-84587341D01*
X150290067Y-84125689D01*
X149937169Y-83772175D01*
X149475850Y-83580618D01*
X148976341Y-83580182D01*
X148514689Y-83770933D01*
X148161175Y-84123831D01*
X147969618Y-84585150D01*
X147969182Y-85084659D01*
X147936566Y-85084659D01*
X147936566Y-84328000D01*
X147911770Y-84196223D01*
X147833890Y-84075193D01*
X147831249Y-84073389D01*
X147908001Y-83961058D01*
X147936566Y-83820000D01*
X147936566Y-82922538D01*
X148070131Y-82788973D01*
X148159933Y-83006311D01*
X148512831Y-83359825D01*
X148974150Y-83551382D01*
X149473659Y-83551818D01*
X149935311Y-83361067D01*
X150288825Y-83008169D01*
X150364671Y-82825511D01*
X150519266Y-82905338D01*
X151128604Y-82296000D01*
X151055489Y-82222885D01*
X151691885Y-81586489D01*
X151765000Y-81659604D01*
X151838115Y-81586489D01*
X152474511Y-82222885D01*
X152474511Y-82222885D01*
G37*
X152474511Y-82222885D02*
X152401396Y-82296000D01*
X152474511Y-82369115D01*
X151838115Y-83005511D01*
X151765000Y-82932396D01*
X151155662Y-83541734D01*
X151235446Y-83696246D01*
X151054689Y-83770933D01*
X150701175Y-84123831D01*
X150509618Y-84585150D01*
X150509182Y-85084659D01*
X150699933Y-85546311D01*
X151052831Y-85899825D01*
X151514150Y-86091382D01*
X152013659Y-86091818D01*
X152475311Y-85901067D01*
X152577800Y-85798757D01*
X152577800Y-86412982D01*
X152477169Y-86312175D01*
X152015850Y-86120618D01*
X151516341Y-86120182D01*
X151054689Y-86310933D01*
X150701175Y-86663831D01*
X150509618Y-87125150D01*
X150509182Y-87624659D01*
X150699933Y-88086311D01*
X151052831Y-88439825D01*
X151514150Y-88631382D01*
X152013659Y-88631818D01*
X152475311Y-88441067D01*
X152577800Y-88338757D01*
X152577800Y-88952982D01*
X152477169Y-88852175D01*
X152015850Y-88660618D01*
X151516341Y-88660182D01*
X151054689Y-88850933D01*
X150701175Y-89203831D01*
X150509618Y-89665150D01*
X150509182Y-90164659D01*
X150699933Y-90626311D01*
X151052831Y-90979825D01*
X151514150Y-91171382D01*
X152013659Y-91171818D01*
X152475311Y-90981067D01*
X152577800Y-90878757D01*
X152577800Y-91492982D01*
X152477169Y-91392175D01*
X152015850Y-91200618D01*
X151516341Y-91200182D01*
X151054689Y-91390933D01*
X150701175Y-91743831D01*
X150509618Y-92205150D01*
X150509182Y-92704659D01*
X150699933Y-93166311D01*
X150802243Y-93268800D01*
X150188018Y-93268800D01*
X150288825Y-93168169D01*
X150480382Y-92706850D01*
X150480818Y-92207341D01*
X150290067Y-91745689D01*
X149937169Y-91392175D01*
X149475850Y-91200618D01*
X148976341Y-91200182D01*
X148514689Y-91390933D01*
X148304478Y-91600778D01*
X148154200Y-91450500D01*
X147572000Y-91450500D01*
X147572000Y-91588000D01*
X147322000Y-91588000D01*
X147322000Y-91450500D01*
X147197000Y-91450500D01*
X147197000Y-91175500D01*
X147322000Y-91175500D01*
X147322000Y-91038000D01*
X147572000Y-91038000D01*
X147572000Y-91175500D01*
X148154200Y-91175500D01*
X148306600Y-91023100D01*
X148306600Y-90916743D01*
X148213794Y-90692689D01*
X148056600Y-90535495D01*
X148056600Y-90376226D01*
X148159933Y-90626311D01*
X148512831Y-90979825D01*
X148974150Y-91171382D01*
X149473659Y-91171818D01*
X149935311Y-90981067D01*
X150288825Y-90628169D01*
X150480382Y-90166850D01*
X150480818Y-89667341D01*
X150290067Y-89205689D01*
X149937169Y-88852175D01*
X149475850Y-88660618D01*
X148976341Y-88660182D01*
X148514689Y-88850933D01*
X148161175Y-89203831D01*
X148056600Y-89455675D01*
X148056600Y-89286743D01*
X147963794Y-89062689D01*
X147792311Y-88891206D01*
X147728032Y-88864581D01*
X147781001Y-88787058D01*
X147809566Y-88646000D01*
X147809566Y-87630000D01*
X147808738Y-87625600D01*
X147969571Y-87625600D01*
X148159933Y-88086311D01*
X148512831Y-88439825D01*
X148974150Y-88631382D01*
X149473659Y-88631818D01*
X149935311Y-88441067D01*
X150288825Y-88088169D01*
X150480382Y-87626850D01*
X150480818Y-87127341D01*
X150290067Y-86665689D01*
X149937169Y-86312175D01*
X149475850Y-86120618D01*
X148976341Y-86120182D01*
X148514689Y-86310933D01*
X148306600Y-86518659D01*
X148306600Y-86207598D01*
X148249793Y-86207598D01*
X148213794Y-86120689D01*
X148042311Y-85949206D01*
X147980402Y-85923562D01*
X147980402Y-85856400D01*
X147935675Y-85856400D01*
X147936566Y-85852000D01*
X147936566Y-85084659D01*
X147969182Y-85084659D01*
X148159933Y-85546311D01*
X148512831Y-85899825D01*
X148974150Y-86091382D01*
X149473659Y-86091818D01*
X149935311Y-85901067D01*
X150288825Y-85548169D01*
X150480382Y-85086850D01*
X150480818Y-84587341D01*
X150290067Y-84125689D01*
X149937169Y-83772175D01*
X149475850Y-83580618D01*
X148976341Y-83580182D01*
X148514689Y-83770933D01*
X148161175Y-84123831D01*
X147969618Y-84585150D01*
X147969182Y-85084659D01*
X147936566Y-85084659D01*
X147936566Y-84328000D01*
X147911770Y-84196223D01*
X147833890Y-84075193D01*
X147831249Y-84073389D01*
X147908001Y-83961058D01*
X147936566Y-83820000D01*
X147936566Y-82922538D01*
X148070131Y-82788973D01*
X148159933Y-83006311D01*
X148512831Y-83359825D01*
X148974150Y-83551382D01*
X149473659Y-83551818D01*
X149935311Y-83361067D01*
X150288825Y-83008169D01*
X150364671Y-82825511D01*
X150519266Y-82905338D01*
X151128604Y-82296000D01*
X151055489Y-82222885D01*
X151691885Y-81586489D01*
X151765000Y-81659604D01*
X151838115Y-81586489D01*
X152474511Y-82222885D01*
G36*
X147193000Y-89662000D02*
X147447000Y-89662000D01*
X147447000Y-90170000D01*
X147193000Y-90170000D01*
X147193000Y-90424000D01*
X146685000Y-90424000D01*
X146685000Y-90170000D01*
X146431000Y-90170000D01*
X146431000Y-89662000D01*
X146685000Y-89662000D01*
X146685000Y-89408000D01*
X147193000Y-89408000D01*
X147193000Y-89662000D01*
X147193000Y-89662000D01*
G37*
X147193000Y-89662000D02*
X147447000Y-89662000D01*
X147447000Y-90170000D01*
X147193000Y-90170000D01*
X147193000Y-90424000D01*
X146685000Y-90424000D01*
X146685000Y-90170000D01*
X146431000Y-90170000D01*
X146431000Y-89662000D01*
X146685000Y-89662000D01*
X146685000Y-89408000D01*
X147193000Y-89408000D01*
X147193000Y-89662000D01*
G36*
X145153000Y-89004000D02*
X145206400Y-89004000D01*
X145206400Y-89304000D01*
X145153000Y-89304000D01*
X145153000Y-89306400D01*
X144153000Y-89306400D01*
X144153000Y-89304000D01*
X144099600Y-89304000D01*
X144099600Y-89004000D01*
X144153000Y-89004000D01*
X144153000Y-89001600D01*
X145153000Y-89001600D01*
X145153000Y-89004000D01*
X145153000Y-89004000D01*
G37*
X145153000Y-89004000D02*
X145206400Y-89004000D01*
X145206400Y-89304000D01*
X145153000Y-89304000D01*
X145153000Y-89306400D01*
X144153000Y-89306400D01*
X144153000Y-89304000D01*
X144099600Y-89304000D01*
X144099600Y-89004000D01*
X144153000Y-89004000D01*
X144153000Y-89001600D01*
X145153000Y-89001600D01*
X145153000Y-89004000D01*
G36*
X147572000Y-86603500D02*
X147697000Y-86603500D01*
X147697000Y-86878500D01*
X147572000Y-86878500D01*
X147572000Y-87016000D01*
X147322000Y-87016000D01*
X147322000Y-86878500D01*
X147197000Y-86878500D01*
X147197000Y-86603500D01*
X147322000Y-86603500D01*
X147322000Y-86466000D01*
X147572000Y-86466000D01*
X147572000Y-86603500D01*
X147572000Y-86603500D01*
G37*
X147572000Y-86603500D02*
X147697000Y-86603500D01*
X147697000Y-86878500D01*
X147572000Y-86878500D01*
X147572000Y-87016000D01*
X147322000Y-87016000D01*
X147322000Y-86878500D01*
X147197000Y-86878500D01*
X147197000Y-86603500D01*
X147322000Y-86603500D01*
X147322000Y-86466000D01*
X147572000Y-86466000D01*
X147572000Y-86603500D01*
G36*
X135754000Y-83289000D02*
X135807400Y-83289000D01*
X135807400Y-83589000D01*
X135754000Y-83589000D01*
X135754000Y-84196200D01*
X135906400Y-84348600D01*
X136151499Y-84348600D01*
X136151499Y-85105654D01*
X136068325Y-85071117D01*
X135967536Y-85071029D01*
X135947335Y-85067011D01*
X135941870Y-85067011D01*
X135921869Y-85070989D01*
X135827402Y-85070907D01*
X135739324Y-85107300D01*
X135708586Y-85113414D01*
X135682756Y-85130673D01*
X135604739Y-85162909D01*
X135544468Y-85223075D01*
X135510818Y-85245559D01*
X135488531Y-85278914D01*
X135434232Y-85333118D01*
X135404551Y-85404598D01*
X135378673Y-85443327D01*
X135369665Y-85488613D01*
X135341841Y-85555621D01*
X135341777Y-85628815D01*
X135332270Y-85676611D01*
X135332270Y-85951434D01*
X134295422Y-85951434D01*
X134315200Y-85852000D01*
X134315200Y-84348600D01*
X134601600Y-84348600D01*
X134754000Y-84196200D01*
X134754000Y-83589000D01*
X134700600Y-83589000D01*
X134700600Y-83289000D01*
X134754000Y-83289000D01*
X134754000Y-83286600D01*
X135754000Y-83286600D01*
X135754000Y-83289000D01*
X135754000Y-83289000D01*
G37*
X135754000Y-83289000D02*
X135807400Y-83289000D01*
X135807400Y-83589000D01*
X135754000Y-83589000D01*
X135754000Y-84196200D01*
X135906400Y-84348600D01*
X136151499Y-84348600D01*
X136151499Y-85105654D01*
X136068325Y-85071117D01*
X135967536Y-85071029D01*
X135947335Y-85067011D01*
X135941870Y-85067011D01*
X135921869Y-85070989D01*
X135827402Y-85070907D01*
X135739324Y-85107300D01*
X135708586Y-85113414D01*
X135682756Y-85130673D01*
X135604739Y-85162909D01*
X135544468Y-85223075D01*
X135510818Y-85245559D01*
X135488531Y-85278914D01*
X135434232Y-85333118D01*
X135404551Y-85404598D01*
X135378673Y-85443327D01*
X135369665Y-85488613D01*
X135341841Y-85555621D01*
X135341777Y-85628815D01*
X135332270Y-85676611D01*
X135332270Y-85951434D01*
X134295422Y-85951434D01*
X134315200Y-85852000D01*
X134315200Y-84348600D01*
X134601600Y-84348600D01*
X134754000Y-84196200D01*
X134754000Y-83589000D01*
X134700600Y-83589000D01*
X134700600Y-83289000D01*
X134754000Y-83289000D01*
X134754000Y-83286600D01*
X135754000Y-83286600D01*
X135754000Y-83289000D01*
G36*
X152474511Y-77142885D02*
X152401396Y-77216000D01*
X152474511Y-77289115D01*
X151838115Y-77925511D01*
X151765000Y-77852396D01*
X151691885Y-77925511D01*
X151055489Y-77289115D01*
X151128604Y-77216000D01*
X151055489Y-77142885D01*
X151691885Y-76506489D01*
X151765000Y-76579604D01*
X151838115Y-76506489D01*
X152474511Y-77142885D01*
X152474511Y-77142885D01*
G37*
X152474511Y-77142885D02*
X152401396Y-77216000D01*
X152474511Y-77289115D01*
X151838115Y-77925511D01*
X151765000Y-77852396D01*
X151691885Y-77925511D01*
X151055489Y-77289115D01*
X151128604Y-77216000D01*
X151055489Y-77142885D01*
X151691885Y-76506489D01*
X151765000Y-76579604D01*
X151838115Y-76506489D01*
X152474511Y-77142885D01*
G36*
X148361648Y-73353952D02*
X148361400Y-73355200D01*
X148361400Y-73438434D01*
X148350000Y-73438434D01*
X148218223Y-73463230D01*
X148097193Y-73541110D01*
X148015999Y-73659942D01*
X147987434Y-73801000D01*
X147987434Y-74686266D01*
X146326186Y-76347515D01*
X146138981Y-76627687D01*
X146073243Y-76958172D01*
X146073243Y-77703921D01*
X146051193Y-77718110D01*
X145969999Y-77836942D01*
X145961304Y-77879878D01*
X145913890Y-77806193D01*
X145795058Y-77724999D01*
X145790092Y-77723993D01*
X145906807Y-77648890D01*
X145988001Y-77530058D01*
X146016566Y-77389000D01*
X146016566Y-76789000D01*
X145991770Y-76657223D01*
X145913890Y-76536193D01*
X145795058Y-76454999D01*
X145790092Y-76453993D01*
X145906807Y-76378890D01*
X145988001Y-76260058D01*
X146016566Y-76119000D01*
X146016566Y-75519000D01*
X145991770Y-75387223D01*
X145913890Y-75266193D01*
X145795058Y-75184999D01*
X145790092Y-75183993D01*
X145906807Y-75108890D01*
X145988001Y-74990058D01*
X146016566Y-74849000D01*
X146016566Y-74249000D01*
X145991770Y-74117223D01*
X145982470Y-74102770D01*
X145999311Y-74095794D01*
X146106420Y-73988685D01*
X146161743Y-74011600D01*
X146268100Y-74011600D01*
X146420500Y-73859200D01*
X146420500Y-73277000D01*
X146695500Y-73277000D01*
X146695500Y-73859200D01*
X146847900Y-74011600D01*
X146954257Y-74011600D01*
X147178311Y-73918794D01*
X147349794Y-73747311D01*
X147442600Y-73523257D01*
X147442600Y-73429400D01*
X147290200Y-73277000D01*
X146695500Y-73277000D01*
X146420500Y-73277000D01*
X146283000Y-73277000D01*
X146283000Y-73027000D01*
X146420500Y-73027000D01*
X146420500Y-72902000D01*
X146695500Y-72902000D01*
X146695500Y-73027000D01*
X147290200Y-73027000D01*
X147442600Y-72874600D01*
X147442600Y-72780743D01*
X147428043Y-72745600D01*
X147753296Y-72745600D01*
X148361648Y-73353952D01*
X148361648Y-73353952D01*
G37*
X148361648Y-73353952D02*
X148361400Y-73355200D01*
X148361400Y-73438434D01*
X148350000Y-73438434D01*
X148218223Y-73463230D01*
X148097193Y-73541110D01*
X148015999Y-73659942D01*
X147987434Y-73801000D01*
X147987434Y-74686266D01*
X146326186Y-76347515D01*
X146138981Y-76627687D01*
X146073243Y-76958172D01*
X146073243Y-77703921D01*
X146051193Y-77718110D01*
X145969999Y-77836942D01*
X145961304Y-77879878D01*
X145913890Y-77806193D01*
X145795058Y-77724999D01*
X145790092Y-77723993D01*
X145906807Y-77648890D01*
X145988001Y-77530058D01*
X146016566Y-77389000D01*
X146016566Y-76789000D01*
X145991770Y-76657223D01*
X145913890Y-76536193D01*
X145795058Y-76454999D01*
X145790092Y-76453993D01*
X145906807Y-76378890D01*
X145988001Y-76260058D01*
X146016566Y-76119000D01*
X146016566Y-75519000D01*
X145991770Y-75387223D01*
X145913890Y-75266193D01*
X145795058Y-75184999D01*
X145790092Y-75183993D01*
X145906807Y-75108890D01*
X145988001Y-74990058D01*
X146016566Y-74849000D01*
X146016566Y-74249000D01*
X145991770Y-74117223D01*
X145982470Y-74102770D01*
X145999311Y-74095794D01*
X146106420Y-73988685D01*
X146161743Y-74011600D01*
X146268100Y-74011600D01*
X146420500Y-73859200D01*
X146420500Y-73277000D01*
X146695500Y-73277000D01*
X146695500Y-73859200D01*
X146847900Y-74011600D01*
X146954257Y-74011600D01*
X147178311Y-73918794D01*
X147349794Y-73747311D01*
X147442600Y-73523257D01*
X147442600Y-73429400D01*
X147290200Y-73277000D01*
X146695500Y-73277000D01*
X146420500Y-73277000D01*
X146283000Y-73277000D01*
X146283000Y-73027000D01*
X146420500Y-73027000D01*
X146420500Y-72902000D01*
X146695500Y-72902000D01*
X146695500Y-73027000D01*
X147290200Y-73027000D01*
X147442600Y-72874600D01*
X147442600Y-72780743D01*
X147428043Y-72745600D01*
X147753296Y-72745600D01*
X148361648Y-73353952D01*
M02*
