G04 #@! TF.FileFunction,Soldermask,Bot*
%FSLAX46Y46*%
G04 Gerber Fmt 4.6, Leading zero omitted, Abs format (unit mm)*
G04 Created by KiCad (PCBNEW 4.0.1-3.201512221401+6198~38~ubuntu15.10.1-stable) date Thu 31 Mar 2016 03:59:41 PM EEST*
%MOMM*%
G01*
G04 APERTURE LIST*
%ADD10C,0.100000*%
%ADD11C,0.254000*%
%ADD12R,1.851600X1.851600*%
%ADD13C,1.901600*%
%ADD14R,1.117600X1.117600*%
%ADD15R,0.601600X0.651600*%
%ADD16R,0.651600X0.601600*%
%ADD17R,1.400000X1.000000*%
%ADD18R,1.270000X1.701800*%
%ADD19C,2.601600*%
%ADD20C,2.101600*%
%ADD21R,1.879600X1.879600*%
%ADD22C,1.879600*%
%ADD23C,1.254000*%
%ADD24R,1.501600X1.101600*%
G04 APERTURE END LIST*
D10*
D11*
X125000000Y-120000000D02*
X125000000Y-70000000D01*
X155000000Y-120000000D02*
X125000000Y-120000000D01*
X155000000Y-70000000D02*
X155000000Y-120000000D01*
X125000000Y-70000000D02*
X155000000Y-70000000D01*
D12*
X149225000Y-74676000D03*
D13*
X151765000Y-74676000D03*
X149225000Y-77216000D03*
X151765000Y-77216000D03*
X149225000Y-79756000D03*
X151765000Y-79756000D03*
X149225000Y-82296000D03*
X151765000Y-82296000D03*
X149225000Y-84836000D03*
X151765000Y-84836000D03*
X151765000Y-87376000D03*
X149225000Y-87376000D03*
X151765000Y-89916000D03*
X149225000Y-89916000D03*
X151765000Y-92456000D03*
X149225000Y-92456000D03*
X151765000Y-94996000D03*
X149225000Y-94996000D03*
X151765000Y-97536000D03*
X149225000Y-97536000D03*
X151765000Y-105156000D03*
X149225000Y-105156000D03*
X151765000Y-115316000D03*
X149225000Y-112776000D03*
X151765000Y-112776000D03*
X149225000Y-115316000D03*
X149225000Y-110236000D03*
X151765000Y-107696000D03*
X151765000Y-110236000D03*
X149225000Y-107696000D03*
X151765000Y-100076000D03*
X151765000Y-102616000D03*
X149225000Y-102616000D03*
X149225000Y-100076000D03*
D14*
X136906000Y-74803000D03*
X138684000Y-74803000D03*
D15*
X136017000Y-71374000D03*
X135001000Y-71374000D03*
D16*
X140208000Y-72009000D03*
X140208000Y-73025000D03*
D15*
X140589000Y-74930000D03*
X141605000Y-74930000D03*
X143256000Y-74930000D03*
X144272000Y-74930000D03*
D17*
X141648000Y-73467000D03*
X141648000Y-71567000D03*
X143848000Y-72517000D03*
D18*
X134239000Y-113030000D03*
X134239000Y-113030000D03*
X132715000Y-113030000D03*
X134239000Y-115570000D03*
X134239000Y-115570000D03*
X132715000Y-115570000D03*
X134239000Y-118110000D03*
X134239000Y-118110000D03*
X132715000Y-118110000D03*
X134239000Y-110490000D03*
X134239000Y-110490000D03*
X132715000Y-110490000D03*
D19*
X136500000Y-117000000D03*
X136500000Y-110000000D03*
X143500000Y-110000000D03*
D20*
X140000000Y-113500000D03*
D19*
X143500000Y-117000000D03*
D21*
X149225000Y-117856000D03*
D22*
X151765000Y-117856000D03*
D23*
X128270000Y-71755000D03*
X151765000Y-71755000D03*
X128270000Y-118110000D03*
D12*
X130810000Y-74676000D03*
D13*
X128270000Y-74676000D03*
X130810000Y-77216000D03*
X128270000Y-77216000D03*
X130810000Y-79756000D03*
X128270000Y-79756000D03*
X130810000Y-82296000D03*
X128270000Y-82296000D03*
X130810000Y-84836000D03*
X128270000Y-84836000D03*
X128270000Y-87376000D03*
X130810000Y-87376000D03*
X128270000Y-89916000D03*
X130810000Y-89916000D03*
X128270000Y-92456000D03*
X130810000Y-92456000D03*
X128270000Y-94996000D03*
X130810000Y-94996000D03*
X128270000Y-97536000D03*
X130810000Y-97536000D03*
X128270000Y-105156000D03*
X130810000Y-105156000D03*
X128270000Y-115316000D03*
X130810000Y-112776000D03*
X128270000Y-112776000D03*
X130810000Y-115316000D03*
X130810000Y-110236000D03*
X128270000Y-107696000D03*
X128270000Y-110236000D03*
X130810000Y-107696000D03*
X128270000Y-100076000D03*
X128270000Y-102616000D03*
X130810000Y-102616000D03*
X130810000Y-100076000D03*
D24*
X136692640Y-72514460D03*
X138902440Y-73469500D03*
X138902440Y-71567040D03*
D14*
X132588000Y-71501000D03*
X132588000Y-73279000D03*
M02*
