M48
;DRILL file {KiCad 4.0.1-3.201512221401+6198~38~ubuntu15.10.1-stable} date Thu 31 Mar 2016 04:00:02 PM EEST
;FORMAT={-:-/ absolute / metric / decimal}
FMAT,2
METRIC,TZ
T1C0.300
T2C0.600
T3C1.000
T4C1.500
%
G90
G05
M71
T1
X130.04Y-71.755
X130.04Y-72.908
X130.045Y-119.383
X130.113Y-70.61
X131.073Y-70.612
X131.445Y-119.383
X132.08Y-70.61
X132.715Y-119.383
X133.35Y-70.61
X133.477Y-96.774
X133.477Y-97.536
X133.477Y-98.171
X133.477Y-98.806
X133.604Y-91.821
X133.604Y-93.146
X133.606Y-90.62
X133.858Y-71.374
X133.858Y-72.009
X133.985Y-119.383
X134.239Y-109.093
X134.62Y-70.61
X134.62Y-84.328
X135.254Y-84.327
X135.255Y-119.383
X135.89Y-70.61
X135.89Y-106.045
X135.947Y-85.677
X136.017Y-84.328
X136.114Y-105.537
X136.525Y-119.383
X136.609Y-87.249
X136.652Y-105.537
X136.656Y-74.039
X136.779Y-106.045
X137.16Y-70.61
X137.16Y-74.041
X137.16Y-96.012
X137.16Y-105.537
X137.668Y-74.295
X137.668Y-74.803
X137.672Y-97.786
X137.718Y-87.249
X137.718Y-85.677
X137.795Y-119.383
X137.922Y-96.774
X138.125Y-82.825
X138.125Y-83.528
X138.43Y-70.61
X138.557Y-81.661
X138.557Y-98.933
X138.684Y-95.457
X138.909Y-80.378
X139.065Y-119.383
X139.319Y-94.281
X139.319Y-103.251
X139.7Y-70.61
X139.847Y-74.936
X140.335Y-119.383
X140.574Y-80.372
X140.97Y-70.61
X140.97Y-81.661
X140.993Y-82.973
X141.427Y-92.591
X141.605Y-119.383
X141.732Y-98.933
X141.838Y-89.906
X142.113Y-90.631
X142.113Y-91.821
X142.24Y-93.146
X142.367Y-83.528
X142.555Y-89.166
X142.714Y-70.61
X142.875Y-96.774
X142.875Y-97.282
X142.875Y-103.124
X142.875Y-103.966
X142.875Y-105.537
X142.875Y-119.383
X143.256Y-106.045
X143.383Y-96.774
X143.383Y-103.124
X143.383Y-103.966
X143.383Y-105.537
X143.764Y-85.344
X143.891Y-105.537
X144.018Y-103.759
X144.145Y-106.045
X144.145Y-119.383
X144.272Y-70.61
X144.272Y-84.836
X144.653Y-103.759
X144.653Y-104.521
X144.78Y-85.344
X145.288Y-84.836
X145.415Y-119.383
X146.05Y-70.61
X146.05Y-96.774
X146.177Y-89.154
X146.558Y-73.66
X146.685Y-119.383
X146.939Y-89.154
X147.066Y-73.152
X147.066Y-73.66
X147.32Y-70.61
X147.447Y-99.949
X147.574Y-73.152
X147.574Y-73.66
X147.955Y-80.772
X147.955Y-119.383
X148.082Y-99.314
X148.59Y-70.61
X149.225Y-119.383
X149.966Y-70.61
X149.995Y-71.755
X149.995Y-72.605
X150.495Y-119.383
X150.796Y-73.406
X151.765Y-119.383
X152.4Y-83.566
X152.781Y-106.426
X152.958Y-119.383
X153.135Y-101.388
X153.162Y-78.486
X153.162Y-81.026
X154.051Y-119.126
T2
X126.111Y-70.866
X126.111Y-72.771
X126.111Y-74.759
X126.111Y-77.216
X126.111Y-79.756
X126.111Y-82.296
X126.111Y-84.836
X126.111Y-87.376
X126.111Y-89.916
X126.111Y-92.456
X126.111Y-94.996
X126.111Y-97.536
X126.111Y-100.076
X126.111Y-102.616
X126.111Y-105.156
X126.111Y-107.696
X126.111Y-110.236
X126.111Y-112.776
X126.111Y-115.316
X126.111Y-117.348
X126.111Y-119.126
X154.109Y-72.784
X154.131Y-70.816
X154.131Y-74.663
X154.131Y-76.2
X154.131Y-78.74
X154.131Y-81.28
X154.131Y-83.82
X154.131Y-86.36
X154.131Y-88.9
X154.131Y-91.44
X154.131Y-93.98
X154.131Y-96.52
X154.131Y-99.06
X154.131Y-101.6
X154.131Y-104.14
X154.131Y-106.68
X154.131Y-109.22
X154.131Y-111.76
X154.131Y-114.3
X154.131Y-116.84
T3
X128.27Y-74.676
X128.27Y-77.216
X128.27Y-79.756
X128.27Y-82.296
X128.27Y-84.836
X128.27Y-87.376
X128.27Y-89.916
X128.27Y-92.456
X128.27Y-94.996
X128.27Y-97.536
X128.27Y-100.076
X128.27Y-102.616
X128.27Y-105.156
X128.27Y-107.696
X128.27Y-110.236
X128.27Y-112.776
X128.27Y-115.316
X130.81Y-74.676
X130.81Y-77.216
X130.81Y-79.756
X130.81Y-82.296
X130.81Y-84.836
X130.81Y-87.376
X130.81Y-89.916
X130.81Y-92.456
X130.81Y-94.996
X130.81Y-97.536
X130.81Y-100.076
X130.81Y-102.616
X130.81Y-105.156
X130.81Y-107.696
X130.81Y-110.236
X130.81Y-112.776
X130.81Y-115.316
X140.Y-113.5
X149.225Y-74.676
X149.225Y-77.216
X149.225Y-79.756
X149.225Y-82.296
X149.225Y-84.836
X149.225Y-87.376
X149.225Y-89.916
X149.225Y-92.456
X149.225Y-94.996
X149.225Y-97.536
X149.225Y-100.076
X149.225Y-102.616
X149.225Y-105.156
X149.225Y-107.696
X149.225Y-110.236
X149.225Y-112.776
X149.225Y-115.316
X149.225Y-117.856
X151.765Y-74.676
X151.765Y-77.216
X151.765Y-79.756
X151.765Y-82.296
X151.765Y-84.836
X151.765Y-87.376
X151.765Y-89.916
X151.765Y-92.456
X151.765Y-94.996
X151.765Y-97.536
X151.765Y-100.076
X151.765Y-102.616
X151.765Y-105.156
X151.765Y-107.696
X151.765Y-110.236
X151.765Y-112.776
X151.765Y-115.316
X151.765Y-117.856
T4
X136.5Y-110.
X136.5Y-117.
X143.5Y-110.
X143.5Y-117.
T0
M30
